<svg xmlns="http://www.w3.org/2000/svg" version="1.1" xmlns:xlink="http://www.w3.org/1999/xlink" xmlns:svgjs="http://svgjs.dev/svgjs" width="260" height="260"><svg width="260" height="260" viewBox="0 0 260 260" fill="none" xmlns="http://www.w3.org/2000/svg">
<path d="M0 50C0 22.3858 22.3858 0 50 0H210C237.614 0 260 22.3858 260 50V210C260 237.614 237.614 260 210 260H50C22.3858 260 0 237.614 0 210V50Z" fill="#DBD1BD"></path>
<path d="M53.08 125.416C55 125.416 56.632 124.584 57.976 122.92C59.384 121.192 60.28 119.08 60.664 116.584C58.296 117.224 56.312 118.44 54.712 120.232C53.112 121.96 52.312 123.272 52.312 124.168C52.312 125 52.568 125.416 53.08 125.416ZM12.856 165.064C12.92 167.624 15.384 168.904 20.248 168.904C25.112 168.904 29.592 168.168 33.688 166.696C25.688 164.392 20.216 163.24 17.272 163.24C14.328 163.24 12.856 163.848 12.856 165.064ZM60.76 115.432C60.824 115.176 60.856 114.376 60.856 113.032C60.856 111.688 60.472 110.12 59.704 108.328C51.832 111.656 45.112 116.52 39.544 122.92C34.04 129.256 31.288 134.76 31.288 139.432C31.288 143.784 33.848 145.96 38.968 145.96C43.384 145.96 47.896 144.328 52.504 141.064C57.176 137.8 60.856 134.152 63.544 130.12C66.296 126.024 67.672 122.664 67.672 120.04C67.672 117.416 66.36 116.104 63.736 116.104C63.224 116.104 62.84 116.136 62.584 116.2C62.072 119.208 60.856 121.768 58.936 123.88C57.08 125.992 54.84 127.048 52.216 127.048C50.488 127.048 49.624 126.44 49.624 125.224C49.624 123.752 50.744 121.992 52.984 119.944C55.224 117.832 57.816 116.328 60.76 115.432ZM107.128 124.456C107.128 117.736 104.088 112.68 98.008 109.288C91.032 114.536 81.88 124.52 70.552 139.24C66.648 144.232 61.912 149.32 56.344 154.504C50.776 159.624 45.176 163.432 39.544 165.928C45.624 167.592 50.456 168.424 54.04 168.424C60.696 168.424 67.352 167.016 74.008 164.2C80.664 161.32 86.36 157.736 91.096 153.448C95.832 149.16 99.672 144.424 102.616 139.24C105.624 133.992 107.128 129.064 107.128 124.456ZM15.544 119.08C15.096 119.848 14.648 120.232 14.2 120.232C13.752 120.232 13.528 119.976 13.528 119.464C13.528 119.144 13.656 118.76 13.912 118.312C16.984 114.024 21.72 109.832 28.12 105.736C34.584 101.64 41.08 99.592 47.608 99.592C54.2 99.592 58.712 101.832 61.144 106.312C66.584 104.392 72.056 103.432 77.56 103.432C86.136 103.432 93.112 104.648 98.488 107.08C104.184 103.432 109.72 101.064 115.096 99.976C115.608 99.976 115.864 100.168 115.864 100.552C115.864 100.936 115.64 101.16 115.192 101.224C110.008 102.312 104.952 104.488 100.024 107.752C106.936 111.336 110.392 116.744 110.392 123.976C110.392 128.84 108.76 133.992 105.496 139.432C102.296 144.872 98.104 149.864 92.92 154.408C87.8 158.888 81.624 162.632 74.392 165.64C67.16 168.584 59.896 170.056 52.6 170.056C48.44 170.056 42.904 169.16 35.992 167.368C30.808 169.096 25.496 169.96 20.056 169.96C13.208 169.96 9.784 168.424 9.784 165.352C9.784 162.984 13.08 161.8 19.672 161.8C23.384 161.8 29.304 162.984 37.432 165.352C42.68 162.984 47.992 159.272 53.368 154.216C58.744 149.096 63.384 144.008 67.288 138.952C71.256 133.832 75.896 128.328 81.208 122.44C86.584 116.488 91.672 111.816 96.472 108.424C91.416 105.992 84.76 104.776 76.504 104.776C71.704 104.776 66.776 105.704 61.72 107.56C62.488 109.288 62.872 110.856 62.872 112.264C62.872 113.672 62.84 114.568 62.776 114.952C63.8 114.824 64.632 114.76 65.272 114.76C68.92 114.76 70.744 116.296 70.744 119.368C70.744 121.608 69.72 124.36 67.672 127.624C65.624 130.888 63.032 134.024 59.896 137.032C56.824 140.04 53.208 142.6 49.048 144.712C44.952 146.824 41.208 147.88 37.816 147.88C34.424 147.88 31.96 147.208 30.424 145.864C28.888 144.456 28.12 142.568 28.12 140.2C28.12 135.08 31.096 129.16 37.048 122.44C43.064 115.656 50.424 110.536 59.128 107.08C56.76 102.792 52.6 100.648 46.648 100.648C40.696 100.648 34.488 102.792 28.024 107.08C21.56 111.368 17.4 115.368 15.544 119.08ZM132.994 129.64V129.736C135.618 128.456 137.73 127.176 139.33 125.896C140.93 124.552 141.73 123.528 141.73 122.824C141.73 122.056 141.41 121.672 140.77 121.672C139.426 121.672 137.794 122.568 135.874 124.36C133.954 126.088 132.994 127.848 132.994 129.64ZM144.994 121.672C144.994 123.08 143.906 124.68 141.73 126.472C139.554 128.2 136.738 129.8 133.282 131.272C134.05 132.808 135.81 133.576 138.562 133.576C142.658 133.576 147.234 132.232 152.29 129.544C157.346 126.856 161.602 123.656 165.058 119.944C168.578 116.168 170.338 112.872 170.338 110.056C170.338 105.896 166.402 103.816 158.53 103.816C150.722 103.816 142.562 106.824 134.05 112.84C125.538 118.792 118.306 125.992 112.354 134.44H113.218C118.85 134.44 124.674 133.192 130.69 130.696V129.928C130.69 127.752 132.194 125.512 135.202 123.208C138.21 120.904 140.77 119.752 142.882 119.752C144.29 119.752 144.994 120.392 144.994 121.672ZM114.562 118.216L112.162 118.024C110.626 118.024 108.994 119.144 107.266 121.384C105.538 123.624 104.674 125.544 104.674 127.144C104.674 130.728 106.37 133.064 109.762 134.152C116.226 125.192 124.194 117.576 133.666 111.304C143.202 104.968 152.578 101.8 161.794 101.8C169.154 101.8 172.834 104.008 172.834 108.424C172.834 111.624 171.01 115.368 167.362 119.656C163.714 123.88 159.074 127.56 153.442 130.696C147.81 133.768 142.498 135.304 137.506 135.304C134.242 135.304 132.098 134.248 131.074 132.136C124.546 134.696 118.466 135.976 112.834 135.976H111.298C105.538 144.424 102.658 151.752 102.658 157.96C102.658 161.48 103.746 164.264 105.922 166.312C108.162 168.296 111.586 169.288 116.194 169.288C123.81 169.288 130.882 167.24 137.41 163.144C138.946 162.184 140.098 161.384 140.866 160.744L142.018 159.784C142.21 159.656 142.498 159.592 142.882 159.592C143.266 159.592 143.458 159.816 143.458 160.264C143.458 160.648 143.17 161.032 142.594 161.416C134.466 167.816 125.122 171.016 114.562 171.016C109.506 171.016 105.73 169.928 103.234 167.752C100.802 165.512 99.586 162.472 99.586 158.632C99.586 152.104 102.626 144.456 108.706 135.688C104.29 134.344 102.082 131.72 102.082 127.816C102.082 125.064 103.426 122.408 106.114 119.848C108.802 117.224 111.266 115.912 113.506 115.912C114.786 115.912 115.426 116.296 115.426 117.064C115.426 117.832 115.138 118.216 114.562 118.216ZM189.018 125.416C190.938 125.416 192.57 124.584 193.914 122.92C195.322 121.192 196.218 119.08 196.602 116.584C194.234 117.224 192.25 118.44 190.65 120.232C189.05 121.96 188.25 123.272 188.25 124.168C188.25 125 188.506 125.416 189.018 125.416ZM148.794 165.064C148.858 167.624 151.322 168.904 156.186 168.904C161.05 168.904 165.53 168.168 169.626 166.696C161.626 164.392 156.154 163.24 153.21 163.24C150.266 163.24 148.794 163.848 148.794 165.064ZM196.698 115.432C196.762 115.176 196.794 114.376 196.794 113.032C196.794 111.688 196.41 110.12 195.642 108.328C187.77 111.656 181.05 116.52 175.482 122.92C169.978 129.256 167.226 134.76 167.226 139.432C167.226 143.784 169.786 145.96 174.906 145.96C179.322 145.96 183.834 144.328 188.442 141.064C193.114 137.8 196.794 134.152 199.482 130.12C202.234 126.024 203.61 122.664 203.61 120.04C203.61 117.416 202.298 116.104 199.674 116.104C199.162 116.104 198.778 116.136 198.522 116.2C198.01 119.208 196.794 121.768 194.874 123.88C193.018 125.992 190.778 127.048 188.154 127.048C186.426 127.048 185.562 126.44 185.562 125.224C185.562 123.752 186.682 121.992 188.922 119.944C191.162 117.832 193.753 116.328 196.698 115.432ZM243.066 124.456C243.066 117.736 240.026 112.68 233.946 109.288C226.97 114.536 217.818 124.52 206.49 139.24C202.586 144.232 197.85 149.32 192.281 154.504C186.714 159.624 181.114 163.432 175.482 165.928C181.562 167.592 186.394 168.424 189.978 168.424C196.634 168.424 203.29 167.016 209.946 164.2C216.602 161.32 222.298 157.736 227.034 153.448C231.77 149.16 235.61 144.424 238.554 139.24C241.562 133.992 243.066 129.064 243.066 124.456ZM151.482 119.08C151.034 119.848 150.586 120.232 150.138 120.232C149.69 120.232 149.466 119.976 149.466 119.464C149.466 119.144 149.594 118.76 149.85 118.312C152.922 114.024 157.658 109.832 164.058 105.736C170.522 101.64 177.018 99.592 183.546 99.592C190.138 99.592 194.65 101.832 197.082 106.312C202.522 104.392 207.994 103.432 213.498 103.432C222.074 103.432 229.05 104.648 234.426 107.08C240.122 103.432 245.658 101.064 251.034 99.976C251.546 99.976 251.802 100.168 251.802 100.552C251.802 100.936 251.578 101.16 251.13 101.224C245.946 102.312 240.89 104.488 235.962 107.752C242.874 111.336 246.33 116.744 246.33 123.976C246.33 128.84 244.698 133.992 241.434 139.432C238.234 144.872 234.042 149.864 228.858 154.408C223.738 158.888 217.562 162.632 210.33 165.64C203.098 168.584 195.834 170.056 188.538 170.056C184.378 170.056 178.842 169.16 171.93 167.368C166.746 169.096 161.434 169.96 155.994 169.96C149.146 169.96 145.722 168.424 145.722 165.352C145.722 162.984 149.018 161.8 155.609 161.8C159.322 161.8 165.242 162.984 173.37 165.352C178.618 162.984 183.93 159.272 189.306 154.216C194.682 149.096 199.322 144.008 203.226 138.952C207.194 133.832 211.834 128.328 217.146 122.44C222.522 116.488 227.61 111.816 232.41 108.424C227.354 105.992 220.698 104.776 212.442 104.776C207.642 104.776 202.714 105.704 197.658 107.56C198.426 109.288 198.81 110.856 198.81 112.264C198.81 113.672 198.778 114.568 198.714 114.952C199.738 114.824 200.57 114.76 201.21 114.76C204.858 114.76 206.682 116.296 206.682 119.368C206.682 121.608 205.658 124.36 203.61 127.624C201.562 130.888 198.97 134.024 195.833 137.032C192.762 140.04 189.146 142.6 184.986 144.712C180.89 146.824 177.146 147.88 173.754 147.88C170.362 147.88 167.898 147.208 166.362 145.864C164.826 144.456 164.058 142.568 164.058 140.2C164.058 135.08 167.034 129.16 172.986 122.44C179.002 115.656 186.362 110.536 195.066 107.08C192.698 102.792 188.538 100.648 182.586 100.648C176.634 100.648 170.426 102.792 163.962 107.08C157.498 111.368 153.338 115.368 151.482 119.08Z" fill="black"></path>
</svg><style>@media (prefers-color-scheme: light) { :root { filter: none; } }
@media (prefers-color-scheme: dark) { :root { filter: none; } }
</style></svg>