<svg width="131.269470" height="31.942383" viewBox="0 0 131.269 31.9424" fill="none" xmlns="http://www.w3.org/2000/svg" xmlns:xlink="http://www.w3.org/1999/xlink">
	<desc>
			Created with Pixso.
	</desc>
	<defs>
		<clipPath id="clip3_3">
			<rect id="côté" width="131.000000" height="8.000000" transform="translate(0.000000 23.942383)" fill="white" fill-opacity="0"/>
		</clipPath>
	</defs>
	<g clip-path="url(#clip3_3)">
		<path id="path-01" d="M130.54 25.85C128.37 28.48 123.14 28.68 119.09 28.45C111.73 27.85 103.97 25.39 96.61 26.94C96.26 26.48 95.78 26.08 95.17 25.77C86.85 21.82 73.83 24.79 67.69 29.54C72.83 27.02 80.06 24.79 87.03 25.25C89.68 25.17 93.39 25.97 94.95 27.36C92.47 28.11 89.03 30.88 92.86 31.71C96.61 31.96 97.92 29.25 96.74 27.25C101.05 26.28 106.89 27.45 110.94 28.34C116.74 29.54 124.31 30.48 129.28 27.48C129.59 27.31 131.15 25.82 130.54 25.85ZM94.65 30.51C93.82 31.19 91.64 30.99 92.3 29.91C93.04 28.85 94.04 28.14 95.3 27.65C95.96 28.45 95.91 29.42 94.65 30.51ZM36.67 25.17C35.54 25.54 34.67 26.19 34.1 26.94C23.52 24.54 11.76 31.31 1.74 27.16C1 26.82 0.56 26.25 0 25.82C0.17 26.99 2 27.99 3.57 28.54C8.66 30.14 14.5 29.39 19.64 28.31C23.74 27.42 29.62 26.25 33.93 27.22C32.88 28.94 33.45 31.02 36.5 31.68C41.99 31.88 38.81 28.19 35.71 27.34C37.24 25.94 40.94 25.14 43.6 25.22C50.52 24.94 57.49 26.62 62.81 29.59C57.62 24.97 45.17 22.31 36.67 25.17ZM38.33 29.91C38.98 30.99 36.8 31.19 35.98 30.51C34.71 29.42 34.67 28.48 35.37 27.68C36.54 28.14 37.59 28.85 38.33 29.91ZM68.51 27.28C67.25 28.11 65.29 28.59 65.29 28.59C65.29 28.59 63.33 28.11 62.07 27.28C61.2 26.71 61.24 26.37 61.59 26.17C61.94 25.97 62.46 25.94 63.29 26.48C64.03 26.96 64.59 27.59 64.9 28.05C64.51 27.42 63.94 26.37 63.94 25.34C63.94 24.28 64.51 23.97 65.25 23.97C65.99 23.97 66.55 24.28 66.55 25.34C66.55 26.34 65.99 27.42 65.6 28.05C65.94 27.59 66.51 26.96 67.21 26.48C68.08 25.91 68.6 25.94 68.91 26.17C69.34 26.37 69.39 26.71 68.51 27.28Z" fill="#000000" fill-opacity="1.000000" fill-rule="nonzero"/>
	</g>
	<path id="Dacha Côté" d="M50.88 20.93Q50.9 21.08 50.95 21.23Q51 21.34 51.06 21.35Q51.15 21.37 51.27 21.21Q51.49 20.95 51.53 20.91Q51.63 20.76 51.74 20.71Q51.85 20.66 51.99 20.52Q52.07 20.44 52.16 20.2Q52.25 19.97 52.35 19.9Q52.39 19.88 52.41 19.84Q52.44 19.78 52.4 19.67Q52.35 19.51 52.39 19.47Q52.39 19.44 52.4 19.43Q52.42 19.42 52.47 19.44Q52.57 19.47 52.61 19.47Q52.68 19.44 52.73 19.37Q52.79 19.29 52.83 19.22L53.19 18.46Q53.23 18.41 53.23 18.37Q53.23 18.34 53.22 18.32Q53.19 18.25 53.21 18.22Q53.22 18.21 53.22 18.21Q53.28 18.15 53.35 18.13Q53.36 18.12 53.38 18.12Q53.39 18.12 53.4 18.11Q53.47 18.08 53.5 17.96Q53.5 17.92 53.59 17.87Q53.65 17.84 53.68 17.79Q53.71 17.75 53.72 17.7Q53.76 17.63 53.78 17.53Q53.79 17.41 53.83 17.38Q54.01 17.24 54.07 17.27Q54.08 17.28 54.1 17.28Q54.13 17.28 54.15 17.2Q54.15 17.17 54.28 16.99Q54.41 16.81 54.48 16.73Q54.62 16.55 54.65 16.45Q54.66 16.44 54.66 16.43Q54.71 16.33 54.84 16.26Q55.02 16.14 55.01 16.06Q55.01 16.05 55 16.04Q54.97 15.98 54.92 15.96Q54.89 15.94 54.84 15.94L54.77 15.94L54.26 16.16Q54.08 16.25 53.9 16.26Q53.87 16.26 53.83 16.26Q53.67 16.26 53.6 16.18Q53.55 16.12 53.55 16.02Q53.55 15.83 53.62 15.73Q53.76 15.44 53.88 15.09Q54.01 14.75 54.26 14.32Q54.98 13.03 55.63 11.95Q56.28 10.87 57 9.75Q57.5 9.03 58 8.49Q58.51 7.95 58.94 7.37Q59.01 7.3 59.07 7.07Q59.12 6.83 59.16 6.8Q59.2 6.76 59.23 6.76Q59.25 6.77 59.27 6.8Q59.29 6.84 59.32 6.84Q59.33 6.84 59.34 6.83Q59.44 6.69 59.5 6.45Q59.56 6.22 59.66 6.11Q59.68 6.08 59.7 6.08Q59.72 6.08 59.73 6.11Q59.76 6.16 59.78 6.16Q59.79 6.16 59.81 6.15Q60.13 5.75 60.46 5.1Q61.14 4.28 61.88 3.38Q62.62 2.47 63.58 1.74Q64.56 1.01 65.85 0.68Q65.93 0.68 66.11 0.65Q66.29 0.6 66.33 0.6Q66.61 0.53 66.7 0.63Q66.79 0.72 67.05 0.72L67.15 0.72Q67.33 0.72 67.49 0.68Q67.65 0.65 67.8 0.65Q67.87 0.68 67.94 0.75Q68.01 0.82 68.08 0.82Q68.13 0.82 68.17 0.83Q68.2 0.84 68.23 0.86Q68.29 0.88 68.32 0.87Q68.33 0.86 68.34 0.86Q68.38 0.83 68.4 0.79Q68.43 0.73 68.41 0.65Q68.4 0.61 68.38 0.57Q68.33 0.48 68.2 0.43Q67.98 0.36 67.84 0.36Q67.69 0.29 67.5 0.21Q67.33 0.14 67.15 0.14L67.08 0.14Q66.83 0.07 66.56 0.03Q66.29 0 66 0Q65.21 0 63.75 0.68Q63.2 0.94 62.68 1.24Q61.82 1.74 61.03 2.37Q60.96 2.44 60.96 2.61Q60.96 2.76 60.89 2.83Q60.63 3.05 60.38 3.17Q60.13 3.27 59.92 3.52Q59.77 3.7 59.64 3.89Q59.51 4.06 59.41 4.24Q59.16 4.5 59.07 4.55Q58.98 4.6 58.91 4.64Q58.84 4.67 58.65 4.96Q58.62 5.07 58.64 5.2Q58.64 5.25 58.63 5.31Q58.62 5.37 58.58 5.43Q58.48 5.58 58.35 5.66Q58.33 5.68 58.31 5.69Q58.21 5.78 58.15 5.9Q57.93 6.44 57.5 6.9Q57.43 6.97 57.36 7.05Q57.29 7.12 57.21 7.19Q56.97 7.45 56.78 8.2L56.68 8.24Q56.45 8.33 56.4 8.48Q56.39 8.51 56.39 8.53Q56.42 8.67 56.44 8.78Q56.46 8.89 56.46 8.96Q56.46 9.09 56.4 9.12Q56.38 9.14 56.35 9.14Q56.32 9.14 56.3 9.12Q56.28 9.1 56.21 9.1Q56.13 9.1 56.03 9.24Q55.89 9.5 55.72 9.72Q55.63 9.84 55.59 9.98Q55.56 10.08 55.56 10.18L55.56 10.25L55.56 10.25Q55.59 10.29 55.48 10.45Q55.38 10.61 55.23 10.83L55.2 10.83Q55.13 10.87 54.98 11.19Q54.79 11.52 54.83 11.55Q54.83 11.55 54.84 11.55Q54.82 11.67 54.84 11.68Q54.85 11.68 54.87 11.66Q54.84 11.73 54.82 11.8Q54.8 11.87 54.8 11.95Q54.66 12.23 54.53 12.34Q54.41 12.45 54.26 12.74Q54.22 12.84 54.21 12.94Q54.19 13.03 54.19 13.13L54.19 13.31Q53.83 14.15 53.45 14.74Q53.07 15.33 52.9 15.73Q52.75 15.9 52.46 16.54Q52.18 17.17 51.94 17.73L51.71 18.29Q51.63 18.36 51.47 18.86Q51.31 19.36 51.15 19.83Q50.99 20.3 50.95 20.4Q50.92 20.52 50.9 20.61Q50.88 20.69 50.88 20.8Q50.88 20.87 50.88 20.93ZM8.17 22.51Q8.21 22.53 8.26 22.53Q8.27 22.53 8.29 22.53Q8.41 22.5 8.47 22.24Q8.65 21.67 8.88 20.98Q9.12 20.3 9.44 19.58L9.51 19.8Q9.55 19.8 9.58 19.82Q9.62 19.85 9.62 19.94L9.73 20.01Q9.74 20.01 9.74 20.01Q9.77 20.02 9.77 20.11L10.13 20.44L10.27 20.52Q10.34 20.62 10.36 20.66Q10.38 20.69 10.52 20.73Q10.59 20.87 10.82 20.97Q11.06 21.09 11.17 21.16Q11.17 21.19 11.19 21.21Q11.21 21.23 11.25 21.23Q11.27 21.23 11.28 21.22Q11.28 21.22 11.28 21.21Q11.28 21.21 11.28 21.21Q11.29 21.19 11.32 21.19Q11.35 21.19 11.37 21.21Q11.39 21.23 11.4 21.26Q11.4 21.27 11.41 21.27Q11.43 21.35 11.57 21.38L11.61 21.41Q11.64 21.45 11.76 21.52Q11.89 21.59 11.93 21.59L12 21.59Q12.05 21.59 12.07 21.61Q12.08 21.62 12.09 21.64Q12.1 21.69 12.13 21.7Q12.14 21.7 12.14 21.7Q12.36 21.74 12.59 21.76Q12.83 21.77 13.08 21.77Q13.12 21.77 13.28 21.88Q13.44 21.99 13.48 21.99Q13.69 21.99 13.9 22.02Q14.12 22.06 14.37 22.06Q14.44 22.06 14.51 22.02Q14.59 21.99 14.66 21.99Q14.7 21.99 14.72 22Q14.72 22.01 14.73 22.02Q14.75 22.03 14.77 22.03Q14.84 22.03 14.93 21.95Q15.01 21.89 15.05 21.91Q15.06 21.91 15.06 21.91Q15.13 21.91 15.22 21.93Q15.31 21.95 15.35 21.95Q15.38 21.95 15.4 21.94Q15.44 21.93 15.47 21.9Q15.53 21.84 15.56 21.84Q15.6 21.88 15.63 21.88Q15.71 21.88 15.92 21.81Q16.14 21.74 16.18 21.7Q16.25 21.67 16.57 21.65Q16.9 21.63 16.93 21.63Q17.14 21.55 17.33 21.55Q17.35 21.51 17.38 21.5Q17.4 21.48 17.43 21.48Q17.5 21.48 17.58 21.45Q17.65 21.41 17.76 21.32Q17.86 21.23 17.91 21.23L18.08 21.23L18.21 21.18Q18.34 21.12 18.44 21.09Q18.7 20.91 19.22 20.73Q19.74 20.55 19.92 20.37Q19.99 20.26 20.06 20.15Q20.08 20.11 20.11 20.09Q20.18 20.04 20.28 20.04Q20.35 20.04 20.39 20.01Q20.49 19.95 20.58 19.89Q20.78 19.73 20.92 19.51Q21.14 19.18 21.76 18.68Q21.83 18.6 21.93 18.46Q22.05 18.32 22.05 18.24Q22.33 18.1 22.72 17.94Q23.12 17.78 23.59 17.53Q23.73 17.53 23.88 17.41Q23.95 17.27 24.06 17.24Q24.17 17.2 24.24 17.17L24.27 17.17L24.31 17.13Q24.37 17.07 24.45 17.02Q24.46 17.01 24.47 17Q24.56 16.95 24.63 16.91L24.63 16.88Q25.39 16.37 26.14 15.75Q26.9 15.11 27.41 14.32L27.48 14.22Q27.66 13.96 27.84 13.77Q28.01 13.57 28.16 13.35Q28.23 13.24 28.3 13.19Q28.38 13.13 28.42 13.03Q28.49 12.95 28.56 12.9Q28.63 12.84 28.67 12.81L29.03 12.02Q29.32 11.4 29.56 10.83Q29.63 10.67 29.69 10.49Q29.83 10.07 29.85 9.6Q30.04 7.81 29.4 6.6Q28.83 5.5 27.93 4.78Q27.85 4.72 27.76 4.65Q26.76 3.91 25.76 3.54Q24.78 3.16 24.24 3.05Q23.95 2.98 23.34 2.9Q22.72 2.8 22.13 2.69Q21.54 2.59 21.25 2.59Q21.18 2.68 21.12 2.67Q21.08 2.67 21.05 2.64Q21 2.58 20.93 2.56Q20.89 2.55 20.85 2.55L20.82 2.55L18.8 2.59Q18.7 2.62 18.57 2.61Q18.44 2.59 18.34 2.59L17.98 2.62Q17.91 2.62 17.79 2.64Q17.76 2.65 17.72 2.65Q17.65 2.65 17.58 2.62Q17 2.66 16.18 2.69Q15.35 2.73 14.44 2.91Q14.36 2.98 14.27 3Q14.16 3.02 14.05 2.98L14.01 2.98L13.8 3.02Q13.69 3.09 13.48 3.09L13.44 3.09Q12.64 3.09 11.82 3.36Q10.99 3.63 10.16 3.88L10.16 3.91Q10.16 3.92 10.15 3.93Q10.13 3.96 10.13 4.01L10.13 4.13Q10.1 4.11 10.06 4.08Q9.97 4.03 9.84 4.03Q9.66 4.03 9.44 4.13Q8.69 4.39 7.95 4.66Q7.21 4.93 6.56 5.25Q6.43 5.38 6.29 5.39Q6.28 5.39 6.27 5.39L6.2 5.39L6.2 5.43Q5.92 5.58 5.44 5.81Q4.98 6.04 4.69 6.26Q4.48 6.4 4.48 6.49Q4.48 6.58 4.29 6.73Q4.08 6.87 3.93 6.95Q3.79 7.02 3.61 7.19Q2.93 7.93 2.76 8.77Q2.71 9.04 2.71 9.32Q2.71 9.46 2.73 9.63Q2.75 9.79 2.78 9.96Q2.82 10.08 2.9 10.22Q3 10.36 3 10.4Q3.04 10.72 3.17 11Q3.37 11.44 3.79 11.79Q3.97 11.93 4.16 12.06Q4.71 12.41 5.36 12.6Q6.24 12.84 6.85 12.84Q7.04 12.84 7.19 12.79Q7.34 12.74 7.35 12.68Q7.35 12.67 7.35 12.67L7.35 12.67Q7.35 12.55 6.96 12.45L6.46 12.34Q6.38 12.23 6.28 12.21Q6.24 12.19 6.2 12.19Q6.09 12.19 5.95 12.27Q5.73 12.31 5.48 12.12L5.44 12.12Q4.76 11.95 4.2 11.61Q4.03 11.5 3.91 11.36Q3.64 11.02 3.64 10.47Q3.64 10.09 3.79 9.77Q3.82 9.71 3.86 9.65Q3.86 9.56 3.9 9.5Q3.91 9.48 3.93 9.46Q4 9.39 4.08 9.32L4.58 8.63Q4.69 8.53 4.78 8.29Q4.87 8.05 4.98 7.98Q5.08 7.88 5.19 7.86Q5.24 7.84 5.3 7.84Q5.48 7.84 5.66 7.69Q5.84 7.59 6.03 7.28Q6.24 6.97 6.42 6.9Q6.45 6.88 6.46 6.88Q6.49 6.89 6.49 6.98Q6.49 7.11 6.52 7.12Q6.52 7.12 6.53 7.12Q6.71 7.09 6.96 6.95Q7.21 6.8 7.39 6.73L8.26 6.33L8.29 6.33Q8.36 6.3 8.38 6.16Q8.4 6.01 8.43 5.97Q8.45 5.95 8.47 5.95Q8.53 5.93 8.63 6.01Q8.75 6.11 8.82 6.08Q8.83 6.08 8.83 6.08Q8.98 6.01 9.19 5.94Q9.41 5.86 9.55 5.72Q9.57 5.7 9.59 5.67Q9.62 5.61 9.64 5.54Q9.65 5.48 9.69 5.44Q9.72 5.41 9.77 5.39Q9.84 5.36 9.91 5.34Q9.98 5.32 10.06 5.32Q10.23 5.32 10.38 5.34Q10.49 5.35 10.6 5.33Q10.63 5.33 10.67 5.32Q10.92 5.25 11.13 5.15Q11.17 5.13 11.21 5.11Q11.4 5.02 11.61 5L11.61 4.96Q11.69 4.96 11.75 4.92Q11.84 4.86 11.87 4.71Q11.93 4.46 11.97 4.24Q11.97 4.31 12.07 4.53Q12.17 4.74 12.29 4.74L12.29 4.74L12.36 4.74Q12.54 4.67 12.7 4.64Q12.86 4.6 13 4.57Q13.19 4.6 13.31 4.53Q13.44 4.46 13.58 4.39L13.62 4.39Q13.8 4.31 13.96 4.29Q14.12 4.28 14.27 4.24L14.27 4.2Q14.44 4.13 14.6 4.13Q14.77 4.13 14.92 4.1Q15.17 4.03 15.39 3.98Q15.63 3.91 15.89 3.91L15.92 3.91Q16.02 3.82 16.14 3.81Q16.22 3.8 16.32 3.84L17.79 3.7Q18.19 3.67 18.71 3.55Q19.23 3.41 20.06 3.41Q20.21 3.41 20.37 3.43Q20.54 3.45 20.71 3.45L21.36 3.31Q21.43 3.34 21.92 3.4Q22.4 3.45 22.72 3.63Q22.98 3.7 23.05 3.69Q23.12 3.67 23.27 3.67Q23.34 3.67 23.41 3.69Q23.48 3.7 23.56 3.7Q23.63 3.7 23.97 3.83Q24.31 3.95 24.38 3.95Q26.07 4.24 27.06 5.23Q27.3 5.46 27.5 5.73Q28.17 6.67 28.41 7.71Q28.52 8.25 28.52 8.81Q28.52 9.69 28.27 10.49Q28.11 11 27.84 11.47Q27.77 11.95 27.55 12.09Q27.34 12.23 27.15 12.55L27.05 12.74Q26.96 12.89 27 12.99Q27 13 27.01 13.01Q27.08 13.1 27.15 13.28Q27.07 13.39 26.98 13.4Q26.96 13.4 26.93 13.39Q26.83 13.35 26.69 13.35Q26.63 13.35 26.6 13.37Q26.59 13.38 26.58 13.39Q26.26 13.86 25.93 14.25Q25.86 14.51 25.83 14.81Q25.8 15.05 25.67 15.12Q25.64 15.14 25.61 15.15Q25.56 15.03 25.59 14.94Q25.61 14.9 25.64 14.86Q25.62 14.75 25.57 14.75Q25.56 14.74 25.54 14.75Q25.5 14.77 25.47 14.8Q25.45 14.82 25.43 14.86L25.11 15.22Q24.6 15.8 23.89 16.25Q23.2 16.69 22.44 17.09L22.65 16.73Q22.77 16.54 22.82 16.33Q22.83 16.27 22.84 16.21Q22.87 15.94 22.91 15.69Q22.91 15.68 22.91 15.67Q22.93 15.66 22.96 15.67Q23 15.69 23.01 15.67Q23.01 15.67 23.01 15.66Q23.01 15.65 23.02 15.65Q23.08 15.47 23.08 15.26L23.08 14.86Q23.08 14.77 23.04 14.73Q23 14.68 22.9 14.68Q22.81 14.68 22.77 14.73Q22.72 14.77 22.72 14.86Q22.72 15.22 22.65 15.54Q22.58 15.87 22.48 16.16Q22.44 16.26 22.36 16.45Q22.29 16.62 22.22 16.73L21.93 17.05L21.61 17.49Q21.57 17.53 21.45 17.78Q21.33 18.03 21.25 18.07Q21.23 18.07 21.22 18.07Q21.17 18.06 21.16 17.91Q21.15 17.75 21.1 17.74Q21.09 17.73 21.07 17.74Q20.39 18.07 19.75 18.3Q19.13 18.53 18.58 18.72Q18.12 18.86 17.63 19.02Q17.28 19.14 16.93 19.19Q16.79 19.21 16.64 19.22Q16.39 19.25 16.11 19.3Q15.85 19.36 15.56 19.4Q15.31 19.44 15.01 19.44L14.44 19.44Q14.3 19.36 14.23 19.36Q14.21 19.36 14.2 19.37Q14.19 19.37 14.18 19.38Q14.16 19.4 14.12 19.4Q13.98 19.4 13.83 19.38Q13.69 19.36 13.55 19.36Q13.53 19.36 13.53 19.35Q13.52 19.34 13.53 19.32Q13.54 19.3 13.53 19.29Q13.53 19.29 13.51 19.29Q13.19 19.29 12.9 19.2Q12.61 19.11 12.33 19.04Q11.57 18.86 11.26 18.68Q10.96 18.5 10.27 18.03Q10.27 18 10.26 18Q10.26 18 10.25 18L10.23 18Q10.29 17.81 10.24 17.65Q10.23 17.59 10.2 17.53Q10.27 17.53 10.32 17.55Q10.33 17.55 10.34 17.55Q10.38 17.55 10.42 17.45L10.74 16.81Q11.1 16.12 11.35 15.69Q11.89 14.68 12.5 13.75Q13.12 12.81 13.72 11.95Q13.78 11.87 13.76 11.82Q13.75 11.8 13.72 11.78Q13.65 11.73 13.65 11.69Q13.82 11.72 13.93 11.65Q14 11.62 14.05 11.55Q14.15 11.43 14.22 11.3Q14.27 11.23 14.3 11.16Q14.7 10.65 15.06 10.25Q15.42 9.86 15.78 9.5L16.04 9.14Q16.05 9.12 16.06 9.12Q16.08 9.12 16.11 9.15Q16.13 9.18 16.15 9.18Q16.16 9.18 16.18 9.17Q16.47 8.96 16.76 8.72Q17.07 8.49 17.29 8.27Q17.33 8.24 17.32 8.21Q17.32 8.19 17.27 8.19Q17.21 8.17 17.21 8.15Q17.21 8.14 17.22 8.13Q17.27 8.07 17.31 8.08Q17.32 8.09 17.33 8.1Q17.34 8.11 17.36 8.11Q17.38 8.11 17.4 8.09Q17.4 8.09 17.4 8.09Q17.43 8.05 17.38 7.95Q17.34 7.88 17.36 7.86Q17.37 7.84 17.4 7.84Q17.47 7.84 17.52 7.86Q17.57 7.87 17.6 7.86Q17.61 7.85 17.62 7.84Q17.69 7.81 17.71 7.83Q17.71 7.83 17.71 7.83Q17.73 7.84 17.76 7.81Q17.83 7.73 17.86 7.64Q17.91 7.55 17.94 7.52Q18.12 7.26 18.12 7.09Q18.12 6.97 18.08 6.88Q18 6.7 17.78 6.59Q17.43 6.4 17.26 6.4Q16.93 6.4 16.54 6.54Q16.5 6.58 16.5 6.69Q16.5 6.77 16.47 6.79Q16.45 6.8 16.43 6.8Q16.4 6.8 16.39 6.79Q16.38 6.78 16.37 6.76Q16.37 6.76 16.36 6.75Q16.34 6.73 16.28 6.76L16.28 6.76Q16.25 6.77 16.28 7.02Q16.32 7.26 16.28 7.33Q16.21 7.41 16.15 7.4Q16.09 7.39 16.04 7.3Q16.04 7.26 16.09 7.16Q16.14 7.05 16.14 7.02Q16.12 6.98 16.1 6.97Q16.07 6.96 16.03 6.98L15.96 7.02L15.85 7.19L15.75 7.26Q14.8 8.2 13.74 9.94Q12.69 11.66 11.64 13.53L11.13 14.43Q11.03 14.58 11.04 14.68Q11.06 14.79 11.06 14.9Q11.06 15.04 11.03 15.08Q11.01 15.1 10.99 15.11Q10.96 15.13 10.9 15.09Q10.88 15.08 10.85 15.08Q10.79 15.08 10.74 15.18Q10.45 15.76 10.18 16.34Q9.91 16.91 9.62 17.45L9.62 17.41Q9.62 17.4 9.61 17.39Q9.61 17.37 9.58 17.36Q9.56 17.35 9.55 17.33Q9.55 17.32 9.55 17.31Q9.55 17.27 9.57 17.26Q9.58 17.24 9.58 17.2Q9.58 17.15 9.56 17.1Q9.56 17.09 9.55 17.08Q9.51 17.02 9.51 16.98Q9.51 16.95 9.53 16.93L9.55 16.91Q9.58 16.84 9.58 16.77L9.58 16.55Q9.62 16.48 9.6 16.43Q9.58 16.37 9.58 16.33L9.48 16.33Q9.48 16.26 9.5 15.89Q9.51 15.51 9.55 15.47Q9.55 15.44 9.57 15.42Q9.58 15.4 9.62 15.4L9.73 15.08Q9.84 14.97 9.84 14.9Q9.87 14.82 9.89 14.79Q9.91 14.75 9.94 14.72Q9.94 14.65 9.97 14.6Q9.99 14.57 10.01 14.54L10.59 13.93L10.63 13.74Q10.6 13.51 10.5 13.47Q10.48 13.46 10.45 13.46Q10.44 13.46 10.43 13.46Q10.3 13.47 10.16 13.6L9.91 13.82Q9.84 13.93 9.8 14.01Q9.77 14.1 9.7 14.22Q9.66 14.32 9.6 14.37Q9.55 14.43 9.51 14.51Q9.48 14.58 9.43 14.7Q9.37 14.82 9.3 14.9Q9.26 14.94 9.19 14.99Q9.12 15.04 9.08 15.11Q9.08 15.22 9.05 15.3L9.05 15.54L8.94 15.69Q8.94 15.73 8.98 15.78Q8.98 15.79 8.99 15.8Q9.01 15.85 9.01 15.9Q9.01 15.94 8.92 16.14Q8.83 16.33 8.79 16.41Q8.76 16.55 8.74 16.61Q8.72 16.66 8.72 16.73Q8.72 16.79 8.75 16.81Q8.76 16.82 8.78 16.83Q8.78 16.83 8.78 16.83Q8.83 16.85 8.79 17.05Q8.76 17.27 8.78 17.53Q8.79 17.78 8.86 18L8.94 18.03Q8.94 18.29 9.08 18.65L9.08 18.72Q9.05 18.82 9.05 18.95Q9.05 19 9.04 19.05Q9.02 19.12 8.98 19.18L8.96 19.23Q8.95 19.25 8.94 19.26Q8.92 19.28 8.86 19.25Q8.86 19.47 8.77 19.65Q8.71 19.79 8.58 19.9Q8.33 20.59 8.16 21.11Q8 21.63 8 21.99Q8 22.43 8.17 22.51ZM88.58 21.16Q88.82 21.19 89.04 21.27L89.08 21.27Q90.26 21.27 91.63 21.12Q93 20.98 94.4 20.62Q94.46 20.59 94.52 20.58Q94.61 20.55 94.7 20.54Q94.87 20.52 95.02 20.47L95.02 20.44L95.95 20.19Q95.98 20.19 95.98 20.18Q95.99 20.18 95.99 20.17L95.99 20.16Q96.02 20.09 96 20.05Q95.97 20 95.87 19.99Q95.71 19.97 95.64 19.89Q95.63 19.88 95.62 19.87Q95.77 19.87 95.92 19.89Q95.99 19.9 96.06 19.92Q96.28 19.97 96.45 19.97L96.64 19.97L96.64 19.94Q96.81 19.87 97 19.81Q97.21 19.76 97.36 19.68L97.39 19.68Q97.42 19.65 97.45 19.62Q97.51 19.57 97.6 19.56Q97.75 19.54 97.89 19.51L98.15 19.4Q98.25 19.32 98.34 19.22Q98.44 19.11 98.54 19.08Q98.58 19.19 98.64 19.2Q98.69 19.21 98.76 19.15L98.8 19.15L99.04 19.04L99.04 19.01Q99.12 19.01 99.26 18.93Q99.32 18.93 99.33 18.9Q99.33 18.9 99.33 18.89L99.33 18.86Q99.29 18.83 99.24 18.83Q99.22 18.83 99.19 18.84Q99.12 18.86 99.04 18.86Q99.01 18.79 99.01 18.77L99.01 18.75Q99.12 18.65 99.37 18.65Q99.48 18.65 99.61 18.66Q99.73 18.68 99.83 18.68Q100.24 18.5 100.57 18.32Q100.92 18.14 101.24 17.96Q101.53 17.81 101.76 17.67Q102 17.53 102.22 17.38Q102.26 17.25 102.35 17.19Q102.41 17.15 102.48 17.13Q102.68 17.09 102.87 16.95Q103.37 16.55 103.76 16.19Q104.16 15.83 104.48 15.54Q104.7 15.33 104.7 15.15Q104.7 15.06 104.65 15.02Q104.63 15.01 104.59 15.01Q104.45 15.01 104.16 15.26Q103.98 15.44 103.69 15.6Q103.4 15.76 103.15 16.02L103.11 16.05Q102.99 16.05 102.89 16.11Q102.85 16.13 102.82 16.16Q102.72 16.26 102.54 16.41L101.57 16.95Q101.1 17.2 100.59 17.46Q100.09 17.7 99.55 17.96L99.52 17.96Q99.5 17.98 99.47 18Q99.34 18.11 99.15 18.15Q98.94 18.21 98.76 18.29Q98.61 18.36 98.58 18.36Q98.44 18.46 98.36 18.56Q98.34 18.58 98.32 18.59Q98.26 18.65 98.15 18.65Q98.08 18.65 98.01 18.6L97.61 18.75Q97.39 18.82 97.21 18.92Q97.03 19.01 96.78 19.04L96.57 19.11Q96.54 19.12 96.52 19.14Q96.48 19.17 96.45 19.22Q96.43 19.25 96.41 19.28Q96.38 19.3 96.35 19.32Q96.35 19.28 96.37 19.25Q96.38 19.24 96.4 19.23Q96.42 19.23 96.42 19.22Q96.42 19.2 96.38 19.18Q96.2 19.14 96.04 19.16Q95.94 19.18 95.84 19.22Q95.59 19.32 95.3 19.51L94.9 19.61Q94.81 19.71 94.7 19.74Q94.64 19.76 94.58 19.76Q94.54 19.76 94.51 19.74Q94.47 19.72 94.4 19.72L94.4 19.76Q93.29 20.01 92.17 20.17Q91.05 20.33 90.08 20.33Q89.22 20.33 88.48 20.2Q87.74 20.08 87.17 19.8Q87.02 19.68 86.88 19.68Q86.81 19.68 86.73 19.7Q86.66 19.72 86.59 19.72Q86.7 19.65 86.7 19.58Q86.7 19.51 86.59 19.44Q86.68 19.56 86.65 19.64Q86.63 19.69 86.55 19.72Q86.55 19.65 86.57 19.63Q86.59 19.61 86.59 19.58Q86.58 19.54 86.56 19.52Q86.52 19.46 86.44 19.42Q86.33 19.36 86.26 19.29Q86.23 19.22 86.19 19.08Q86.16 18.95 86.09 18.88Q86.07 18.87 86.05 18.86L85.83 18.46Q85.83 18.44 85.81 18.43Q85.77 18.39 85.68 18.41Q85.58 18.43 85.54 18.39Q85.53 18.36 85.53 18.32Q85.53 18.25 85.58 18.18Q85.66 18.07 85.66 17.96L85.66 17.85Q85.62 17.78 85.62 17.6Q85.62 17.45 85.58 17.43Q85.54 17.41 85.47 17.34Q85.41 17.26 85.42 17.18Q85.42 17.13 85.46 17.08Q85.54 16.95 85.58 16.81Q85.58 16.19 85.8 15.51Q85.94 14.86 86.3 14.03L86.48 13.6Q86.52 13.53 86.59 13.48Q86.63 13.44 86.65 13.4Q86.66 13.37 86.66 13.35L86.66 13.31Q86.66 13.31 86.66 13.3Q86.64 13.29 86.52 13.42Q86.52 13.21 86.62 13.1Q86.74 12.99 86.91 12.88L87.45 12.02L87.45 11.98Q87.47 11.97 87.48 11.95Q87.48 11.92 87.47 11.9Q87.46 11.86 87.47 11.83Q87.48 11.81 87.49 11.8Q87.65 11.71 87.75 11.57Q87.76 11.55 87.78 11.54Q87.89 11.37 88.03 11.23Q88.21 11.01 88.37 10.8Q88.53 10.58 88.72 10.36Q88.72 10.23 88.66 10.2Q88.64 10.18 88.6 10.18Q88.5 10.18 88.43 10.15Q88.52 10.03 88.63 10Q88.69 9.99 88.76 10.01Q88.85 10.02 88.94 10Q89.03 9.97 89.11 9.89L89.18 9.82Q89.29 9.72 89.28 9.62Q89.28 9.56 89.22 9.5Q89.17 9.46 89.12 9.42Q89.01 9.34 88.86 9.32Q88.86 9.24 88.87 9.22L88.89 9.21Q88.98 9.21 89.07 9.23Q89.15 9.25 89.24 9.3Q89.4 9.39 89.54 9.43L89.8 9.17Q89.9 9.07 89.94 8.96Q89.95 8.93 89.96 8.91Q90.01 8.84 90.12 8.81Q90.19 8.76 90.25 8.7Q90.32 8.63 90.37 8.56L90.4 8.56Q90.48 8.38 90.5 8.29Q90.5 8.28 90.51 8.27Q90.54 8.2 90.69 8.2L90.76 8.2Q91.24 7.81 91.7 7.41Q92.17 7.02 92.64 6.66Q92.67 6.62 92.71 6.58Q92.91 6.41 93.15 6.3L93.97 5.72L94.01 5.72Q94.18 5.51 94.42 5.33Q94.46 5.3 94.51 5.27Q94.72 5.14 94.98 5.1Q95.04 5.05 95.11 5.01Q95.12 5 95.14 5Q95.23 4.96 95.26 4.93L95.3 4.93Q95.31 4.91 95.31 4.9Q95.35 4.85 95.42 4.82Q95.46 4.81 95.48 4.78Q95.5 4.74 95.48 4.67Q95.45 4.64 95.41 4.64Q95.38 4.64 95.3 4.6Q95.41 4.6 95.52 4.62Q95.62 4.64 95.7 4.64Q95.84 4.64 96.06 4.57L96.06 4.53Q96.1 4.53 96.24 4.46Q96.38 4.31 96.71 4.24Q97.32 3.99 97.82 3.84Q97.93 3.77 98.03 3.72Q98.15 3.67 98.29 3.67L98.37 3.67Q98.73 3.59 99.04 3.52Q99.37 3.45 99.69 3.41Q99.88 3.38 100.04 3.38L100.34 3.38Q101.28 3.38 101.96 3.77Q102.22 3.92 102.38 4.14Q102.65 4.51 102.65 5.07Q102.65 5.46 102.51 5.9L102.32 6.47L102.32 6.51Q102.26 6.63 102.3 6.68Q102.31 6.69 102.32 6.69Q102.39 6.73 102.51 6.8Q102.48 6.84 102.44 6.87Q102.37 6.91 102.29 6.92Q102.26 6.92 102.24 6.93Q102.13 6.97 102.07 7.12L101.96 7.48Q101.57 7.69 101.22 7.88Q100.88 8.05 100.88 8.09Q100.52 8.24 100.16 8.44Q99.8 8.63 99.48 8.7Q99.39 8.72 99.3 8.74Q99.18 8.78 99.06 8.84Q98.87 8.92 98.65 9L97.86 9.21Q97.82 9.21 97.79 9.19Q97.78 9.18 97.76 9.18Q97.74 9.18 97.72 9.21Q97.68 9.21 97.66 9.22L97.65 9.24L97.21 9.32Q97.19 9.32 97.18 9.31Q97.18 9.31 97.19 9.3Q97.2 9.3 97.19 9.29Q97.19 9.29 97.17 9.29Q97.03 9.32 96.86 9.32L96.57 9.32Q96.06 9.32 95.91 9.27Q95.77 9.21 95.3 9.07Q95.29 9.05 95.27 9.05Q95.24 9.04 95.21 9.05Q95.18 9.06 95.15 9.05Q95.14 9.04 95.12 9.03Q94.8 8.93 94.8 8.81L94.8 8.81L94.8 8.63Q94.83 8.6 94.8 8.41L94.76 8.2L94.8 7.69L94.82 7.68Q94.83 7.66 94.87 7.66Q94.89 7.61 94.88 7.57Q94.88 7.55 94.87 7.54Q94.85 7.5 94.85 7.48Q94.86 7.46 94.87 7.45L94.87 7.3Q94.9 7.24 94.88 7.21Q94.88 7.2 94.87 7.19Q94.85 7.17 94.85 7.16Q94.85 7.16 94.87 7.16Q94.87 7.11 94.89 7.1Q94.9 7.09 94.92 7.09Q94.97 7.09 94.98 7.07Q94.98 7.06 94.98 7.05Q95.08 6.95 95.09 6.95L95.09 6.96L95.09 6.96Q95.1 6.96 95.23 6.83Q95.39 6.76 95.43 6.64Q95.45 6.59 95.45 6.54Q95.45 6.53 95.44 6.52Q95.42 6.47 95.3 6.47L95.23 6.47Q95.21 6.47 95.19 6.48Q95.07 6.5 94.98 6.66Q94.97 6.68 94.94 6.7Q94.91 6.73 94.85 6.75Q94.83 6.75 94.82 6.75Q94.75 6.78 94.69 6.83Q94.68 6.85 94.67 6.87Q94.63 6.91 94.58 6.94Q94.51 6.97 94.47 7.02L94.26 7.26Q94.23 7.3 94.13 7.43Q94.04 7.55 94.04 7.59Q94.01 7.62 94.01 7.69Q94.01 7.81 93.97 7.84Q93.97 7.88 93.95 7.9Q93.94 7.91 93.94 7.95Q93.92 7.97 93.92 7.98Q93.92 7.99 93.94 8Q93.96 8.01 93.97 8.03Q93.97 8.04 93.97 8.05L93.79 8.41Q93.7 8.59 93.73 8.62Q93.74 8.62 93.75 8.62Q93.77 8.61 93.78 8.62Q93.82 8.64 93.79 8.78Q93.72 9.13 93.86 9.28Q93.86 9.28 93.87 9.29L93.9 9.32Q93.9 9.46 93.99 9.63Q94.08 9.79 94.08 9.86L94.08 9.86Q94.11 9.86 94.11 10.01L94.22 10.11Q94.26 10.15 94.3 10.25Q94.33 10.25 94.4 10.32L94.47 10.32L94.49 10.34Q94.51 10.36 94.51 10.4L94.76 10.51Q94.76 10.5 94.77 10.5Q94.78 10.49 94.83 10.54Q94.91 10.62 94.99 10.62Q95.02 10.62 95.05 10.61Q95.09 10.65 95.25 10.71Q95.41 10.76 95.48 10.76Q95.52 10.8 95.55 10.8Q95.58 10.8 95.59 10.79Q95.59 10.78 95.59 10.78L95.59 10.76Q95.62 10.76 95.66 10.8Q95.7 10.83 95.77 10.83L95.81 10.83Q95.84 10.87 95.93 10.88L96.02 10.9Q96.05 10.9 96.05 10.89Q96.06 10.89 96.06 10.88Q96.06 10.88 96.06 10.88Q96.06 10.87 96.1 10.87Q96.11 10.87 96.12 10.87Q96.14 10.88 96.15 10.9Q96.16 10.92 96.17 10.92Q96.18 10.92 96.2 10.9Q96.53 10.9 96.86 10.8Q96.93 10.8 97.01 10.83Q97.1 10.87 97.14 10.87Q97.32 10.8 97.48 10.8Q97.65 10.8 97.79 10.76L98.01 10.65L98.11 10.65Q98.15 10.65 98.2 10.59Q98.25 10.54 98.29 10.54Q98.37 10.51 98.42 10.52Q98.45 10.53 98.48 10.53Q98.49 10.52 98.51 10.51Q98.57 10.51 98.59 10.48Q98.59 10.47 98.6 10.47Q98.61 10.45 98.62 10.44Q98.63 10.44 98.65 10.44L98.73 10.44Q98.76 10.44 98.92 10.35Q99.08 10.25 99.12 10.22L99.66 10.08Q99.73 10.01 99.8 10.01Q99.87 10.01 99.91 9.97Q99.91 9.97 99.91 9.96Q99.98 9.89 100.04 9.89Q100.07 9.89 100.09 9.88Q100.11 9.87 100.13 9.86Q100.16 9.82 100.25 9.75Q100.34 9.68 100.38 9.68L100.49 9.65Q100.6 9.57 100.67 9.53L100.74 9.5Q100.92 9.36 101.29 9.16Q101.67 8.96 101.82 8.81Q101.89 8.74 101.93 8.69Q101.96 8.63 102 8.6L102.15 8.53Q102.17 8.52 102.19 8.51Q102.34 8.43 102.45 8.27Q102.58 8.09 102.65 8.02L102.79 7.95Q102.82 7.91 102.82 7.9L102.82 7.88L103.08 7.55Q103.11 7.48 103.2 7.4Q103.3 7.3 103.3 7.26Q103.26 7.19 103.44 7Q103.62 6.8 103.62 6.76Q103.79 6.65 103.94 6.53Q104.19 6.33 104.41 6.09Q104.77 5.72 104.88 5.39Q104.92 5.33 104.9 5.3Q104.89 5.28 104.84 5.27Q104.81 5.26 104.78 5.27Q104.71 5.28 104.66 5.36Q104.63 5.41 104.6 5.46Q104.44 5.72 104.19 5.94Q103.9 6.18 103.54 6.44Q103.66 6.04 103.66 5.68Q103.66 5.45 103.62 5.22Q103.46 4.44 102.79 3.76Q101.93 2.87 100.24 2.66Q99.95 2.62 99.62 2.61Q99.3 2.59 99.01 2.59Q96.74 2.59 94.08 3.77L94.04 3.77L93.86 3.96Q93.79 4.03 93.65 4.03L93.54 4.03Q93.29 4.17 93.01 4.32Q92.75 4.46 92.46 4.64Q92.1 4.86 91.7 5.11Q91.31 5.36 90.91 5.65L90.88 5.65Q90.88 5.83 90.79 5.9Q90.78 5.91 90.76 5.92Q90.66 5.97 90.44 6.01Q90.12 6.26 89.8 6.53Q89.47 6.8 89.18 7.09Q89.12 7.15 89.07 7.22Q89.01 7.31 88.96 7.41Q88.92 7.51 88.85 7.57Q88.79 7.61 88.72 7.62Q88.62 7.64 88.54 7.7Q88.47 7.74 88.43 7.81Q88.43 7.84 88.42 7.84Q88.41 7.84 88.41 7.84Q88.41 7.84 88.4 7.85Q88.39 7.85 88.39 7.88Q88.29 8.02 88.21 8.13Q88.14 8.24 87.96 8.31Q87.71 8.56 87.49 8.84Q87.28 9.1 87.06 9.39Q86.97 9.53 86.86 9.64Q86.83 9.67 86.8 9.7Q86.76 9.73 86.73 9.77Q86.64 9.87 86.59 10.01Q86.45 10.15 86.37 10.38Q86.33 10.5 86.26 10.59Q86.19 10.67 86.09 10.72L85.8 11.19L85.8 11.23Q85.8 11.4 85.82 11.55Q85.82 11.58 85.81 11.61Q85.77 11.69 85.54 11.69L85.51 11.69L85.15 12.45L85.11 12.48Q85.11 12.55 85.01 12.63L85.11 12.63Q85.15 12.74 85.12 12.84Q85.1 12.92 85.03 12.99Q84.87 13.13 84.79 13.31Q84.72 13.51 84.63 13.69Q84.62 13.71 84.61 13.73Q84.51 13.93 84.51 14.1L84.51 14.15Q84.53 14.16 84.52 14.17Q84.52 14.18 84.5 14.18Q84.48 14.18 84.48 14.19Q84.48 14.19 84.51 14.22L84.51 14.25L84.46 14.25Q84.46 14.29 84.48 14.3L84.51 14.32Q84.58 14.32 84.61 14.29Q84.65 14.25 84.68 14.25Q84.7 14.35 84.67 14.41Q84.64 14.47 84.57 14.51Q84.55 14.52 84.53 14.53Q84.42 14.6 84.36 14.75L84.25 15.3Q84.18 15.76 84.16 16.16Q84.16 16.29 84.16 16.42Q84.16 16.69 84.18 16.95Q84.18 17.04 84.22 17.07Q84.27 17.1 84.36 17.05Q84.32 17.2 84.3 17.33Q84.29 17.45 84.29 17.6Q84.29 17.7 84.3 17.8Q84.32 17.89 84.32 18Q84.39 18.24 84.48 18.51Q84.58 18.79 84.68 19.01L84.72 19.01Q84.81 19.06 84.87 19.13Q84.94 19.21 84.97 19.31Q85.04 19.51 85.18 19.68L85.18 19.72Q85.39 19.93 85.62 20.11Q85.88 20.31 86.16 20.47Q86.26 20.55 86.33 20.62L86.34 20.62Q86.42 20.69 86.55 20.69L86.62 20.69Q86.6 20.65 86.57 20.63Q86.55 20.62 86.52 20.62Q86.45 20.62 86.38 20.59Q86.6 20.52 86.74 20.61Q86.75 20.61 86.77 20.62Q86.91 20.73 87.06 20.87L87.1 20.91L87.78 21.09Q87.81 21.08 87.84 21.08Q87.92 21.07 88.01 21.11Q88.14 21.16 88.29 21.16L88.1 21.05Q88.36 21.12 88.58 21.16ZM114.75 7.33Q114.85 7.4 115.21 7.76Q115.29 7.78 115.37 7.78Q115.47 7.77 115.57 7.72Q115.76 7.62 115.79 7.55L115.76 7.52L115.25 6.87Q115.04 6.58 114.98 6.47Q114.92 6.37 114.89 6.26Q114.85 6.15 114.64 5.86L114.64 5.68L114.61 5.72L114.53 5.61Q114.42 5.61 114.39 5.58L114.1 5.25L114.03 5.29L114.03 5.25Q114.03 5.24 114.02 5.23Q114.01 5.22 113.97 5.22Q113.94 5.22 113.93 5.2Q113.92 5.19 113.92 5.18L113.89 5.07Q113.83 5.07 113.8 5.04Q113.79 5.03 113.79 5.01Q113.77 4.96 113.7 4.93L113.45 4.86Q113.42 4.87 113.42 4.88Q113.41 4.91 113.49 4.96L113.29 4.99Q113.29 4.99 113.3 4.99Q113.31 4.98 113.31 4.96L113.24 4.96Q112.95 5.03 112.84 5.03L112.66 5.14L112.51 5.22L112.48 5.25L112.44 5.22L111.76 5.53Q111.69 5.58 111.57 5.58L111.43 5.68L111.4 5.65L111.18 5.82Q110.68 6.11 110.53 6.2Q110.39 6.29 110.25 6.38Q110.11 6.47 109.53 6.83L108.34 7.55Q108.28 7.57 108.27 7.61Q108.27 7.63 108.29 7.66Q108.29 7.66 108.29 7.66Q108.34 7.73 108.48 7.73L108.63 7.73Q109.35 7.37 109.54 7.3Q109.75 7.23 110.06 7.09Q110.14 7.01 110.41 6.92Q110.68 6.83 110.82 6.8Q110.9 6.73 110.99 6.67Q111.07 6.61 111.14 6.58L111.47 6.47L111.69 6.37L111.71 6.37Q111.72 6.37 111.76 6.33L111.83 6.33Q112.01 6.22 112.24 6.13Q112.48 6.04 112.62 5.94L112.87 5.86L112.95 5.89L113.13 5.97Q113.2 6.08 113.32 6.16Q113.45 6.25 113.53 6.37L113.6 6.37Q113.57 6.39 113.57 6.4Q113.57 6.4 113.58 6.4L113.6 6.4L113.7 6.51L114.13 6.73Q114.14 6.74 114.15 6.74Q114.17 6.73 114.17 6.67L114.17 6.65Q114.28 6.69 114.39 6.87Q114.49 7.04 114.46 7.12Q114.64 7.26 114.75 7.33ZM126.03 7.98Q126.11 8.05 126.26 8.05L126.4 8.05Q126.95 7.69 127.11 7.62Q127.27 7.55 127.49 7.41Q127.52 7.33 127.75 7.25Q127.99 7.16 128.1 7.12L128.22 7Q128.28 6.94 128.31 6.9L128.6 6.8L128.74 6.69L128.76 6.69Q128.76 6.69 128.77 6.69Q128.78 6.69 128.78 6.66L128.86 6.66Q128.93 6.6 129.01 6.54Q129.08 6.5 129.16 6.45Q129.32 6.37 129.46 6.26L129.68 6.18L130.01 6.04L130.33 5.79L130.47 5.68L130.51 5.61L130.44 5.61L130.37 5.58Q130.37 5.54 130.35 5.51Q130.33 5.5 130.31 5.49Q130.25 5.46 130.22 5.43L130.11 5.43L129.86 5.32L129.86 5.29L129.62 5.32Q129.63 5.32 129.63 5.32Q129.63 5.31 129.61 5.29L129.54 5.29Q129.32 5.36 129.18 5.36L129.07 5.46Q129.03 5.51 129 5.51Q128.98 5.51 128.97 5.51Q128.96 5.52 128.96 5.54L128.93 5.58L128.89 5.54L128.38 5.86Q128.35 5.9 128.24 5.9L128.14 6.01L128.1 5.97L127.99 6.15Q127.63 6.44 127.52 6.53Q127.42 6.61 127.32 6.71Q127.23 6.8 126.84 7.16L126.01 7.88Q125.98 7.89 125.98 7.91Q125.97 7.94 126.03 7.98ZM115.35 19.99Q115.4 20.04 115.5 20.04Q115.72 20.04 116.04 19.72Q116.11 19.62 116.21 19.58Q116.21 19.58 116.22 19.58Q116.33 19.54 116.44 19.47Q116.51 19.4 116.58 19.24Q116.65 19.08 116.72 19.04Q116.87 18.95 116.86 18.92Q116.86 18.91 116.84 18.91Q116.79 18.89 116.74 18.86Q116.73 18.85 116.73 18.84Q116.72 18.81 116.91 18.75Q116.98 18.75 117.12 18.6Q117.14 18.53 117.18 18.52Q117.2 18.52 117.22 18.53Q117.23 18.54 117.24 18.53Q117.3 18.52 117.3 18.24L117.3 18.22Q117.3 18.22 117.3 18.22Q117.31 18.21 117.34 18.21Q117.39 18.15 117.46 18.13Q117.48 18.12 117.49 18.12Q117.51 18.11 117.53 18.11Q117.6 18.07 117.63 17.96Q117.63 17.92 117.7 17.87Q117.77 17.81 117.84 17.7Q117.87 17.63 117.89 17.53Q117.91 17.41 117.95 17.38Q118.13 17.24 118.18 17.27Q118.2 17.28 118.21 17.28Q118.24 17.28 118.27 17.2Q118.27 17.17 118.39 16.99Q118.52 16.81 118.59 16.73Q118.66 16.66 118.7 16.59Q118.74 16.52 118.78 16.45Q119.67 15.54 120.72 14.97Q120.77 14.94 120.79 14.89Q120.81 14.84 120.79 14.78Q120.77 14.69 120.71 14.66Q120.68 14.65 120.65 14.65Q120.61 14.65 120.6 14.66Q120.58 14.68 120.54 14.68Q119.6 15.22 118.74 16.02L118.38 16.16Q118.16 16.26 117.95 16.26Q117.77 16.26 117.69 16.17Q117.63 16.1 117.63 15.97Q117.63 15.94 117.7 15.73Q117.95 15.18 118.43 14.2Q118.92 13.21 119.46 12.09Q120.07 11.91 120.72 11.75Q121.37 11.59 121.94 11.44L122.13 11.33Q122.16 11.33 122.23 11.25Q122.3 11.16 122.34 11.16Q122.36 11.16 122.37 11.17Q122.4 11.19 122.39 11.26Q122.38 11.32 122.4 11.34Q122.42 11.35 122.45 11.33Q122.66 11.3 122.87 11.3L124.24 11.3Q124.36 11.3 124.5 11.37Q124.62 11.41 124.67 11.36Q124.71 11.33 124.7 11.23Q124.69 11.12 124.63 11.06Q124.58 10.99 124.46 10.97L124.1 10.87Q124.07 10.87 123.97 10.85Q123.88 10.83 123.85 10.87Q123.79 10.87 123.75 10.89Q123.74 10.9 123.73 10.9Q123.72 10.91 123.7 10.91Q123.66 10.94 123.6 10.94Q123.59 10.94 123.59 10.93Q123.57 10.92 123.59 10.88Q123.59 10.87 123.58 10.85Q123.57 10.83 123.52 10.83Q123.42 10.8 123.2 10.8L122.85 10.8Q122.63 10.8 122.25 10.81Q121.87 10.83 121.58 10.87Q121.41 10.9 121.33 10.96Q121.26 11.01 121.08 11.01Q121 11.03 120.99 11.02Q120.99 11.02 120.99 11.01Q121 11 120.99 11Q120.99 10.97 120.9 10.97L119.96 11.08Q120.43 10.15 120.84 9.37Q121.26 8.6 121.51 8.17Q121.58 8.09 121.63 8Q121.7 7.91 121.73 7.84L122.01 7.41Q122.23 7.05 122.48 6.78Q122.73 6.51 122.85 6.47Q123.06 6.3 123.06 6.22Q123.06 6.2 123.05 6.19Q123.01 6.04 122.45 6.04Q121.84 6.04 121.05 6.3Q120.37 6.51 120.22 6.91Q120.19 6.98 120.18 7.05Q120.18 7.06 120.18 7.07Q120.17 7.13 120.03 7.16Q119.96 7.18 119.93 7.22Q119.89 7.27 119.89 7.33L119.91 7.35Q119.93 7.37 119.93 7.41L119.89 7.41Q119.86 7.41 119.78 7.48Q119.72 7.57 119.71 7.66Q119.71 7.68 119.71 7.7L119.71 7.91Q119.6 8.02 119.6 8.05L119.42 8.27Q119.3 8.33 119.28 8.41Q119.28 8.43 119.28 8.45Q119.28 8.52 119.25 8.54Q119.23 8.55 119.19 8.55Q119.18 8.55 119.18 8.55Q119.1 8.56 119.07 8.89L119.07 8.89Q119.06 8.93 118.95 8.94Q118.85 8.96 118.85 8.99Q118.85 8.99 118.85 9Q118.71 9.21 118.65 9.34Q118.59 9.46 118.45 9.68Q118.35 9.75 118.18 9.92Q118.02 10.08 118.02 10.18L117.73 10.58L117.3 11.16Q117.15 11.37 117.06 11.5Q116.98 11.62 116.91 11.69Q116.87 11.73 116.76 11.73L116 11.95Q115.94 11.95 115.93 11.97Q115.93 11.98 115.93 11.98Q115.79 12.19 115.79 12.55Q115.79 13.03 115.97 13.13L115.93 13.17L115.03 14.32Q114.94 14.41 114.92 14.4Q114.92 14.39 114.94 14.36Q114.96 14.32 114.95 14.31Q114.93 14.29 114.81 14.36Q114.6 14.58 114.21 15.01Q113.81 15.44 113.63 15.51Q113.56 15.54 113.56 15.57Q113.56 15.61 113.65 15.64Q113.72 15.66 113.78 15.65Q113.87 15.65 113.95 15.58Q114.21 15.44 114.42 15.26Q114.64 15.08 114.96 14.72Q115 14.72 115.03 14.68Q115.32 14.29 115.66 13.89Q116 13.5 116.36 13.1Q116.84 12.91 117.37 12.77Q117.41 12.74 117.8 12.6Q118.2 12.45 118.2 12.31Q118.2 12.23 118.39 12.12Q118.52 12.05 118.67 12.03Q118.74 12.02 118.81 12.02L117.01 15.73Q116.44 16.52 116.06 17.63Q115.68 18.75 115.39 19.36Q115.28 19.61 115.28 19.8Q115.28 19.93 115.35 19.99ZM96.93 10.49Q96.81 10.51 96.78 10.54Q96.6 10.58 96.26 10.52Q96.22 10.52 96.19 10.51Q95.88 10.46 95.59 10.32L95.55 10.32L95.45 10.22Q95.45 10.16 95.43 10.15Q95.42 10.15 95.41 10.15Q95.38 10.15 95.33 10.11Q95.35 10.11 95.35 10.11Q95.36 10.1 95.32 10.08Q95.26 10.04 95.26 10.01Q95.16 9.89 95.16 9.79Q95.15 9.79 95.15 9.78Q95.12 9.78 95.11 9.73Q95.09 9.68 95.05 9.65Q95.08 9.6 95.06 9.56Q95.06 9.53 95.04 9.51Q95 9.48 95.01 9.45Q95.01 9.44 95.02 9.43Q95.02 9.39 95.09 9.32L95.12 9.32Q95.12 9.33 95.13 9.35Q95.14 9.36 95.16 9.37Q95.18 9.38 95.19 9.4Q95.19 9.41 95.19 9.43Q95.44 9.37 95.55 9.46Q95.57 9.48 95.59 9.5Q95.61 9.54 95.65 9.56Q95.75 9.65 95.91 9.65Q95.95 9.65 95.99 9.63Q96.02 9.6 96.06 9.6Q96.08 9.6 96.09 9.61Q96.1 9.62 96.1 9.65L96.31 9.65Q96.33 9.65 96.34 9.65Q96.35 9.66 96.35 9.68Q96.38 9.65 96.4 9.65L96.49 9.65Q96.52 9.65 96.53 9.63Q96.53 9.63 96.53 9.63Q96.53 9.62 96.53 9.61Q96.54 9.6 96.57 9.6Q96.68 9.57 96.78 9.6Q96.8 9.6 96.83 9.61Q96.96 9.65 97.07 9.65L97.17 9.65L97.39 9.57L97.43 9.57Q97.44 9.57 97.45 9.58Q97.46 9.58 97.46 9.6Q97.49 9.6 97.5 9.59Q97.5 9.59 97.5 9.58Q97.5 9.58 97.5 9.58Q97.5 9.57 97.53 9.57Q97.57 9.57 97.64 9.53Q97.72 9.5 97.75 9.5L97.79 9.5Q97.84 9.5 97.85 9.47Q97.86 9.47 97.86 9.46L98.04 9.46Q98.15 9.36 98.18 9.36Q98.21 9.36 98.22 9.37Q98.22 9.37 98.22 9.37Q98.22 9.38 98.22 9.38Q98.22 9.39 98.25 9.39Q98.34 9.39 98.4 9.35Q98.42 9.34 98.44 9.32L98.44 9.34Q98.44 9.34 98.44 9.34Q98.45 9.35 98.47 9.32Q98.54 9.32 98.65 9.29Q98.76 9.24 98.83 9.21L99.01 9.17L99.04 9.14Q99.12 9.07 99.19 9.07L99.23 9.07Q99.33 9.07 99.61 8.96Q99.88 8.85 100.02 8.74Q100.05 8.74 100.09 8.72Q100.13 8.7 100.16 8.7Q100.2 8.7 100.3 8.63Q100.42 8.56 100.45 8.56L100.6 8.49L100.64 8.45L100.74 8.45L100.81 8.38Q100.85 8.38 100.95 8.29Q101.07 8.2 101.1 8.2Q101.14 8.17 101.51 7.93Q101.82 7.74 101.83 7.75Q101.83 7.76 101.82 7.77Q101.53 8.24 101.14 8.58Q100.74 8.92 100.64 8.96Q100.6 9 100.5 9.03Q100.49 9.04 100.47 9.05Q100.4 9.08 100.34 9.14Q100.34 9.17 100.21 9.25Q100.09 9.32 100.05 9.36Q100.02 9.36 99.95 9.39Q99.88 9.43 99.8 9.46Q99.8 9.46 99.8 9.47Q99.79 9.5 99.73 9.51Q99.66 9.53 99.62 9.57Q99.59 9.57 99.54 9.65Q99.48 9.72 99.44 9.72L99.25 9.82Q99.08 9.93 99.01 9.93L98.97 9.93Q98.91 9.93 98.9 9.94L98.9 9.94Q98.9 9.96 98.83 10.01Q98.8 10.04 98.74 10.06Q98.68 10.08 98.61 10.15Q98.54 10.15 98.51 10.18Q98.41 10.26 98.38 10.23Q98.37 10.23 98.37 10.2Q98.37 10.18 98.36 10.17Q98.32 10.14 98.18 10.25Q98.11 10.25 98.08 10.29Q98.04 10.29 98 10.32Q97.96 10.36 97.93 10.36L97.14 10.44Q97.07 10.47 96.93 10.49ZM117.82 11.52Q117.7 11.55 117.56 11.59Q117.59 11.52 117.59 11.3L117.63 11.23Q117.66 11.23 117.8 11.16L117.91 10.94Q117.95 10.94 117.95 10.92Q117.95 10.92 117.95 10.92Q117.95 10.92 117.95 10.91Q117.96 10.9 117.99 10.9Q118.09 10.8 118.16 10.69Q118.23 10.58 118.27 10.51Q118.27 10.44 118.29 10.42Q118.29 10.42 118.29 10.41Q118.31 10.39 118.31 10.36L118.56 10.04Q118.64 9.98 118.66 9.9Q118.66 9.88 118.66 9.86L118.81 9.5Q118.83 9.5 118.84 9.5Q118.9 9.51 118.97 9.43Q119.06 9.33 119.07 9.23Q119.07 9.22 119.07 9.21Q119.07 9.2 119.07 9.2Q119.07 9.17 119.16 9.15Q119.24 9.14 119.24 9.11Q119.24 9.1 119.24 9.1L119.64 8.56L119.96 8.24Q120.03 8.27 120.12 8.34Q120.22 8.41 120.29 8.45Q120.29 8.5 120.31 8.54Q120.32 8.56 120.34 8.58L120.39 8.63Q120.25 8.96 119.93 9.66Q119.6 10.36 119.17 11.23L118.09 11.4Q117.95 11.47 117.82 11.52ZM105.35 20.08Q105.78 20.26 106.28 20.26Q107.14 20.26 108.06 19.88Q108.98 19.51 109.53 19.04Q110.13 18.5 110.78 17.85Q111.43 17.2 111.9 16.48Q112.04 16.26 112.06 16.19Q112.08 16.12 112.15 15.9Q112.22 15.76 112.38 15.66Q112.41 15.64 112.43 15.62Q112.55 15.5 112.55 15.26L112.55 15.04L112.66 14.86Q112.8 14.65 112.85 14.42Q112.91 14.18 112.95 13.96Q112.98 13.79 113.02 13.63Q113.05 13.46 113.05 13.35Q113.05 13.2 112.99 13.16Q112.98 13.15 112.96 13.15Q112.93 13.15 112.91 13.12Q112.87 13.09 112.87 13.03Q112.87 12.99 112.89 12.99Q112.91 12.98 112.95 13.01Q112.97 13.03 112.99 13.03Q113.02 13.02 113.02 12.95Q113.05 12.77 113 12.4Q112.95 12.02 112.87 11.83Q112.8 11.59 112.58 11.3Q112.91 11.3 112.98 11.26Q113.05 11.26 113.09 11.25Q113.12 11.23 113.16 11.23L113.19 11.19Q113.34 11.16 113.48 11.14Q113.63 11.11 113.77 11.11Q113.77 11.08 113.79 11.06Q113.81 11.04 113.84 11.04L113.88 11.04L114.13 11.01Q114.24 10.9 114.27 10.9Q114.3 10.9 114.31 10.91Q114.31 10.92 114.31 10.92Q114.31 10.92 114.31 10.92Q114.31 10.94 114.35 10.94Q114.42 10.94 114.56 10.8Q114.61 10.77 114.66 10.77Q114.68 10.77 114.7 10.78Q114.78 10.8 114.81 10.77Q114.81 10.76 114.82 10.76Q114.9 10.7 114.92 10.63Q114.92 10.6 114.92 10.58Q114.92 10.55 114.91 10.53Q114.88 10.47 114.75 10.47L114.67 10.47Q114.63 10.47 114.56 10.49Q114.5 10.5 114.49 10.53Q114.49 10.54 114.49 10.54Q114.39 10.54 114.25 10.59Q114.13 10.65 114.06 10.68L114.03 10.72L113.6 10.72L113.48 10.83Q113.47 10.85 113.45 10.85Q113.43 10.86 113.39 10.85Q113.34 10.83 113.31 10.83L113.24 10.9Q113.21 10.9 113.2 10.89Q113.2 10.89 113.21 10.88Q113.22 10.88 113.22 10.88Q113.21 10.87 113.16 10.87Q113.12 10.87 112.98 10.94L112.95 10.9L112.76 11.01Q112.73 11.02 112.69 11.02Q112.62 11.03 112.54 11.01Q112.44 10.97 112.37 11.01Q112.17 10.82 111.94 10.73Q111.74 10.65 111.5 10.65Q111.25 10.67 111.19 10.79Q111.18 10.83 111.18 10.87Q111.18 10.97 111.28 11.16L110.97 11.11Q110.96 11.11 110.95 11.11Q110.92 11.12 110.89 11.16Q110.85 11.19 110.78 11.19Q110.75 11.19 110.75 11.18Q110.75 11.18 110.75 11.17Q110.75 11.17 110.75 11.17Q110.74 11.16 110.71 11.16Q110.7 11.16 110.69 11.16Q110.67 11.17 110.66 11.19Q110.66 11.19 110.66 11.19Q110.64 11.23 110.56 11.23L110.32 11.19Q110.17 11.19 110.09 11.12Q110.08 11.1 110.06 11.08L110.06 11.04Q110.12 10.93 110.19 10.92Q110.21 10.92 110.22 10.92Q110.25 10.93 110.28 10.91Q110.32 10.89 110.32 10.8L110.32 10.68L110.6 10.54Q110.75 10.47 110.85 10.47Q110.97 10.36 110.97 10.32Q111.14 10.32 111.47 9.89Q111.5 9.82 111.52 9.7Q111.54 9.57 111.57 9.46Q111.54 9.39 111.54 9.32Q111.54 9.25 111.51 9.24Q111.51 9.24 111.5 9.24Q111.49 9.24 111.48 9.25Q111.48 9.26 111.49 9.27Q111.49 9.27 111.49 9.27Q111.49 9.29 111.43 9.29Q111.42 9.29 111.41 9.28Q111.4 9.27 111.4 9.25Q111.4 9.24 111.4 9.22Q111.39 9.2 111.36 9.17Q111.32 9.17 111.28 9.19Q111.27 9.19 111.26 9.19Q111.24 9.19 111.21 9.17L111.11 9.07Q111.07 9.07 111.04 9.08Q111 9.1 110.97 9.1Q110.93 9.1 110.92 9.09Q110.92 9.09 110.92 9.08L110.92 9.07L110.75 9.07Q110.53 9.07 110.1 9.32Q109.67 9.57 109.6 9.65L109.53 9.79Q109.49 9.82 109.43 9.86Q109.38 9.89 109.34 9.96L109.32 9.96Q109.31 9.96 109.27 10.01L109.18 10.09Q109.13 10.15 109.05 10.22L109.05 10.25Q109.05 10.29 109.02 10.32L108.98 10.32Q108.84 10.47 108.81 10.56Q108.77 10.65 108.69 10.72Q108.66 10.76 108.47 10.94Q108.3 11.11 108.26 11.11Q108.23 11.11 107.97 11.03Q107.72 10.94 107.65 10.94Q107.64 10.94 107.63 10.94Q107.61 10.95 107.6 10.97Q107.59 10.99 107.58 11Q107.57 11.01 107.54 11.01Q107.5 11.01 107.4 10.96Q107.29 10.9 107.26 10.9Q107.22 10.9 107.16 10.99Q107.11 11.08 107.07 11.08Q107.11 11.16 107.14 11.19Q107.18 11.23 107.18 11.26Q107.18 11.3 107.4 11.41Q107.62 11.52 107.62 11.62Q107.62 11.65 107.61 11.66Q107.6 11.66 107.6 11.66Q107.6 11.66 107.6 11.66Q107.58 11.67 107.58 11.69Q107.54 11.73 107.52 11.75L107.43 11.83Q107.4 11.87 107.29 12.04Q107.18 12.19 107.11 12.27L106.7 12.69Q106.47 12.91 106.28 13.17Q106.18 13.27 106.2 13.34Q106.21 13.37 106.23 13.39Q106.28 13.43 106.3 13.48Q106.32 13.52 106.32 13.57Q106.32 13.64 106.28 13.71Q106.25 13.79 106.2 13.8Q106.14 13.82 106.06 13.89Q106.06 13.9 106.06 13.9Q106.04 13.94 106.15 14.01Q106.26 14.09 106.26 14.15Q106.25 14.17 106.25 14.18Q106.21 14.22 106.01 14.11Q105.82 14 105.78 14.03Q105.56 14.39 105.33 14.79Q105.1 15.18 104.91 15.61Q104.6 16.41 104.45 17.13Q104.31 17.85 104.31 18.24Q104.31 19.29 104.83 19.76Q104.86 19.79 104.89 19.81Q105.11 19.97 105.35 20.08ZM42.09 19.58Q42.78 20.04 44.11 20.04Q45.25 20.04 46.27 19.69Q46.57 19.59 46.86 19.45Q48.15 18.86 49.15 17.96Q49.22 17.89 49.22 17.84Q49.22 17.78 49.3 17.7L49.73 17.49L50.09 17.13Q50.48 16.73 50.63 16.48Q50.85 16.16 50.85 16.09Q50.85 16.05 50.83 16.04Q50.81 16.02 50.77 16.02Q50.73 16.02 50.69 16.03Q50.66 16.04 50.63 16.05Q50.42 16.14 50.43 16.19Q50.43 16.2 50.44 16.21Q50.46 16.23 50.46 16.24Q50.47 16.28 50.34 16.33Q50.3 16.37 50.19 16.5Q50.09 16.62 50.02 16.73Q49.92 16.77 49.86 16.84Q49.86 16.85 49.85 16.86Q49.8 16.95 49.73 17.05Q49.61 17.13 49.36 17.27Q49.11 17.41 49.01 17.49Q48.43 17.92 47.74 18.36Q47.07 18.79 46.35 18.96Q46.23 19 46.22 18.98Q46.22 18.98 46.23 18.97Q46.24 18.96 46.24 18.96Q46.23 18.95 45.98 19.08Q45.97 19 45.93 18.99Q45.88 18.96 45.77 19.08Q45.66 19.08 45.44 19.15Q45.3 19.18 45.17 19.2Q45.04 19.22 44.94 19.22L44.32 19.22Q44.14 19.22 43.97 19.17Q43.64 19.08 43.36 18.82Q43.2 18.67 43.08 18.49Q42.9 18.19 42.85 17.81Q42.71 16.55 43.43 14.94Q43.99 13.66 44.82 12.59Q45.05 12.3 45.3 12.02Q45.55 11.73 46.27 11.28Q46.99 10.83 47.53 10.83Q47.81 10.83 47.96 10.97Q48.03 11.03 48.07 11.11Q48.09 11.15 48.11 11.19Q48.17 11.35 48.12 11.55Q48.07 11.8 48.07 12.09Q48.07 12.1 48.07 12.1Q48.05 12.16 47.93 12.19Q47.9 12.19 47.88 12.21Q47.86 12.23 47.86 12.27Q47.86 12.34 47.82 12.38Q47.82 12.41 47.78 12.47Q47.76 12.5 47.76 12.52Q47.77 12.54 47.79 12.55Q47.79 12.59 47.62 12.81Q47.46 13.03 47.43 13.06Q47.42 13.08 47.4 13.1Q47.37 13.14 47.31 13.17Q47.28 13.19 47.25 13.21Q47.22 13.24 47.21 13.28Q47.21 13.31 47.22 13.37Q47.23 13.4 47.23 13.43Q47.22 13.45 47.21 13.46Q47.18 13.5 47.19 13.53Q47.2 13.57 47.29 13.58Q47.46 13.6 47.53 13.57Q47.6 13.53 47.8 13.48Q48 13.42 48.15 13.31Q48.32 13.17 48.45 13.01Q48.58 12.84 48.68 12.81Q48.86 12.7 49.24 12.26Q49.61 11.8 49.76 11.59Q49.9 11.4 50.05 11.26Q50.12 11.19 50.16 11.11Q50.21 11.01 50.23 10.9Q50.27 10.72 50.27 10.47Q50.27 10.14 50.11 10.04Q50.1 10.03 50.08 10.02Q49.9 9.93 49.73 9.89Q49.66 9.86 49.22 10.15Q48.79 10.44 48.46 10.72Q48.44 10.74 48.42 10.75Q48.31 10.79 48.12 10.58Q47.89 10.32 47.79 10.29Q47.28 10.18 46.61 10.38Q45.95 10.58 45.4 10.87Q45.3 10.94 44.82 11.28Q44.36 11.62 43.96 11.98Q43.57 12.34 43.6 12.45Q43.65 12.48 43.73 12.5Q43.82 12.52 43.86 12.55Q43.57 12.77 43.46 12.77L43.43 12.77Q43.43 12.74 43.44 12.72L43.46 12.7Q43.17 12.88 43.05 13.05Q42.93 13.21 42.89 13.28L42.74 13.6Q42.86 13.68 42.85 13.71Q42.84 13.72 42.83 13.72Q42.78 13.74 42.64 13.82L42.67 13.86Q42.55 13.86 42.53 13.9Q42.52 13.93 42.57 14Q42.62 14.12 42.58 14.18Q42.53 14.23 42.4 14.22Q42.22 14.19 42.16 14.26Q42.14 14.3 42.14 14.36Q42.14 14.43 42.17 14.46Q42.14 14.46 42.06 14.59Q41.99 14.72 41.95 14.79Q41.92 14.86 41.88 14.9Q41.85 14.94 41.81 15.3Q41.79 15.39 41.72 15.45Q41.7 15.47 41.66 15.49Q41.56 15.54 41.45 15.58L41.45 15.66Q41.45 15.68 41.46 15.69Q41.48 15.72 41.56 15.69Q41.78 15.62 41.81 15.66Q41.81 15.67 41.81 15.67Q41.81 15.7 41.82 15.71Q41.83 15.71 41.85 15.69Q41.85 15.73 41.92 15.78Q41.97 15.82 41.96 15.83Q41.96 15.83 41.95 15.83Q41.97 15.85 41.96 15.86Q41.95 15.9 41.71 15.89L41.41 15.87L41.48 15.97Q41.45 15.97 41.44 15.99Q41.41 16.01 41.41 16.05L41.45 16.09L41.34 16.16Q41.4 16.31 41.41 16.3Q41.41 16.3 41.41 16.3Q41.41 16.26 41.63 16.23Q41.65 16.22 41.66 16.22Q41.69 16.24 41.66 16.34Q41.64 16.45 41.59 16.45Q41.57 16.46 41.56 16.45L41.27 16.37Q41.23 16.41 41.19 16.6Q41.16 16.77 41.09 16.88L41.02 16.98Q40.9 17.81 41.16 18.46Q41.17 18.5 41.19 18.54Q41.45 19.14 42.09 19.58ZM35.65 19.99Q35.7 20.04 35.8 20.04Q36.01 20.04 36.33 19.72Q36.39 19.63 36.47 19.59Q36.49 19.58 36.51 19.58Q36.62 19.54 36.73 19.47Q36.8 19.4 36.87 19.24Q36.95 19.08 37.02 19.04Q37.17 18.95 37.16 18.92Q37.15 18.91 37.14 18.91Q37.09 18.89 37.04 18.86Q37.03 18.85 37.03 18.84Q37.02 18.81 37.2 18.75Q37.22 18.75 37.24 18.75Q37.32 18.73 37.38 18.6Q37.43 18.52 37.48 18.52Q37.5 18.52 37.52 18.53Q37.53 18.54 37.54 18.53Q37.6 18.52 37.6 18.24L37.6 18.22Q37.6 18.22 37.6 18.22Q37.61 18.21 37.63 18.21Q37.69 18.15 37.76 18.13Q37.77 18.12 37.79 18.12Q37.8 18.12 37.82 18.11Q37.89 18.08 37.92 17.96Q37.92 17.92 37.99 17.87Q38.06 17.81 38.14 17.7Q38.17 17.63 38.19 17.53Q38.21 17.41 38.24 17.38Q38.43 17.24 38.48 17.27Q38.49 17.28 38.51 17.28Q38.54 17.28 38.57 17.2Q38.57 17.17 38.67 16.99Q38.79 16.81 38.89 16.73Q38.96 16.66 39 16.59L39.07 16.45Q39.97 15.54 41.02 14.97Q41.07 14.94 41.09 14.89Q41.11 14.84 41.09 14.78Q41.07 14.7 41.01 14.67Q40.98 14.65 40.94 14.65Q40.9 14.65 40.89 14.66Q40.87 14.68 40.83 14.68Q39.9 15.22 39.03 16.02L38.67 16.16Q38.5 16.25 38.32 16.26Q38.28 16.26 38.24 16.26Q38.06 16.26 37.98 16.17Q37.92 16.1 37.92 15.97Q37.92 15.94 37.99 15.73Q38.5 14.61 38.86 13.89Q39.22 13.17 39.83 12.12Q39.9 12.05 39.95 11.97Q40.01 11.87 40.04 11.8L40.18 11.59Q40.26 11.47 40.3 11.37Q40.54 11.01 40.8 10.76Q41.05 10.51 41.16 10.44Q41.38 10.25 41.38 10.18Q41.38 10.17 41.38 10.16Q41.33 10.01 40.73 10.01Q40.11 10.01 39.34 10.26Q38.67 10.47 38.53 10.87Q38.51 10.94 38.5 11.01Q38.5 11.03 38.49 11.03Q38.48 11.04 38.46 11.04L38.28 10.94Q37.74 10.43 37.13 10.28Q36.87 10.22 36.59 10.22Q35.8 10.22 34.96 10.66Q34.14 11.11 33.38 11.69Q33.38 11.73 33.34 11.88Q33.31 12.02 33.31 12.09L33.31 12.12L33.13 12.16L33.07 12.24Q33.05 12.27 33.02 12.27Q33 12.27 32.98 12.23Q33.02 12.17 33.01 12.14Q33 12.12 32.95 12.12Q32.94 12.14 32.92 12.15Q32.79 12.28 32.62 12.38Q32.45 12.48 32.26 12.63L31.87 12.95Q31.87 12.98 31.86 13Q31.85 13.01 31.85 13.01Q31.83 13.03 31.83 13.06L31.97 13.06Q32.06 13.06 32.07 13.1Q32.08 13.12 32.05 13.17L31.8 13.17Q31.76 13.21 31.71 13.24Q31.66 13.28 31.62 13.35L31.49 13.44Q31.4 13.5 31.41 13.54Q31.42 13.56 31.44 13.57L31.4 13.64L31.3 13.79L31.15 13.79L31.15 13.93L31.01 14.39Q31.01 14.46 30.97 14.5Q30.97 14.5 30.97 14.51Q30.94 14.68 30.46 15.01Q30 15.33 29.93 15.73L29.86 15.8Q29.86 15.83 29.87 15.96Q29.88 16.02 29.87 16.07Q29.86 16.14 29.82 16.19Q29.81 16.19 29.81 16.19Q29.77 16.17 29.71 16.25L29.64 16.33Q29.43 16.81 29.33 17.22Q29.24 17.63 29.24 17.96Q29.24 18.73 29.63 19.12Q29.74 19.24 29.89 19.32Q30.54 19.68 31.11 19.68Q31.73 19.68 32.43 19.16Q33.13 18.65 33.85 17.89Q34.57 17.13 35.18 16.36Q35.8 15.58 36.23 15.11Q36.3 15.01 36.69 14.52Q37.09 14.03 37.34 13.64Q37.41 13.57 37.5 13.35Q37.6 13.13 37.6 13.03L37.6 13.01Q37.6 13 37.6 13Q37.59 12.99 37.55 12.99Q37.52 12.99 37.24 13.21Q36.98 13.42 36.71 13.77Q36.44 14.1 36.37 14.15Q36.33 14.22 36.21 14.32Q36.09 14.43 36.04 14.51L35.97 14.51L35.51 15.04L35.54 15.15L35.11 15.58L35.08 15.58Q34.53 16.05 34.12 16.62Q34.07 16.68 34.01 16.75Q33.63 17.22 33.1 17.56Q32.84 17.63 32.81 17.7L32.55 17.92Q32.62 17.96 32.68 18.03Q32.7 18.06 32.7 18.08Q32.69 18.12 32.62 18.14Q32.61 18.15 32.6 18.16Q32.53 18.2 32.42 18.19L32.3 18.17L32.23 18.29Q32.19 18.29 32.18 18.27Q32.17 18.26 32.16 18.25Q32.14 18.24 32.12 18.24Q32.12 18.24 32.11 18.24Q32.1 18.26 32.14 18.34Q32.19 18.42 32.17 18.45Q32.16 18.46 32.16 18.46L32.02 18.36L32.02 18.39L31.8 18.43L30.87 18.96Q30.75 19.01 30.68 19.02Q30.61 19.04 30.54 19.04Q30.38 19.04 30.28 18.96Q30.15 18.85 30.15 18.57Q30.15 17.96 30.7 16.88Q31.26 15.8 31.94 14.97Q32.23 14.58 32.78 14.08Q33.34 13.57 33.67 13.31Q33.93 13.13 33.91 13.06Q33.89 12.99 34.1 12.84Q34.29 12.7 34.48 12.69Q34.64 12.67 34.77 12.59Q34.8 12.58 34.82 12.55Q34.89 12.48 35.07 12.36Q35.25 12.23 35.25 12.12Q35.25 12.05 35.23 11.98Q35.22 11.93 35.24 11.89Q35.25 11.88 35.25 11.87Q35.33 11.83 35.54 11.64Q35.76 11.44 35.83 11.44Q35.85 11.44 35.86 11.45Q35.87 11.46 35.87 11.47Q35.87 11.55 35.81 11.71Q35.77 11.83 35.79 11.84Q35.79 11.84 35.8 11.83Q35.94 11.76 35.96 11.78Q35.97 11.8 36.12 11.76Q36.4 11.66 36.76 11.5Q37.12 11.33 37.34 11.33Q37.52 11.33 37.7 11.28Q37.88 11.23 38.03 11.23Q38.06 11.23 38.08 11.25Q38.1 11.26 38.14 11.26L38.17 11.3Q38.17 11.33 38.18 11.33Q38.18 11.33 38.19 11.33Q38.19 11.33 38.19 11.33Q38.21 11.34 38.21 11.37L38.19 11.37Q38.17 11.37 38.1 11.44Q37.99 11.58 38 11.72Q38 11.86 38.14 12Q38.39 12.27 38.57 12.41Q38.57 12.43 38.57 12.45Q38.58 12.5 38.64 12.54L38.72 12.59Q38.39 13.39 38.05 14.16Q37.7 14.94 37.31 15.73Q36.73 16.52 36.35 17.63Q35.97 18.75 35.68 19.36Q35.58 19.61 35.58 19.8Q35.58 19.93 35.65 19.99ZM70.64 19.99Q70.69 20.04 70.79 20.04Q71 20.04 71.33 19.72Q71.38 19.63 71.46 19.59Q71.48 19.58 71.5 19.58Q71.62 19.54 71.72 19.47Q71.79 19.4 71.86 19.24Q71.94 19.08 72.01 19.04Q72.16 18.95 72.15 18.92Q72.15 18.91 72.13 18.91Q72.08 18.89 72.03 18.86Q72.02 18.85 72.02 18.84Q72.01 18.81 72.2 18.75Q72.21 18.75 72.23 18.75Q72.31 18.73 72.37 18.6Q72.42 18.52 72.48 18.52Q72.49 18.52 72.51 18.53Q72.52 18.54 72.53 18.53Q72.59 18.52 72.59 18.24L72.59 18.22Q72.59 18.22 72.59 18.22Q72.6 18.21 72.63 18.21Q72.68 18.15 72.75 18.13Q72.77 18.12 72.78 18.12Q72.8 18.12 72.81 18.11Q72.88 18.08 72.91 17.96Q72.91 17.92 72.98 17.87Q73.06 17.81 73.13 17.7Q73.16 17.63 73.18 17.53Q73.2 17.41 73.23 17.38Q73.42 17.24 73.47 17.27Q73.49 17.28 73.5 17.28Q73.53 17.28 73.56 17.2Q73.56 17.17 73.66 16.99Q73.78 16.81 73.88 16.73Q73.95 16.66 73.99 16.59L74.06 16.45Q74.96 15.54 76.01 14.97Q76.06 14.94 76.08 14.89Q76.1 14.84 76.08 14.78Q76.06 14.7 76.01 14.67Q75.97 14.65 75.93 14.65Q75.9 14.65 75.88 14.66Q75.86 14.68 75.83 14.68Q74.89 15.22 74.02 16.02L73.66 16.16Q73.49 16.25 73.31 16.26Q73.27 16.26 73.23 16.26Q73.05 16.26 72.97 16.17Q72.91 16.1 72.91 15.97Q72.91 15.94 72.99 15.73Q73.49 14.61 73.85 13.89Q74.21 13.17 74.82 12.12Q74.89 12.05 74.95 11.97Q75 11.87 75.03 11.8L75.17 11.59Q75.25 11.47 75.29 11.37Q75.54 11.01 75.79 10.76Q76.05 10.51 76.15 10.44Q76.37 10.25 76.37 10.18Q76.37 10.17 76.37 10.16Q76.33 10.01 75.72 10.01Q75.1 10.01 74.33 10.26Q73.67 10.47 73.52 10.87Q73.5 10.94 73.49 11.01Q73.49 11.03 73.48 11.03Q73.47 11.04 73.45 11.04L73.27 10.94Q72.74 10.43 72.12 10.28Q71.86 10.22 71.58 10.22Q70.79 10.22 69.95 10.66Q69.13 11.11 68.37 11.69Q68.37 11.73 68.34 11.88Q68.3 12.02 68.3 12.09L68.3 12.12L68.13 12.16L68.06 12.24Q68.04 12.27 68.02 12.27Q67.99 12.27 67.98 12.23Q68.02 12.17 68 12.14Q67.99 12.12 67.94 12.12Q67.93 12.14 67.91 12.15Q67.78 12.28 67.62 12.38Q67.44 12.48 67.26 12.63L66.86 12.95Q66.86 12.98 66.85 13Q66.85 13.01 66.84 13.01Q66.83 13.03 66.83 13.06L66.97 13.06Q67.05 13.06 67.06 13.1Q67.08 13.12 67.05 13.17L66.79 13.17Q66.75 13.21 66.7 13.24Q66.65 13.28 66.61 13.35L66.48 13.44Q66.4 13.5 66.41 13.54Q66.41 13.56 66.43 13.57L66.39 13.64L66.29 13.79L66.14 13.79L66.14 13.93L66 14.39Q66 14.46 65.97 14.5Q65.97 14.5 65.96 14.51Q65.93 14.68 65.45 15.01Q64.99 15.33 64.92 15.73L64.85 15.8Q64.85 15.83 64.87 15.96Q64.87 16.02 64.86 16.07Q64.85 16.14 64.81 16.19Q64.81 16.19 64.8 16.19Q64.76 16.17 64.7 16.25L64.63 16.33Q64.42 16.81 64.32 17.22Q64.23 17.63 64.23 17.96Q64.23 18.73 64.62 19.12Q64.73 19.24 64.88 19.32Q65.53 19.68 66.1 19.68Q66.72 19.68 67.42 19.16Q68.13 18.65 68.84 17.89Q69.56 17.13 70.17 16.36Q70.79 15.58 71.22 15.11Q71.29 15.01 71.69 14.52Q72.08 14.03 72.34 13.64Q72.41 13.57 72.49 13.35Q72.59 13.13 72.59 13.03L72.59 13.01Q72.59 13 72.59 13Q72.58 12.99 72.55 12.99Q72.51 12.99 72.23 13.21Q71.98 13.42 71.7 13.77Q71.43 14.1 71.36 14.15Q71.33 14.22 71.2 14.32Q71.08 14.43 71.04 14.51L70.96 14.51L70.5 15.04L70.53 15.15L70.1 15.58L70.07 15.58Q69.52 16.05 69.11 16.62Q69.06 16.68 69.01 16.75Q68.62 17.22 68.09 17.56Q67.84 17.63 67.8 17.7L67.55 17.92Q67.62 17.96 67.67 18.03Q67.69 18.06 67.69 18.08Q67.68 18.12 67.62 18.14Q67.6 18.15 67.59 18.16Q67.52 18.2 67.41 18.19L67.29 18.17L67.22 18.29Q67.19 18.29 67.17 18.27Q67.16 18.26 67.15 18.25Q67.14 18.24 67.12 18.24Q67.11 18.24 67.11 18.24Q67.09 18.26 67.13 18.34Q67.18 18.42 67.16 18.45Q67.15 18.46 67.15 18.46L67.01 18.36L67.01 18.39L66.79 18.43L65.86 18.96Q65.74 19.01 65.67 19.02Q65.6 19.04 65.53 19.04Q65.37 19.04 65.28 18.96Q65.14 18.85 65.14 18.57Q65.14 17.96 65.69 16.88Q66.25 15.8 66.93 14.97Q67.22 14.58 67.77 14.08Q68.34 13.57 68.66 13.31Q68.92 13.13 68.9 13.06Q68.88 12.99 69.09 12.84Q69.28 12.7 69.47 12.69Q69.64 12.67 69.76 12.59Q69.79 12.58 69.81 12.55Q69.88 12.48 70.06 12.36Q70.24 12.23 70.24 12.12Q70.24 12.05 70.23 11.98Q70.21 11.93 70.23 11.89Q70.24 11.88 70.24 11.87Q70.32 11.83 70.53 11.64Q70.75 11.44 70.82 11.44Q70.84 11.44 70.85 11.45Q70.86 11.46 70.86 11.47Q70.86 11.55 70.81 11.71Q70.77 11.83 70.78 11.84Q70.78 11.84 70.79 11.83Q70.93 11.76 70.95 11.78Q70.96 11.8 71.11 11.76Q71.4 11.66 71.76 11.5Q72.12 11.33 72.34 11.33Q72.51 11.33 72.69 11.28Q72.87 11.23 73.02 11.23Q73.06 11.23 73.07 11.25Q73.09 11.26 73.13 11.26L73.16 11.3Q73.16 11.33 73.17 11.33Q73.18 11.33 73.18 11.33Q73.18 11.33 73.19 11.33Q73.2 11.34 73.2 11.37L73.18 11.37Q73.16 11.37 73.09 11.44Q72.99 11.58 72.99 11.72Q73 11.86 73.13 12Q73.38 12.27 73.56 12.41Q73.56 12.43 73.56 12.45Q73.57 12.5 73.63 12.54L73.71 12.59Q73.38 13.39 73.04 14.16Q72.7 14.94 72.3 15.73Q71.72 16.52 71.34 17.63Q70.96 18.75 70.67 19.36Q70.57 19.61 70.57 19.8Q70.57 19.93 70.64 19.99ZM123.33 19.8Q123.82 20.01 124.39 20.01Q125.32 20.01 126.26 19.65Q127.2 19.29 127.88 18.82Q128.52 18.36 129.09 17.82Q129.36 17.56 129.61 17.29Q130.4 16.45 131.02 15.54Q131.26 15.18 131.26 15.01Q131.26 14.97 131.25 14.95Q131.23 14.94 131.19 14.94Q131.05 14.94 130.8 15.3Q130.58 15.54 130.27 15.87Q129.97 16.19 129.68 16.48Q129.61 16.55 129.6 16.62Q129.58 16.69 129.51 16.77Q129.43 16.84 129.36 16.93Q129.29 17.02 129.22 17.05Q129.21 17.06 129.2 17.07Q129.17 17.09 129.12 17.07Q129.07 17.05 129 17.09Q128.98 17.11 128.98 17.14Q128.98 17.15 129 17.17Q129 17.18 129.01 17.18Q129.03 17.22 129 17.27L128.64 17.53Q128.21 17.81 127.81 18.1Q127.42 18.39 126.98 18.57Q126.73 18.72 126.49 18.79Q126.26 18.86 125.94 18.93Q125.91 18.94 125.88 18.96Q125.82 19 125.78 19.08Q125.73 19.18 125.08 19.18Q125.01 19.18 124.91 19.16Q124.82 19.15 124.75 19.15Q124.34 19.09 124.08 18.85Q123.88 18.66 123.78 18.36L123.74 17.85Q123.74 17.7 123.7 17.69Q123.7 17.68 123.69 17.69Q123.68 17.69 123.67 17.69Q123.64 17.67 123.67 17.56Q123.71 17.45 123.78 17.26Q123.86 17.05 123.86 16.91Q123.86 16.86 123.83 16.83Q123.82 16.82 123.81 16.81Q123.68 16.91 123.61 16.88Q123.58 16.87 123.57 16.84Q123.56 16.83 123.55 16.82Q123.52 16.71 123.74 16.52L123.93 16.19L124.14 15.69L124.39 15.3Q124.46 15.11 124.44 14.95Q124.44 14.91 124.46 14.87Q124.5 14.78 124.68 14.75Q125.11 14.65 125.89 14.45Q126.66 14.25 127.45 13.93Q128.24 13.6 128.8 13.12Q129.14 12.82 129.27 12.45Q129.36 12.21 129.36 11.95Q129.36 11.54 129.17 11.25Q129.07 11.07 128.89 10.94Q128.43 10.58 127.74 10.22Q127.49 10.04 127.24 10.04Q127.16 10.04 127.09 10.06Q127.02 10.08 126.96 10.11Q126.84 10.18 126.62 10.25Q126.62 10.29 126.42 10.44Q126.23 10.58 126.16 10.72Q126.08 10.83 126.08 11.01Q126.08 11.05 126.09 11.09Q126.11 11.14 126.16 11.19L126.01 11.26L125.96 11.33Q125.94 11.36 125.92 11.36Q125.88 11.36 125.83 11.3Q125.88 11.25 125.87 11.21Q125.87 11.19 125.85 11.17Q125.81 11.13 125.77 11.12Q125.75 11.11 125.73 11.11Q125.54 11.23 125.38 11.45Q125.22 11.66 124.57 12.45Q124.48 12.49 124.42 12.56Q124.38 12.6 124.36 12.65Q124.29 12.77 124.17 12.91Q124.14 12.95 124.01 13.08Q123.89 13.21 123.89 13.24Q123.89 13.24 123.89 13.24Q123.9 13.27 124.05 13.26Q124.12 13.25 124.16 13.28Q124.21 13.32 124.21 13.42L124.21 13.5L123.81 13.5Q123.71 13.6 123.64 13.6Q123.63 13.6 123.63 13.6Q123.56 13.61 123.53 13.79L123.35 13.93Q123.17 14.07 123.17 14.18L123.17 14.2Q123.17 14.2 123.17 14.2Q123.18 14.22 123.21 14.22L123.21 14.36L122.92 14.79Q122.77 14.86 122.76 14.88Q122.74 14.9 122.7 15.04Q122.56 15.4 122.48 15.87Q122.34 16.33 122.23 16.83Q122.12 17.31 122.12 17.78Q122.12 18.88 122.67 19.39Q122.74 19.45 122.81 19.51Q123.06 19.69 123.33 19.8ZM126.33 13.91Q125.47 14.18 124.93 14.22Q125.15 13.89 125.61 13.27Q126.08 12.63 126.68 11.97Q127.27 11.3 127.78 10.94Q128.35 11.44 128.39 11.98Q128.39 12.01 128.39 12.05Q128.39 12.16 128.37 12.27Q128.28 12.76 127.78 13.17Q127.2 13.64 126.33 13.91ZM107.07 19.56Q106.75 19.61 106.64 19.61Q106.51 19.61 106.39 19.57Q106.18 19.51 106.01 19.33Q105.75 19.04 105.75 18.36Q105.75 18.14 105.8 17.89Q105.85 17.63 105.85 17.49Q105.84 17.46 105.83 17.45Q105.79 17.4 105.74 17.38Q105.73 17.37 105.72 17.36Q105.68 17.32 105.71 17.2Q105.71 17.2 105.72 17.19Q105.79 17.05 105.94 16.95Q105.99 16.91 106.04 16.87Q106.12 16.77 106.14 16.62Q106.28 16.12 106.48 15.73Q106.68 15.33 106.82 15.04Q107.54 13.86 108.47 12.94Q109.41 12.02 109.81 11.76Q109.89 11.83 109.92 11.83Q109.94 11.83 109.96 11.83Q110.03 11.79 110.03 11.62L110.06 11.62Q110.17 11.73 110.21 11.73Q110.23 11.73 110.24 11.72Q110.25 11.71 110.26 11.69Q110.28 11.67 110.29 11.66Q110.3 11.66 110.32 11.66Q110.37 11.66 110.38 11.68Q110.39 11.69 110.39 11.69Q110.39 11.71 110.4 11.72Q110.41 11.73 110.42 11.73Q110.44 11.73 110.45 11.72Q110.51 11.71 110.55 11.66Q110.61 11.59 110.64 11.59Q110.66 11.59 110.67 11.59Q110.68 11.6 110.7 11.62Q110.71 11.64 110.72 11.65Q110.73 11.66 110.75 11.66L110.87 11.66Q110.97 11.66 111 11.62L111.04 11.59Q111.07 11.55 111.11 11.55Q111.14 11.55 111.14 11.56Q111.14 11.57 111.14 11.57Q111.14 11.57 111.14 11.58Q111.15 11.59 111.18 11.59Q111.24 11.59 111.25 11.6L111.25 11.61Q111.25 11.61 111.25 11.61Q111.26 11.62 111.28 11.62L111.5 11.47Q111.68 11.73 111.84 12.05Q112 12.38 112 12.7Q112 12.81 111.9 12.91Q111.86 12.95 111.81 13.03Q111.8 13.05 111.8 13.06Q111.81 13.11 111.93 13.13Q112.07 13.16 112.08 13.21Q112.09 13.24 112.04 13.28Q111.96 13.36 111.98 13.4Q111.99 13.42 112 13.42Q112.14 13.44 112.14 13.47Q112.14 13.5 112.04 13.53Q111.83 13.6 111.83 13.67Q111.83 13.71 111.9 13.74Q111.91 13.74 111.91 13.74Q111.96 13.77 111.88 14.01Q111.79 14.29 111.68 14.59Q111.57 14.9 111.54 15.01Q111.43 15.15 111.32 15.38Q111.21 15.61 111.21 15.73Q111.21 15.9 111.18 15.94Q111.17 15.95 111.16 15.95Q111.13 15.97 111.07 15.94Q111.04 15.92 111.01 15.93Q110.99 15.94 110.97 15.97Q110.39 16.77 109.81 17.55Q109.24 18.32 108.84 18.65Q108.77 18.68 108.66 18.75Q108.58 18.8 108.56 18.87Q108.55 18.9 108.55 18.93Q108.52 19.04 108.53 19.09Q108.54 19.1 108.53 19.11Q108.52 19.15 108.34 19.15L108.3 19.15Q108.18 19.17 108.18 19.2Q108.18 19.21 108.19 19.22Q108.2 19.22 108.2 19.23Q108.2 19.26 108.05 19.32Q108.03 19.33 108.01 19.33Q107.96 19.34 107.9 19.29Q107.85 19.24 107.81 19.24Q107.78 19.24 107.76 19.25Q107.4 19.51 107.07 19.56ZM61.9 20.04L62.11 20.04Q62.5 20.04 62.93 19.8Q63.37 19.54 63.84 18.86Q63.93 18.74 63.91 18.65Q63.9 18.63 63.89 18.61Q63.84 18.51 63.78 18.5Q63.78 18.5 63.77 18.5Q63.74 18.5 63.72 18.5Q63.64 18.52 63.58 18.6Q63 19.32 62.39 19.34Q62.29 19.34 62.19 19.32Q62.17 19.32 62.16 19.32Q62.13 19.31 62.11 19.29L62.04 19.25Q61.97 19.25 61.83 19.18Q61.79 19.18 61.71 19.11Q61.68 19.11 61.68 19.1Q61.67 19.08 61.71 19.04Q61.75 19 61.75 18.97Q61.74 18.94 61.69 18.91Q61.61 18.86 61.54 18.79L61.5 18.75Q61.54 18.68 61.54 18.46Q61.54 18.24 61.48 18Q61.43 17.74 61.35 17.63L61.35 17.6Q61.35 17.45 61.39 17.36Q61.43 17.27 61.43 17.13Q61.43 17.05 61.35 16.91L61.39 16.91Q61.46 16.91 61.48 16.88Q61.5 16.85 61.47 16.77Q61.39 16.59 61.39 16.26L61.5 15.61L61.48 15.61Q61.47 15.61 61.43 15.66L61.5 15.44L61.39 15.33L61.39 15.22Q61.43 15.22 61.45 15.2L61.47 15.18Q61.51 15.17 61.52 15.14Q61.55 15.09 61.43 14.97Q61.47 14.79 61.47 14.7L61.47 14.29L61.43 13.86Q61.43 13.79 61.47 13.75Q61.47 13.75 61.47 13.74Q61.49 13.7 61.32 13.57Q61.41 13.53 61.44 13.47Q61.47 13.4 61.43 13.31L61.35 13.03L61.28 12.81Q61.18 12.59 61.07 12.48Q60.9 12.3 60.69 12.2Q60.45 12.09 60.17 12.09Q59.73 12.09 59.44 12.23Q59.35 12.27 59.31 12.24Q59.31 12.23 59.3 12.23Q59.08 12.23 58.72 12.59Q58.65 12.65 58.58 12.69Q58.5 12.74 58.42 12.77Q58.26 12.84 58.22 12.95L58.19 13.17Q58.18 13.18 58.17 13.18Q58.14 13.19 58.1 13.13Q58.07 13.1 58.05 13.1Q58.02 13.1 58 13.13L57.79 13.28Q57.69 13.42 57.64 13.42Q57.61 13.42 57.47 13.5Q57.33 13.6 57.33 13.64Q57.18 13.74 57.05 13.86Q56.93 13.96 56.82 14.1Q56.8 14.09 56.78 14.1Q56.75 14.11 56.75 14.22Q56.75 14.28 56.73 14.29Q56.71 14.29 56.68 14.22L56.06 14.75Q56.03 14.75 55.94 14.9Q55.85 15.04 55.74 15.18Q55.6 15.33 55.48 15.38Q55.38 15.44 55.34 15.51Q55.23 15.68 55.26 15.72Q55.27 15.73 55.29 15.73Q55.34 15.73 55.39 15.74Q55.42 15.75 55.45 15.76L55.67 15.64Q55.89 15.51 55.92 15.47Q56.14 15.41 56.17 15.3Q56.18 15.28 56.18 15.26L56.28 15.22L56.53 14.9L56.53 14.9Q56.71 14.9 56.89 14.61L57.07 14.46Q57.14 14.49 57.18 14.47Q57.2 14.46 57.21 14.44Q57.25 14.36 57.25 14.32L57.36 14.22Q57.45 14.24 57.49 14.21Q57.5 14.21 57.5 14.2Q57.54 14.15 57.57 14.1L57.61 14.07Q57.69 14 57.69 13.96Q57.79 13.86 58 13.71Q58.09 13.76 58.12 13.73Q58.17 13.71 58.15 13.57Q58.15 13.56 58.16 13.55Q58.17 13.53 58.22 13.55Q58.28 13.56 58.29 13.54Q58.29 13.54 58.29 13.53L58.4 13.42Q58.55 13.35 58.64 13.33Q58.69 13.32 58.73 13.28Q58.75 13.26 58.76 13.24Q59.05 13.06 59.27 13.06Q59.35 13.06 59.42 13.1Q59.74 13.24 59.77 14.03Q59.77 14.65 59.82 15.6Q59.88 16.55 60.07 17.51Q60.27 18.46 60.65 19.16Q60.93 19.69 61.37 19.9Q61.51 19.97 61.68 20.01Q61.79 20.04 61.9 20.04ZM14.66 21.43Q14.62 21.45 14.56 21.45L14.51 21.41L13.96 21.41Q13.55 21.41 13.26 21.38Q13.17 21.38 13.11 21.35Q13.09 21.34 13.07 21.33Q13 21.27 12.97 21.27Q12.69 21.23 12.4 21.18Q12.11 21.12 11.82 21.09L11.75 21.09Q11.71 21.09 11.6 20.96Q11.49 20.83 11.42 20.8Q11.39 20.8 11.39 20.81Q11.39 20.81 11.39 20.82Q11.39 20.82 11.38 20.82Q11.38 20.83 11.35 20.83Q11.28 20.8 11.13 20.63Q10.99 20.47 10.96 20.4Q10.92 20.37 10.85 20.37Q10.85 20.3 10.81 20.23Q10.77 20.16 10.74 20.11Q10.74 20.07 10.72 20.04Q10.7 20.02 10.68 20.01Q10.63 19.97 10.59 19.94Q10.59 19.87 10.41 19.78Q10.23 19.68 10.23 19.65Q10.2 19.54 10.15 19.44Q10.09 19.32 10.06 19.22Q10.02 19.2 10 19.17Q9.98 19.14 9.98 19.09Q9.98 19.08 9.98 19.07Q9.97 18.99 9.91 18.93Q9.94 18.86 9.91 18.75Q9.87 18.65 9.87 18.6L9.94 18.39L9.98 18.36L10.01 18.36Q10.01 18.46 10.13 18.57Q10.27 18.6 10.43 18.77Q10.59 18.93 10.7 18.93L10.74 18.93Q10.74 18.92 10.74 18.92Q10.75 18.91 10.82 18.97Q10.92 19.04 10.96 19.04Q11.03 19.08 11.46 19.18Q11.89 19.29 11.93 19.4Q11.95 19.4 11.97 19.41Q12 19.43 12 19.51L12.33 19.58L12.34 19.59Q12.36 19.61 12.36 19.65Q12.4 19.61 12.41 19.61L12.43 19.61Q12.47 19.61 12.48 19.63Q12.5 19.65 12.54 19.65Q12.57 19.65 12.59 19.63Q12.61 19.61 12.64 19.61Q12.83 19.61 13.04 19.76Q13.26 19.9 13.48 19.9L13.8 19.9Q13.8 19.88 13.81 19.88Q13.82 19.87 13.84 19.87L13.91 19.94L13.98 19.94Q13.99 19.95 14.01 19.95Q14.07 19.96 14.14 19.92Q14.23 19.87 14.27 19.87L14.34 19.94Q14.37 19.94 14.39 19.92Q14.41 19.9 14.44 19.9L14.7 19.9Q14.71 19.91 14.72 19.92Q14.75 19.92 14.79 19.88Q14.84 19.83 14.88 19.83Q14.93 19.83 14.96 19.86Q14.97 19.87 14.97 19.88Q14.99 19.93 15.01 19.94Q15.02 19.94 15.02 19.94Q15.06 19.94 15.13 19.9Q15.2 19.87 15.24 19.87L15.27 19.9Q15.42 19.9 15.54 19.87Q15.55 19.87 15.56 19.86Q15.68 19.83 15.82 19.83L16.04 19.83L16.05 19.81Q16.07 19.8 16.07 19.76Q16.14 19.76 16.19 19.74Q16.22 19.73 16.24 19.74Q16.26 19.74 16.28 19.76L16.32 19.76Q16.5 19.76 17.09 19.71Q17.69 19.65 17.83 19.51Q17.91 19.54 17.96 19.52Q18.01 19.51 18.05 19.51Q18.08 19.51 18.24 19.42Q18.41 19.32 18.44 19.36Q18.55 19.36 18.58 19.32Q18.61 19.3 18.64 19.29Q18.65 19.29 18.66 19.29L18.7 19.25L18.84 19.32Q18.87 19.32 18.94 19.25Q18.98 19.25 19.53 19.13Q20.1 19.01 20.71 18.79Q20.2 19.3 19.59 19.67Q19.57 19.68 19.54 19.7Q18.91 20.08 18.8 20.08Q18.77 20.11 18.62 20.15Q18.48 20.19 18.41 20.26Q18.41 20.3 18.24 20.39Q18.08 20.47 18.05 20.52Q17.91 20.52 17.69 20.62Q17.65 20.66 17.54 20.68Q17.44 20.69 17.43 20.72Q17.43 20.73 17.43 20.73Q17.43 20.72 17.42 20.72Q17.39 20.71 17.31 20.8Q17.24 20.89 17.2 20.88Q17.19 20.88 17.19 20.87Q17.14 20.87 16.69 21.01Q16.25 21.16 16.11 21.16Q16.04 21.09 15.99 21.09Q15.9 21.09 15.87 21.13Q15.87 21.14 15.87 21.14Q15.86 21.16 15.85 21.17Q15.83 21.19 15.78 21.19Q15.75 21.23 15.65 21.23Q15.62 21.23 15.6 21.24Q15.55 21.26 15.53 21.34L15.35 21.34Q15.23 21.43 15.19 21.41Q15.17 21.39 15.17 21.33Q15.17 21.3 15.15 21.28Q15.1 21.24 14.92 21.34L14.77 21.34Q14.73 21.38 14.68 21.41Q14.67 21.42 14.66 21.43Z" fill="#000000" fill-opacity="1.000000" fill-rule="evenodd"/>
</svg>
