<svg width="203" height="47" viewBox="0 0 203 47" fill="none" xmlns="http://www.w3.org/2000/svg">
<g clip-path="url(#clip0_3_4)">
<path d="M202.797 39.4632C199.414 42.8456 191.294 43.1029 185.001 42.8088C173.565 42.0368 161.52 38.875 150.085 40.8603C149.543 40.2721 148.799 39.7574 147.852 39.3529C134.927 34.2794 114.695 38.1029 105.154 44.2059C113.139 40.9706 124.371 38.1029 135.198 38.6912C139.326 38.5809 145.077 39.6103 147.513 41.4118C143.656 42.3676 138.311 45.9338 144.265 47C150.085 47.3309 152.115 43.8382 150.288 41.2647C156.987 40.0147 166.054 41.5221 172.347 42.6618C181.347 44.2059 193.121 45.4191 200.835 41.5588C201.308 41.3382 203.744 39.4265 202.797 39.4632ZM147.04 45.4559C145.754 46.3382 142.371 46.0809 143.386 44.6838C144.536 43.3235 146.092 42.4044 148.055 41.7794C149.07 42.8088 149.002 44.0588 147.04 45.4559ZM56.9753 38.5809C55.216 39.0588 53.8627 39.9044 52.983 40.8603C36.54 37.7721 18.27 46.4853 2.70667 41.1544C1.55633 40.7132 0.879667 39.9779 0 39.4265C0.270667 40.9338 3.11267 42.2206 5.54867 42.9191C13.4657 44.9779 22.533 44.0221 30.5177 42.625C36.8783 41.4853 46.0133 39.9779 52.7123 41.2279C51.0883 43.4338 51.968 46.1176 56.7047 46.9632C65.2307 47.2206 60.291 42.4779 55.4867 41.375C57.855 39.5735 63.6067 38.5441 67.7343 38.6544C78.4933 38.2868 89.32 40.4559 97.5753 44.2794C89.523 38.3235 70.1703 34.9044 56.9753 38.5809ZM59.5467 44.6838C60.5617 46.0809 57.1783 46.3382 55.8927 45.4559C53.9303 44.0588 53.8627 42.8456 54.9453 41.8162C56.7723 42.4044 58.3963 43.3235 59.5467 44.6838ZM106.44 41.3015C104.477 42.3676 101.432 42.9926 101.432 42.9926C101.432 42.9926 98.3873 42.3676 96.425 41.3015C95.0717 40.5662 95.1393 40.125 95.6807 39.8676C96.222 39.6103 97.034 39.5735 98.3197 40.2721C99.47 40.8971 100.35 41.7059 100.823 42.2941C100.214 41.4853 99.3347 40.125 99.3347 38.8015C99.3347 37.4412 100.214 37.0368 101.365 37.0368C102.515 37.0368 103.395 37.4412 103.395 38.8015C103.395 40.0882 102.515 41.4853 101.906 42.2941C102.447 41.7059 103.327 40.8971 104.41 40.2721C105.763 39.5368 106.575 39.5735 107.049 39.8676C107.725 40.125 107.793 40.5662 106.44 41.3015Z" fill="black"/>
</g>
<path d="M19.2 15.84C20 15.84 20.68 15.4933 21.24 14.8C21.8267 14.08 22.2 13.2 22.36 12.16C21.3733 12.4267 20.5467 12.9333 19.88 13.68C19.2133 14.4 18.88 14.9467 18.88 15.32C18.88 15.6667 18.9867 15.84 19.2 15.84ZM2.44 32.36C2.46667 33.4267 3.49333 33.96 5.52 33.96C7.54667 33.96 9.41333 33.6533 11.12 33.04C7.78667 32.08 5.50667 31.6 4.28 31.6C3.05333 31.6 2.44 31.8533 2.44 32.36ZM22.4 11.68C22.4267 11.5733 22.44 11.24 22.44 10.68C22.44 10.12 22.28 9.46667 21.96 8.72C18.68 10.1067 15.88 12.1333 13.56 14.8C11.2667 17.44 10.12 19.7333 10.12 21.68C10.12 23.4933 11.1867 24.4 13.32 24.4C15.16 24.4 17.04 23.72 18.96 22.36C20.9067 21 22.44 19.48 23.56 17.8C24.7067 16.0933 25.28 14.6933 25.28 13.6C25.28 12.5067 24.7333 11.96 23.64 11.96C23.4267 11.96 23.2667 11.9733 23.16 12C22.9467 13.2533 22.44 14.32 21.64 15.2C20.8667 16.08 19.9333 16.52 18.84 16.52C18.12 16.52 17.76 16.2667 17.76 15.76C17.76 15.1467 18.2267 14.4133 19.16 13.56C20.0933 12.68 21.1733 12.0533 22.4 11.68ZM41.72 15.44C41.72 12.64 40.4533 10.5333 37.92 9.12C35.0133 11.3067 31.2 15.4667 26.48 21.6C24.8533 23.68 22.88 25.8 20.56 27.96C18.24 30.0933 15.9067 31.68 13.56 32.72C16.0933 33.4133 18.1067 33.76 19.6 33.76C22.3733 33.76 25.1467 33.1733 27.92 32C30.6933 30.8 33.0667 29.3067 35.04 27.52C37.0133 25.7333 38.6133 23.76 39.84 21.6C41.0933 19.4133 41.72 17.36 41.72 15.44ZM3.56 13.2C3.37333 13.52 3.18667 13.68 3 13.68C2.81333 13.68 2.72 13.5733 2.72 13.36C2.72 13.2267 2.77333 13.0667 2.88 12.88C4.16 11.0933 6.13333 9.34667 8.8 7.64C11.4933 5.93333 14.2 5.08 16.92 5.08C19.6667 5.08 21.5467 6.01333 22.56 7.88C24.8267 7.08 27.1067 6.68 29.4 6.68C32.9733 6.68 35.88 7.18667 38.12 8.2C40.4933 6.68 42.8 5.69333 45.04 5.24C45.2533 5.24 45.36 5.32 45.36 5.48C45.36 5.64 45.2667 5.73333 45.08 5.76C42.92 6.21333 40.8133 7.12 38.76 8.48C41.64 9.97333 43.08 12.2267 43.08 15.24C43.08 17.2667 42.4 19.4133 41.04 21.68C39.7067 23.9467 37.96 26.0267 35.8 27.92C33.6667 29.7867 31.0933 31.3467 28.08 32.6C25.0667 33.8267 22.04 34.44 19 34.44C17.2667 34.44 14.96 34.0667 12.08 33.32C9.92 34.04 7.70667 34.4 5.44 34.4C2.58667 34.4 1.16 33.76 1.16 32.48C1.16 31.4933 2.53333 31 5.28 31C6.82667 31 9.29333 31.4933 12.68 32.48C14.8667 31.4933 17.08 29.9467 19.32 27.84C21.56 25.7067 23.4933 23.5867 25.12 21.48C26.7733 19.3467 28.7067 17.0533 30.92 14.6C33.16 12.12 35.28 10.1733 37.28 8.76C35.1733 7.74667 32.4 7.24 28.96 7.24C26.96 7.24 24.9067 7.62667 22.8 8.4C23.12 9.12 23.28 9.77333 23.28 10.36C23.28 10.9467 23.2667 11.32 23.24 11.48C23.6667 11.4267 24.0133 11.4 24.28 11.4C25.8 11.4 26.56 12.04 26.56 13.32C26.56 14.2533 26.1333 15.4 25.28 16.76C24.4267 18.12 23.3467 19.4267 22.04 20.68C20.76 21.9333 19.2533 23 17.52 23.88C15.8133 24.76 14.2533 25.2 12.84 25.2C11.4267 25.2 10.4 24.92 9.76 24.36C9.12 23.7733 8.8 22.9867 8.8 22C8.8 19.8667 10.04 17.4 12.52 14.6C15.0267 11.7733 18.0933 9.64 21.72 8.2C20.7333 6.41333 19 5.52 16.52 5.52C14.04 5.52 11.4533 6.41333 8.76 8.2C6.06667 9.98667 4.33333 11.6533 3.56 13.2ZM39.2175 33.52C40.2575 33.52 41.4175 32.9867 42.6975 31.92C43.9775 30.8267 44.7242 29.8933 44.9375 29.12C44.9375 28.8 44.7375 28.5333 44.3375 28.32C43.9375 28.08 43.4842 27.96 42.9775 27.96C41.7508 27.96 40.6175 28.4933 39.5775 29.56C38.5642 30.6 38.0575 31.52 38.0575 32.32C38.0575 33.12 38.4442 33.52 39.2175 33.52ZM43.3375 27.32C44.2708 27.32 45.0442 27.6533 45.6575 28.32C45.6842 28.32 45.8975 28.12 46.2975 27.72C46.4842 27.4267 46.6975 27.28 46.9375 27.28C47.1775 27.28 47.2975 27.4 47.2975 27.64L47.1375 28C47.0575 28.1333 46.5242 28.7867 45.5375 29.96C44.5775 31.1333 44.0175 31.8267 43.8575 32.04C43.7242 32.2533 43.6575 32.5733 43.6575 33C43.6575 33.2933 43.8442 33.44 44.2175 33.44C44.9908 33.44 46.0842 32.8 47.4975 31.52C47.5775 31.4133 47.6575 31.36 47.7375 31.36C47.8442 31.36 47.8975 31.4267 47.8975 31.56C47.8975 31.88 47.3508 32.3867 46.2575 33.08C45.1908 33.7733 44.2308 34.12 43.3775 34.12C42.7908 34.12 42.4975 33.8133 42.4975 33.2C42.4975 32.9867 42.4575 32.88 42.3775 32.88C42.3242 32.88 42.2842 32.8933 42.2575 32.92C40.9242 33.8 39.6575 34.24 38.4575 34.24C37.2842 34.24 36.6975 33.7067 36.6975 32.64C36.6975 31.52 37.3642 30.36 38.6975 29.16C40.0308 27.9333 41.5775 27.32 43.3375 27.32ZM50.1263 34.44C48.1529 34.44 47.1663 33.8 47.1663 32.52C47.1663 31.3733 47.8596 30.2 49.2463 29C50.6329 27.7733 52.0729 27.16 53.5663 27.16C55.0863 27.16 55.8463 27.6533 55.8463 28.64C55.8463 29.2533 55.5396 29.8 54.9263 30.28C54.3129 30.76 53.7529 31 53.2463 31C52.7663 31 52.4063 30.9067 52.1663 30.72C51.9529 30.5067 51.8463 30.32 51.8463 30.16C51.8463 29.9733 51.9396 29.7733 52.1263 29.56C52.3396 29.32 52.5129 29.1867 52.6463 29.16C52.8863 29.16 53.0063 29.2667 53.0063 29.48C53.0063 29.5333 52.9796 29.6 52.9263 29.68C52.8729 29.7333 52.8463 29.9067 52.8463 30.2C52.8463 30.4133 52.9929 30.52 53.2863 30.52C53.6063 30.52 53.9263 30.3733 54.2463 30.08C54.5929 29.76 54.7663 29.3867 54.7663 28.96C54.7663 28.0533 54.2596 27.6 53.2463 27.6C52.2329 27.6 51.1796 28.1467 50.0863 29.24C48.9929 30.3067 48.4463 31.32 48.4463 32.28C48.4463 33.3467 49.2063 33.88 50.7263 33.88C52.8863 33.88 54.7263 33.0933 56.2463 31.52C56.3263 31.4133 56.4063 31.36 56.4863 31.36C56.5929 31.36 56.6463 31.44 56.6463 31.6C56.6463 31.7333 56.4329 32.0133 56.0063 32.44C55.5796 32.8667 54.8329 33.3067 53.7663 33.76C52.6996 34.2133 51.4863 34.44 50.1263 34.44ZM72.9684 15.64C72.9684 15.4533 72.8618 15.36 72.6484 15.36C71.7951 15.36 69.1818 17.8267 64.8084 22.76C66.8351 21.6667 68.7018 20.36 70.4084 18.84C72.1151 17.2933 72.9684 16.2267 72.9684 15.64ZM54.7284 34.04C54.5418 34.04 54.4484 33.9333 54.4484 33.72C54.4484 33.48 54.5551 33.28 54.7684 33.12C57.5151 29.7867 60.2218 26.64 62.8884 23.68C68.4618 17.5733 71.9951 14.52 73.4884 14.52C73.6484 14.52 73.8084 14.5867 73.9684 14.72C74.1284 14.8533 74.2084 15.0133 74.2084 15.2C74.2084 15.9733 73.1018 17.2933 70.8884 19.16C68.7018 21 66.3951 22.52 63.9684 23.72C62.9018 24.92 61.6351 26.3733 60.1684 28.08C61.4218 27.3067 62.4751 26.92 63.3284 26.92C63.7284 26.92 64.0484 27.0133 64.2884 27.2C64.5551 27.3867 64.7418 27.6667 64.8484 28.04C64.8484 28.6533 64.3284 29.5333 63.2884 30.68C62.2484 31.8 61.7284 32.5733 61.7284 33C61.7284 33.2933 61.9151 33.44 62.2884 33.44C63.0618 33.44 64.1551 32.8 65.5684 31.52C65.6484 31.4133 65.7284 31.36 65.8084 31.36C65.9151 31.36 65.9684 31.4267 65.9684 31.56C65.9684 31.88 65.4218 32.3867 64.3284 33.08C63.2618 33.7733 62.3018 34.12 61.4484 34.12C60.8618 34.12 60.5684 33.8267 60.5684 33.24C60.5684 32.6533 61.0751 31.8 62.0884 30.68C63.1018 29.5333 63.6084 28.7733 63.6084 28.4C63.6084 28.0267 63.2351 27.8533 62.4884 27.88C61.7684 27.88 60.6751 28.32 59.2084 29.2C56.9684 31.76 55.7684 33.12 55.6084 33.28C55.4484 33.44 55.3151 33.5733 55.2084 33.68C54.9951 33.92 54.8351 34.04 54.7284 34.04ZM67.7331 33.52C68.7731 33.52 69.9331 32.9867 71.2131 31.92C72.4931 30.8267 73.2398 29.8933 73.4531 29.12C73.4531 28.8 73.2531 28.5333 72.8531 28.32C72.4531 28.08 71.9998 27.96 71.4931 27.96C70.2665 27.96 69.1331 28.4933 68.0931 29.56C67.0798 30.6 66.5731 31.52 66.5731 32.32C66.5731 33.12 66.9598 33.52 67.7331 33.52ZM71.8531 27.32C72.7865 27.32 73.5598 27.6533 74.1731 28.32C74.1998 28.32 74.4131 28.12 74.8131 27.72C74.9998 27.4267 75.2131 27.28 75.4531 27.28C75.6931 27.28 75.8131 27.4 75.8131 27.64L75.6531 28C75.5731 28.1333 75.0398 28.7867 74.0531 29.96C73.0931 31.1333 72.5331 31.8267 72.3731 32.04C72.2398 32.2533 72.1731 32.5733 72.1731 33C72.1731 33.2933 72.3598 33.44 72.7331 33.44C73.5065 33.44 74.5998 32.8 76.0131 31.52C76.0931 31.4133 76.1731 31.36 76.2531 31.36C76.3598 31.36 76.4131 31.4267 76.4131 31.56C76.4131 31.88 75.8665 32.3867 74.7731 33.08C73.7065 33.7733 72.7465 34.12 71.8931 34.12C71.3065 34.12 71.0131 33.8133 71.0131 33.2C71.0131 32.9867 70.9731 32.88 70.8931 32.88C70.8398 32.88 70.7998 32.8933 70.7731 32.92C69.4398 33.8 68.1731 34.24 66.9731 34.24C65.7998 34.24 65.2131 33.7067 65.2131 32.64C65.2131 31.52 65.8798 30.36 67.2131 29.16C68.5465 27.9333 70.0931 27.32 71.8531 27.32ZM96.6772 17.6V17.64C97.7705 17.1067 98.6505 16.5733 99.3172 16.04C99.9839 15.48 100.317 15.0533 100.317 14.76C100.317 14.44 100.184 14.28 99.9172 14.28C99.3572 14.28 98.6772 14.6533 97.8772 15.4C97.0772 16.12 96.6772 16.8533 96.6772 17.6ZM101.677 14.28C101.677 14.8667 101.224 15.5333 100.317 16.28C99.4105 17 98.2372 17.6667 96.7972 18.28C97.1172 18.92 97.8505 19.24 98.9972 19.24C100.704 19.24 102.611 18.68 104.717 17.56C106.824 16.44 108.597 15.1067 110.037 13.56C111.504 11.9867 112.237 10.6133 112.237 9.44C112.237 7.70667 110.597 6.84 107.317 6.84C104.064 6.84 100.664 8.09333 97.1172 10.6C93.5705 13.08 90.5572 16.08 88.0772 19.6H88.4372C90.7839 19.6 93.2105 19.08 95.7172 18.04V17.72C95.7172 16.8133 96.3439 15.88 97.5972 14.92C98.8505 13.96 99.9172 13.48 100.797 13.48C101.384 13.48 101.677 13.7467 101.677 14.28ZM88.9972 12.84L87.9972 12.76C87.3572 12.76 86.6772 13.2267 85.9572 14.16C85.2372 15.0933 84.8772 15.8933 84.8772 16.56C84.8772 18.0533 85.5839 19.0267 86.9972 19.48C89.6905 15.7467 93.0105 12.5733 96.9572 9.96C100.931 7.32 104.837 6 108.677 6C111.744 6 113.277 6.92 113.277 8.76C113.277 10.0933 112.517 11.6533 110.997 13.44C109.477 15.2 107.544 16.7333 105.197 18.04C102.851 19.32 100.637 19.96 98.5572 19.96C97.1972 19.96 96.3039 19.52 95.8772 18.64C93.1572 19.7067 90.6239 20.24 88.2772 20.24H87.6372C85.2372 23.76 84.0372 26.8133 84.0372 29.4C84.0372 30.8667 84.4905 32.0267 85.3972 32.88C86.3305 33.7067 87.7572 34.12 89.6772 34.12C92.8505 34.12 95.7972 33.2667 98.5172 31.56C99.1572 31.16 99.6372 30.8267 99.9572 30.56L100.437 30.16C100.517 30.1067 100.637 30.08 100.797 30.08C100.957 30.08 101.037 30.1733 101.037 30.36C101.037 30.52 100.917 30.68 100.677 30.84C97.2905 33.5067 93.3972 34.84 88.9972 34.84C86.8905 34.84 85.3172 34.3867 84.2772 33.48C83.2639 32.5467 82.7572 31.28 82.7572 29.68C82.7572 26.96 84.0239 23.7733 86.5572 20.12C84.7172 19.56 83.7972 18.4667 83.7972 16.84C83.7972 15.6933 84.3572 14.5867 85.4772 13.52C86.5972 12.4267 87.6239 11.88 88.5572 11.88C89.0905 11.88 89.3572 12.04 89.3572 12.36C89.3572 12.68 89.2372 12.84 88.9972 12.84ZM105.78 25.56C105.594 25.56 105.5 25.5067 105.5 25.4C105.5 25.2667 105.794 25.1467 106.38 25.04C106.967 24.9333 107.474 24.64 107.9 24.16C108.354 23.6533 108.674 23.4 108.86 23.4C109.074 23.4 109.207 23.48 109.26 23.64C109.34 23.7733 109.394 23.9467 109.42 24.16C109.5 24.6667 109.9 25.08 110.62 25.4C110.7 25.4267 110.74 25.4667 110.74 25.52C110.74 25.5733 110.687 25.64 110.58 25.72C110.5 25.8 110.407 25.84 110.3 25.84C109.714 25.84 109.18 25.3867 108.7 24.48C107.634 25.2 106.66 25.56 105.78 25.56ZM106.98 27.44C106.98 28.5333 107.42 29.1867 108.3 29.4C108.327 29.2667 108.34 29 108.34 28.6C108.34 28.1733 108.234 27.8267 108.02 27.56C107.807 27.2667 107.58 27.12 107.34 27.12C107.1 27.12 106.98 27.2267 106.98 27.44ZM108.14 30C106.834 29.8667 106.14 29.1467 106.06 27.84C105.154 27.8667 104.3 28.3733 103.5 29.36C102.727 30.32 102.34 31.24 102.34 32.12C102.34 33.1067 102.86 33.6 103.9 33.6C104.594 33.6 105.394 33.2533 106.3 32.56C107.207 31.84 107.82 30.9867 108.14 30ZM100.98 32.44C100.98 31.3733 101.54 30.24 102.66 29.04C103.807 27.84 104.967 27.2267 106.14 27.2C106.38 26.6933 106.78 26.44 107.34 26.44C107.927 26.44 108.38 26.6133 108.7 26.96C109.047 27.28 109.22 27.7067 109.22 28.24C109.22 28.7467 109.167 29.16 109.06 29.48C109.834 29.48 110.7 29.2933 111.66 28.92C112.62 28.5467 113.194 28.2667 113.38 28.08L113.58 28.28C113.58 28.3333 113.474 28.4533 113.26 28.64C113.047 28.8267 112.474 29.0933 111.54 29.44C110.607 29.7867 109.727 29.9733 108.9 30C108.474 31.12 107.727 32.1067 106.66 32.96C105.594 33.7867 104.487 34.2 103.34 34.2C101.767 34.2 100.98 33.6133 100.98 32.44ZM118.336 20.96C118.683 20.5867 118.989 20.4 119.256 20.4C119.549 20.4 119.696 20.48 119.696 20.64V20.76C119.696 20.92 119.469 21.2 119.016 21.6C118.589 21.9733 117.536 23.16 115.856 25.16H119.176C119.496 25.16 119.656 25.24 119.656 25.4C119.656 25.6133 119.336 25.72 118.696 25.72H115.376C112.336 29.3467 110.816 31.56 110.816 32.36C110.816 32.9467 111.136 33.24 111.776 33.24C111.989 33.24 112.336 33.1733 112.816 33.04C113.669 32.6933 114.296 32.3333 114.696 31.96C115.096 31.56 115.336 31.36 115.416 31.36C115.523 31.36 115.576 31.44 115.576 31.6C115.576 31.76 115.336 32.0533 114.856 32.48C114.376 32.88 113.776 33.24 113.056 33.56C112.336 33.88 111.683 34.04 111.096 34.04C110.216 34.04 109.776 33.5867 109.776 32.68C109.776 31.7733 111.309 29.44 114.376 25.68C113.229 25.68 112.443 25.68 112.016 25.68C111.616 25.6533 111.416 25.5733 111.416 25.44C111.416 25.28 111.643 25.1733 112.096 25.12H114.856C116.829 22.72 117.989 21.3333 118.336 20.96ZM117.997 25.76C117.997 25.68 118.17 25.6 118.517 25.52C119.823 25.2 120.863 24.6133 121.637 23.76C121.93 23.4667 122.197 23.32 122.437 23.32C122.703 23.32 122.837 23.44 122.837 23.68C122.837 24.1067 122.25 24.6 121.077 25.16C119.903 25.6933 118.97 25.96 118.277 25.96C118.09 25.96 117.997 25.8933 117.997 25.76ZM115.557 31.92V32.2C118.543 31.0533 120.037 29.9067 120.037 28.76C120.037 28.1733 119.663 27.88 118.917 27.88C118.197 27.88 117.45 28.3333 116.677 29.24C115.93 30.1467 115.557 31.04 115.557 31.92ZM121.037 28.44C121.037 30.04 119.25 31.4267 115.677 32.6C115.89 33.2133 116.477 33.52 117.437 33.52C119.063 33.52 120.61 32.8533 122.077 31.52C122.157 31.4133 122.237 31.36 122.317 31.36C122.423 31.36 122.477 31.4533 122.477 31.64C122.477 31.8 122.237 32.08 121.757 32.48C121.277 32.88 120.597 33.2667 119.717 33.64C118.837 34.0133 117.97 34.2 117.117 34.2C115.303 34.2 114.397 33.5333 114.397 32.2C114.397 31.1067 114.943 30 116.037 28.88C117.157 27.76 118.357 27.2 119.637 27.2C120.57 27.2 121.037 27.6133 121.037 28.44ZM145.333 15.84C146.133 15.84 146.813 15.4933 147.373 14.8C147.959 14.08 148.333 13.2 148.493 12.16C147.506 12.4267 146.679 12.9333 146.013 13.68C145.346 14.4 145.013 14.9467 145.013 15.32C145.013 15.6667 145.119 15.84 145.333 15.84ZM128.573 32.36C128.599 33.4267 129.626 33.96 131.653 33.96C133.679 33.96 135.546 33.6533 137.253 33.04C133.919 32.08 131.639 31.6 130.413 31.6C129.186 31.6 128.573 31.8533 128.573 32.36ZM148.533 11.68C148.559 11.5733 148.573 11.24 148.573 10.68C148.573 10.12 148.413 9.46667 148.093 8.72C144.813 10.1067 142.013 12.1333 139.693 14.8C137.399 17.44 136.253 19.7333 136.253 21.68C136.253 23.4933 137.319 24.4 139.453 24.4C141.293 24.4 143.173 23.72 145.093 22.36C147.039 21 148.573 19.48 149.693 17.8C150.839 16.0933 151.413 14.6933 151.413 13.6C151.413 12.5067 150.866 11.96 149.773 11.96C149.559 11.96 149.399 11.9733 149.293 12C149.079 13.2533 148.573 14.32 147.773 15.2C146.999 16.08 146.066 16.52 144.973 16.52C144.253 16.52 143.893 16.2667 143.893 15.76C143.893 15.1467 144.359 14.4133 145.293 13.56C146.226 12.68 147.306 12.0533 148.533 11.68ZM167.853 15.44C167.853 12.64 166.586 10.5333 164.053 9.12C161.146 11.3067 157.333 15.4667 152.613 21.6C150.986 23.68 149.013 25.8 146.693 27.96C144.373 30.0933 142.039 31.68 139.693 32.72C142.226 33.4133 144.239 33.76 145.733 33.76C148.506 33.76 151.279 33.1733 154.053 32C156.826 30.8 159.199 29.3067 161.173 27.52C163.146 25.7333 164.746 23.76 165.973 21.6C167.226 19.4133 167.853 17.36 167.853 15.44ZM129.693 13.2C129.506 13.52 129.319 13.68 129.133 13.68C128.946 13.68 128.853 13.5733 128.853 13.36C128.853 13.2267 128.906 13.0667 129.013 12.88C130.293 11.0933 132.266 9.34667 134.933 7.64C137.626 5.93333 140.333 5.08 143.053 5.08C145.799 5.08 147.679 6.01333 148.693 7.88C150.959 7.08 153.239 6.68 155.533 6.68C159.106 6.68 162.013 7.18667 164.253 8.2C166.626 6.68 168.933 5.69333 171.173 5.24C171.386 5.24 171.493 5.32 171.493 5.48C171.493 5.64 171.399 5.73333 171.213 5.76C169.053 6.21333 166.946 7.12 164.893 8.48C167.773 9.97333 169.213 12.2267 169.213 15.24C169.213 17.2667 168.533 19.4133 167.173 21.68C165.839 23.9467 164.093 26.0267 161.933 27.92C159.799 29.7867 157.226 31.3467 154.213 32.6C151.199 33.8267 148.173 34.44 145.133 34.44C143.399 34.44 141.093 34.0667 138.213 33.32C136.053 34.04 133.839 34.4 131.573 34.4C128.719 34.4 127.293 33.76 127.293 32.48C127.293 31.4933 128.666 31 131.413 31C132.959 31 135.426 31.4933 138.813 32.48C140.999 31.4933 143.213 29.9467 145.453 27.84C147.693 25.7067 149.626 23.5867 151.253 21.48C152.906 19.3467 154.839 17.0533 157.053 14.6C159.293 12.12 161.413 10.1733 163.413 8.76C161.306 7.74667 158.533 7.24 155.093 7.24C153.093 7.24 151.039 7.62667 148.933 8.4C149.253 9.12 149.413 9.77333 149.413 10.36C149.413 10.9467 149.399 11.32 149.373 11.48C149.799 11.4267 150.146 11.4 150.413 11.4C151.933 11.4 152.693 12.04 152.693 13.32C152.693 14.2533 152.266 15.4 151.413 16.76C150.559 18.12 149.479 19.4267 148.173 20.68C146.893 21.9333 145.386 23 143.653 23.88C141.946 24.76 140.386 25.2 138.973 25.2C137.559 25.2 136.533 24.92 135.893 24.36C135.253 23.7733 134.933 22.9867 134.933 22C134.933 19.8667 136.173 17.4 138.653 14.6C141.159 11.7733 144.226 9.64 147.853 8.2C146.866 6.41333 145.133 5.52 142.653 5.52C140.173 5.52 137.586 6.41333 134.893 8.2C132.199 9.98667 130.466 11.6533 129.693 13.2ZM165.35 33.52C166.39 33.52 167.55 32.9867 168.83 31.92C170.11 30.8267 170.857 29.8933 171.07 29.12C171.07 28.8 170.87 28.5333 170.47 28.32C170.07 28.08 169.617 27.96 169.11 27.96C167.884 27.96 166.75 28.4933 165.71 29.56C164.697 30.6 164.19 31.52 164.19 32.32C164.19 33.12 164.577 33.52 165.35 33.52ZM169.47 27.32C170.404 27.32 171.177 27.6533 171.79 28.32C171.817 28.32 172.03 28.12 172.43 27.72C172.617 27.4267 172.83 27.28 173.07 27.28C173.31 27.28 173.43 27.4 173.43 27.64L173.27 28C173.19 28.1333 172.657 28.7867 171.67 29.96C170.71 31.1333 170.15 31.8267 169.99 32.04C169.857 32.2533 169.79 32.5733 169.79 33C169.79 33.2933 169.977 33.44 170.35 33.44C171.124 33.44 172.217 32.8 173.63 31.52C173.71 31.4133 173.79 31.36 173.87 31.36C173.977 31.36 174.03 31.4267 174.03 31.56C174.03 31.88 173.484 32.3867 172.39 33.08C171.324 33.7733 170.364 34.12 169.51 34.12C168.924 34.12 168.63 33.8133 168.63 33.2C168.63 32.9867 168.59 32.88 168.51 32.88C168.457 32.88 168.417 32.8933 168.39 32.92C167.057 33.8 165.79 34.24 164.59 34.24C163.417 34.24 162.83 33.7067 162.83 32.64C162.83 31.52 163.497 30.36 164.83 29.16C166.164 27.9333 167.71 27.32 169.47 27.32ZM185.459 28.08C186.259 28 186.659 27.8533 186.659 27.64C186.659 27.4 186.566 27.28 186.379 27.28C185.819 27.28 185.219 27.5333 184.579 28.04C184.766 28.0667 185.059 28.08 185.459 28.08ZM176.819 33.64C175.832 33.24 175.059 33.04 174.499 33.04C173.966 33.04 173.646 33.16 173.539 33.4C173.539 33.8533 173.912 34.08 174.659 34.08C175.432 34.08 176.152 33.9333 176.819 33.64ZM193.299 37C193.539 36.84 193.726 36.76 193.859 36.76C193.992 36.76 194.059 36.8667 194.059 37.08C194.059 37.2933 193.872 37.48 193.499 37.64C191.846 38.28 190.392 38.6 189.139 38.6C187.886 38.6 186.606 38.36 185.299 37.88C184.019 37.4 182.526 36.68 180.819 35.72C179.112 34.7867 178.019 34.2 177.539 33.96C176.392 34.4133 175.459 34.64 174.739 34.64C174.019 34.64 173.472 34.5467 173.099 34.36C172.726 34.1733 172.539 33.96 172.539 33.72C172.539 33.1067 173.112 32.7333 174.259 32.6C174.979 32.6 176.006 32.8533 177.339 33.36C178.166 32.9067 179.259 32.0267 180.619 30.72C181.979 29.4133 182.846 28.6133 183.219 28.32C182.259 28.16 181.152 27.8133 179.899 27.28C178.646 26.7467 177.752 26.48 177.219 26.48C176.686 26.48 176.259 26.6 175.939 26.84C175.646 27.08 175.499 27.4133 175.499 27.84C175.499 28.2667 175.712 28.6933 176.139 29.12C176.592 29.52 177.072 29.72 177.579 29.72C178.112 29.72 178.552 29.68 178.899 29.6C179.246 29.52 179.459 29.48 179.539 29.48C179.646 29.48 179.699 29.52 179.699 29.6C179.699 29.6533 179.659 29.7067 179.579 29.76C178.512 29.9733 177.712 30.08 177.179 30.08C176.646 30.08 176.099 29.9067 175.539 29.56C174.979 29.1867 174.699 28.68 174.699 28.04C174.699 27.3733 174.979 26.8667 175.539 26.52C176.099 26.1733 176.739 26 177.459 26C178.179 26 179.219 26.28 180.579 26.84C181.966 27.4 183.019 27.76 183.739 27.92C184.726 27.2 185.619 26.84 186.419 26.84C187.246 26.84 187.659 27.0267 187.659 27.4C187.659 27.6933 187.352 27.9467 186.739 28.16C186.126 28.3467 185.592 28.44 185.139 28.44C184.686 28.44 184.352 28.4267 184.139 28.4C183.792 28.6933 183.259 29.2267 182.539 30C180.886 31.7867 179.406 33.0133 178.099 33.68C178.739 33.9467 179.912 34.4933 181.619 35.32C183.352 36.1733 184.819 36.8133 186.019 37.24C187.219 37.6933 188.472 37.92 189.779 37.92C191.112 37.92 192.286 37.6133 193.299 37ZM189.805 33.2C189.805 32.7733 189.951 32.32 190.245 31.84C190.245 31.8133 190.245 31.7867 190.245 31.76C190.245 31.7333 190.231 31.7333 190.205 31.76C188.418 33.28 186.938 34.04 185.765 34.04C184.991 34.04 184.605 33.7733 184.605 33.24C184.605 32.7067 184.978 31.9467 185.725 30.96C186.471 29.9467 187.218 29.0533 187.965 28.28C188.738 27.5067 189.098 27.1733 189.045 27.28C189.178 27.1467 189.338 27.08 189.525 27.08C189.711 27.08 189.805 27.1733 189.805 27.36C189.805 27.52 189.725 27.68 189.565 27.84C189.405 28 189.098 28.3333 188.645 28.84C188.218 29.32 187.871 29.7067 187.605 30C187.365 30.2933 187.071 30.64 186.725 31.04C186.085 31.8667 185.765 32.4667 185.765 32.84C185.765 33.1333 185.978 33.28 186.405 33.28C186.831 33.28 187.431 33.0267 188.205 32.52C188.978 32.0133 189.645 31.4933 190.205 30.96L191.045 30.2C192.165 29.2133 192.925 28.4267 193.325 27.84C193.565 27.5467 193.805 27.4 194.045 27.4C194.285 27.4 194.405 27.4933 194.405 27.68C194.405 27.84 194.058 28.28 193.365 29C191.978 30.4667 191.231 31.32 191.125 31.56C190.858 32.1733 190.725 32.5867 190.725 32.8C190.725 33.2267 191.045 33.44 191.685 33.44C192.351 33.44 193.391 32.8 194.805 31.52C194.885 31.4133 194.965 31.36 195.045 31.36C195.151 31.36 195.205 31.4267 195.205 31.56C195.205 31.88 194.658 32.3867 193.565 33.08C192.498 33.7733 191.538 34.12 190.685 34.12C190.098 34.12 189.805 33.8133 189.805 33.2ZM201.026 30.44C201.266 30.44 201.573 30.3333 201.946 30.12C202.08 30.12 202.146 30.1733 202.146 30.28C202.146 30.36 202.106 30.4267 202.026 30.48C201.973 30.5333 201.733 30.6267 201.306 30.76C200.88 30.8933 200.533 30.96 200.266 30.96C199.386 30.96 198.946 30.68 198.946 30.12C198.946 29.9067 199 29.68 199.106 29.44C199.24 29.2 199.306 29.04 199.306 28.96C199.306 28.88 199.28 28.84 199.226 28.84C198.693 29.0267 197.92 29.4933 196.906 30.24L194.066 33.8C193.853 34.0667 193.653 34.2 193.466 34.2C193.253 34.2 193.146 34.1333 193.146 34C193.146 33.8667 193.24 33.6533 193.426 33.36L195.946 30.2C196.133 29.96 196.48 29.5067 196.986 28.84C197.493 28.1733 197.786 27.7733 197.866 27.64C197.973 27.5067 198.16 27.44 198.426 27.44C198.72 27.44 198.866 27.4933 198.866 27.6C198.866 27.7067 198.84 27.7867 198.786 27.84L198.226 28.64C198.146 28.7467 198.053 28.8533 197.946 28.96C198.186 28.9067 199.146 28.4267 200.826 27.52C200.88 27.4933 200.973 27.48 201.106 27.48C201.24 27.48 201.306 27.52 201.306 27.6C201.306 27.6533 201.28 27.72 201.226 27.8C201.2 27.8533 201.066 28.0267 200.826 28.32C200.346 28.9067 200.106 29.3467 200.106 29.64C200.106 30.1733 200.413 30.44 201.026 30.44Z" fill="black"/>
<defs>
<clipPath id="clip0_3_4">
<rect width="203" height="10" fill="white" transform="translate(0 37)"/>
</clipPath>
</defs>
</svg>
