<?xml version="1.0" encoding="utf-8"?><svg viewBox="0 0 24 24" xmlns="http://www.w3.org/2000/svg" xmlns:xlink="http://www.w3.org/1999/xlink"><style>:root>svg{display:none}:root>svg:target{display:block}</style><svg fill="none" viewBox="0 0 11 18" id="facebook" xmlns="http://www.w3.org/2000/svg"><path d="M7.146 17.426V9.49h3.258l.484-3.107H7.146v-1.98c0-.896.304-1.51 1.87-1.51H11V.123A31.975 31.975 0 0 0 8.093 0c-2.88 0-4.856 1.445-4.856 4.097v2.28H0v3.107h3.244v7.942h3.902Z" fill="#fff"/></svg><svg fill="none" viewBox="0 0 24 24" id="instagram" xmlns="http://www.w3.org/2000/svg"><path d="M11.999 7.377a4.624 4.624 0 1 0 0 9.248 4.624 4.624 0 0 0 0-9.248Zm0 7.627a3.004 3.004 0 1 1 0-6.008 3.004 3.004 0 0 1 0 6.008ZM16.806 8.285a1.078 1.078 0 1 0 0-2.156 1.078 1.078 0 0 0 0 2.156Z" fill="#fff"/><path d="M20.533 6.11A4.605 4.605 0 0 0 17.9 3.48a6.606 6.606 0 0 0-2.186-.42c-.963-.042-1.268-.054-3.71-.054s-2.755 0-3.71.054a6.554 6.554 0 0 0-2.184.42A4.6 4.6 0 0 0 3.477 6.11a6.585 6.585 0 0 0-.419 2.186c-.043.962-.056 1.267-.056 3.71 0 2.442 0 2.753.056 3.71.015.748.156 1.486.419 2.187a4.61 4.61 0 0 0 2.634 2.632 6.584 6.584 0 0 0 2.185.45c.963.042 1.268.055 3.71.055s2.755 0 3.71-.055a6.616 6.616 0 0 0 2.186-.42 4.614 4.614 0 0 0 2.633-2.632c.263-.7.404-1.438.419-2.186.043-.962.056-1.267.056-3.71s0-2.753-.056-3.71a6.58 6.58 0 0 0-.421-2.217Zm-1.218 9.533a5.041 5.041 0 0 1-.311 1.688 2.988 2.988 0 0 1-1.712 1.71c-.535.2-1.1.305-1.67.312-.95.044-1.218.055-3.654.055-2.438 0-2.687 0-3.655-.055a4.961 4.961 0 0 1-1.669-.311 2.984 2.984 0 0 1-1.719-1.711 5.08 5.08 0 0 1-.311-1.67c-.043-.95-.053-1.217-.053-3.653 0-2.437 0-2.686.053-3.655a5.038 5.038 0 0 1 .311-1.687c.305-.79.93-1.41 1.719-1.712a5.01 5.01 0 0 1 1.669-.311c.951-.043 1.218-.055 3.655-.055s2.687 0 3.654.055a4.96 4.96 0 0 1 1.67.31 2.991 2.991 0 0 1 1.712 1.713c.197.535.302 1.099.311 1.669.043.95.054 1.218.054 3.655 0 2.436 0 2.698-.043 3.654h-.011v-.001Z" fill="#fff"/></svg><svg fill="none" viewBox="0 0 20 15" id="twitter" xmlns="http://www.w3.org/2000/svg"><path d="M17.945 4.395c.014.153.014.305.014.457 0 4.65-4.125 10.01-11.663 10.01-2.323 0-4.48-.578-6.296-1.58.33.032.647.043.99.043 1.845.004 3.638-.526 5.09-1.503a4.567 4.567 0 0 1-2.372-.693c-.688-.437-1.199-1.048-1.462-1.746.253.032.508.054.775.054.367 0 .736-.044 1.08-.12-.93-.16-1.764-.593-2.363-1.222-.6-.63-.926-1.417-.925-2.23V5.82c.547.261 1.18.425 1.852.446A3.775 3.775 0 0 1 1.322 5a3.124 3.124 0 0 1-.484-1.662c0-.653.202-1.252.557-1.775C2.425 2.651 3.71 3.54 5.166 4.175c1.456.634 3.052.998 4.682 1.07a3.455 3.455 0 0 1-.101-.806c0-.462.105-.92.311-1.347.206-.427.508-.815.889-1.141.38-.327.832-.586 1.33-.763a4.691 4.691 0 0 1 1.569-.267c1.18 0 2.246.424 2.995 1.11a8.953 8.953 0 0 0 2.601-.85c-.306.814-.946 1.503-1.802 1.94A9.306 9.306 0 0 0 20 2.576a8.232 8.232 0 0 1-2.055 1.819Z" fill="#fff"/></svg></svg>