<?xml version="1.0" encoding="utf-8"?><svg viewBox="0 0 203 47" xmlns="http://www.w3.org/2000/svg" xmlns:xlink="http://www.w3.org/1999/xlink"><style>:root>svg{display:none}:root>svg:target{display:block}</style><svg fill="none" viewBox="0 0 131.269 31.942" id="logo" xmlns="http://www.w3.org/2000/svg"><defs><clipPath id="aa"><path transform="translate(0 23.942)" fill="#fff" fill-opacity="0" d="M0 0h131v8H0z"/></clipPath></defs><g clip-path="url(#aa)"><path d="M130.54 25.85c-2.17 2.63-7.4 2.83-11.45 2.6-7.36-.6-15.12-3.06-22.48-1.51-.35-.46-.83-.86-1.44-1.17-8.32-3.95-21.34-.98-27.48 3.77 5.14-2.52 12.37-4.75 19.34-4.29 2.65-.08 6.36.72 7.92 2.11-2.48.75-5.92 3.52-2.09 4.35 3.75.25 5.06-2.46 3.88-4.46 4.31-.97 10.15.2 14.2 1.09 5.8 1.2 13.37 2.14 18.34-.86.31-.17 1.87-1.66 1.26-1.63Zm-35.89 4.66c-.83.68-3.01.48-2.35-.6.74-1.06 1.74-1.77 3-2.26.66.8.61 1.77-.65 2.86Zm-57.98-5.34c-1.13.37-2 1.02-2.57 1.77-10.58-2.4-22.34 4.37-32.36.22C1 26.82.56 26.25 0 25.82c.17 1.17 2 2.17 3.57 2.72 5.09 1.6 10.93.85 16.07-.23 4.1-.89 9.98-2.06 14.29-1.09-1.05 1.72-.48 3.8 2.57 4.46 5.49.2 2.31-3.49-.79-4.34 1.53-1.4 5.23-2.2 7.89-2.12 6.92-.28 13.89 1.4 19.21 4.37-5.19-4.62-17.64-7.28-26.14-4.42Zm1.66 4.74c.65 1.08-1.53 1.28-2.35.6-1.27-1.09-1.31-2.03-.61-2.83 1.17.46 2.22 1.17 2.96 2.23Zm30.18-2.63c-1.26.83-3.22 1.31-3.22 1.31s-1.96-.48-3.22-1.31c-.87-.57-.83-.91-.48-1.11.35-.2.87-.23 1.7.31.74.48 1.3 1.11 1.61 1.57-.39-.63-.96-1.68-.96-2.71 0-1.06.57-1.37 1.31-1.37.74 0 1.3.31 1.3 1.37 0 1-.56 2.08-.95 2.71.34-.46.91-1.09 1.61-1.57.87-.57 1.39-.54 1.7-.31.43.2.48.54-.4 1.11Z" fill="#000"/></g><path d="M50.88 20.93q.02.15.07.3.05.11.11.12.09.02.21-.14.22-.26.26-.3.1-.15.21-.2.11-.05.25-.19.08-.08.17-.32.09-.23.19-.3.04-.02.06-.06.03-.06-.01-.17-.05-.16-.01-.2 0-.03.01-.04.02-.01.07.01.1.03.14.03.07-.03.12-.1.06-.08.1-.15l.36-.76q.04-.05.04-.09 0-.03-.01-.05-.03-.07-.01-.1l.01-.01q.06-.06.13-.08.01-.01.03-.01.01 0 .02-.01.07-.03.1-.15 0-.04.09-.09.06-.03.09-.08.03-.04.04-.09.04-.07.06-.17.01-.12.05-.15.18-.14.24-.11.01.01.03.01.03 0 .05-.08 0-.03.13-.21t.2-.26q.14-.18.17-.28.01-.01.01-.02.05-.1.18-.17.18-.12.17-.2 0-.01-.01-.02-.03-.06-.08-.08-.03-.02-.08-.02h-.07l-.51.22q-.18.09-.36.1h-.07q-.16 0-.23-.08-.05-.06-.05-.16 0-.19.07-.29.14-.29.26-.64.13-.34.38-.77.72-1.29 1.37-2.37.65-1.08 1.37-2.2.5-.72 1-1.26.51-.54.94-1.12.07-.07.13-.3.05-.24.09-.27.04-.04.07-.04.02.01.04.04.02.04.05.04.01 0 .02-.01.1-.14.16-.38.06-.23.16-.34.02-.03.04-.03t.03.03q.03.05.05.05.01 0 .03-.01.32-.4.65-1.05.68-.82 1.42-1.72.74-.91 1.7-1.64.98-.73 2.27-1.06.08 0 .26-.03.18-.05.22-.05.28-.07.37.03.09.09.35.09h.1q.18 0 .34-.04.16-.03.31-.03.07.03.14.1t.14.07q.05 0 .09.01.03.01.06.03.06.02.09.01.01-.01.02-.01.04-.03.06-.07.03-.06.01-.14-.01-.04-.03-.08-.05-.09-.18-.14-.22-.07-.36-.07-.15-.07-.34-.15-.17-.07-.35-.07h-.07q-.25-.07-.52-.11Q66.29 0 66 0q-.79 0-2.25.68-.55.26-1.07.56-.86.5-1.65 1.13-.07.07-.07.24 0 .15-.07.22-.26.22-.51.34-.25.1-.46.35-.15.18-.28.37-.13.17-.23.35-.25.26-.34.31l-.16.09q-.07.03-.26.32-.03.11-.01.24 0 .05-.01.11t-.05.12q-.1.15-.23.23-.02.02-.04.03-.1.09-.16.21-.22.54-.65 1-.07.07-.14.15-.07.07-.15.14-.24.26-.43 1.01l-.1.04q-.23.09-.28.24-.01.03-.01.05.03.14.05.25.02.11.02.18 0 .13-.06.16-.02.02-.05.02-.03 0-.05-.02-.02-.02-.09-.02-.08 0-.18.14-.14.26-.31.48-.09.12-.13.26-.03.1-.03.2v.07q.03.04-.08.2-.1.16-.25.38h-.03q-.07.04-.22.36-.19.33-.15.36h.01q-.02.12 0 .13.01 0 .03-.02-.03.07-.05.14-.02.07-.02.15-.14.28-.27.39-.12.11-.27.4-.04.1-.05.2-.02.09-.02.19v.18q-.36.84-.74 1.43t-.55.99q-.15.17-.44.81-.28.63-.52 1.19l-.23.56q-.08.07-.24.57-.16.5-.32.97t-.2.57q-.03.12-.05.21-.02.08-.02.19v.13ZM8.17 22.51q.04.02.09.02h.03q.12-.03.18-.29.18-.57.41-1.26.24-.68.56-1.4l.07.22q.04 0 .07.02.04.03.04.12l.11.07h.01q.03.01.03.1l.36.33.14.08q.07.1.09.14.02.03.16.07.07.14.3.24.24.12.35.19 0 .03.02.05.02.02.06.02.02 0 .03-.01v-.01q.01-.02.04-.02t.05.02q.02.02.03.05 0 .01.01.01.02.08.16.11l.04.03q.03.04.15.11.13.07.17.07H12q.05 0 .07.02.01.01.02.03.01.05.04.06h.01q.22.04.45.06.24.01.49.01.04 0 .2.11t.2.11q.21 0 .42.03.22.04.47.04.07 0 .14-.04.08-.03.15-.03.04 0 .06.01 0 .01.01.02.02.01.04.01.07 0 .16-.08.08-.06.12-.04h.01q.07 0 .16.02t.13.02q.03 0 .05-.01.04-.01.07-.04.06-.06.09-.06.04.04.07.04.08 0 .29-.07.22-.07.26-.11.07-.03.39-.05.33-.02.36-.02.21-.08.4-.08.02-.04.05-.05.02-.02.05-.02.07 0 .15-.03.07-.04.18-.13.1-.09.15-.09h.17l.13-.05q.13-.06.23-.09.26-.18.78-.36t.7-.36l.14-.22q.02-.04.05-.06.07-.05.17-.05.07 0 .11-.03.1-.06.19-.12.2-.16.34-.38.22-.33.84-.83.07-.08.17-.22.12-.14.12-.22.28-.14.67-.3.4-.16.87-.41.14 0 .29-.12.07-.14.18-.17.11-.04.18-.07h.03l.04-.04q.06-.06.14-.11l.02-.02.16-.09v-.03q.76-.51 1.51-1.13.76-.64 1.27-1.43l.07-.1q.18-.26.36-.45.17-.2.32-.42.07-.11.14-.16.08-.06.12-.16.07-.08.14-.13.07-.06.11-.09l.36-.79q.29-.62.53-1.19.07-.16.13-.34.14-.42.16-.89.19-1.79-.45-3-.57-1.1-1.47-1.82l-.17-.13q-1-.74-2-1.11-.98-.38-1.52-.49-.29-.07-.9-.15-.62-.1-1.21-.21-.59-.1-.88-.1-.07.09-.13.08-.04 0-.07-.03-.05-.06-.12-.08-.04-.01-.08-.01h-.03l-2.02.04q-.1.03-.23.02-.13-.02-.23-.02l-.36.03q-.07 0-.19.02-.03.01-.07.01-.07 0-.14-.03-.58.04-1.4.07-.83.04-1.74.22-.08.07-.17.09-.11.02-.22-.02h-.04l-.21.04q-.11.07-.32.07h-.04q-.8 0-1.62.27-.83.27-1.66.52v.03q0 .01-.01.02-.02.03-.02.08v.12q-.03-.02-.07-.05-.09-.05-.22-.05-.18 0-.4.1-.75.26-1.49.53t-1.39.59q-.13.13-.27.14H6.2v.04q-.28.15-.76.38-.46.23-.75.45-.21.14-.21.23t-.19.24q-.21.14-.36.22-.14.07-.32.24-.68.74-.85 1.58-.05.27-.05.55 0 .14.02.31.02.16.05.33.04.12.12.26.1.14.1.18.04.32.17.6.2.44.62.79.18.14.37.27.55.35 1.2.54.88.24 1.49.24.19 0 .34-.05.15-.05.16-.11v-.01q0-.12-.39-.22l-.5-.11q-.08-.11-.18-.13-.04-.02-.08-.02-.11 0-.25.08-.22.04-.47-.15h-.04q-.68-.17-1.24-.51-.17-.11-.29-.25-.27-.34-.27-.89 0-.38.15-.7.03-.06.07-.12 0-.09.04-.15.01-.02.03-.04.07-.07.15-.14l.5-.69q.11-.1.2-.34.09-.24.2-.31.1-.1.21-.12.05-.02.11-.02.18 0 .36-.15.18-.1.37-.41.21-.31.39-.38.03-.02.04-.02.03.01.03.1 0 .13.03.14h.01q.18-.03.43-.17.25-.15.43-.22l.87-.4h.03q.07-.03.09-.17.02-.15.05-.19.02-.02.04-.02.06-.02.16.06.12.1.19.07h.01q.15-.07.36-.14.22-.08.36-.22.02-.02.04-.05.03-.06.05-.13.01-.06.05-.1.03-.03.08-.05.07-.03.14-.05.07-.02.15-.02.17 0 .32.02.11.01.22-.01.03 0 .07-.01.25-.07.46-.17l.08-.04q.19-.09.4-.11v-.04q.08 0 .14-.04.09-.06.12-.21.06-.25.1-.47 0 .07.1.29.1.21.22.21h.07q.18-.07.34-.1.16-.04.3-.07.19.03.31-.04.13-.07.27-.14h.04q.18-.08.34-.1.16-.01.31-.05V4.2q.17-.07.33-.07.17 0 .32-.03.25-.07.47-.12.24-.07.5-.07h.03q.1-.09.22-.1.08-.01.18.03l1.47-.14q.4-.03.92-.15.52-.14 1.35-.14.15 0 .31.02.17.02.34.02l.65-.14q.07.03.56.09.48.05.8.23.26.07.33.06.07-.02.22-.02.07 0 .14.02.07.01.15.01.07 0 .41.13.34.12.41.12 1.69.29 2.68 1.28.24.23.44.5.67.94.91 1.98.11.54.11 1.1 0 .88-.25 1.68-.16.51-.43.98-.07.48-.29.62-.21.14-.4.46l-.1.19q-.09.15-.05.25 0 .01.01.02.07.09.14.27-.08.11-.17.12-.02 0-.05-.01-.1-.04-.24-.04-.06 0-.09.02l-.02.02q-.32.47-.65.86-.07.26-.1.56-.03.24-.16.31-.03.02-.06.03-.05-.12-.02-.21.02-.04.05-.08-.02-.11-.07-.11-.01-.01-.03 0-.04.02-.07.05-.02.02-.04.06l-.32.36q-.51.58-1.22 1.03-.69.44-1.45.84l.21-.36q.12-.19.17-.4l.02-.12q.03-.27.07-.52v-.02q.02-.01.05 0 .04.02.05 0v-.01q0-.01.01-.01.06-.18.06-.39v-.4q0-.09-.04-.13-.04-.05-.14-.05-.09 0-.13.05-.05.04-.05.13 0 .36-.07.68-.07.33-.17.62-.04.1-.12.29-.07.17-.14.28l-.29.32-.32.44q-.04.04-.16.29-.12.25-.2.29h-.03q-.05-.01-.06-.16-.01-.16-.06-.17-.01-.01-.03 0-.68.33-1.32.56-.62.23-1.17.42-.46.14-.95.3-.35.12-.7.17-.14.02-.29.03-.25.03-.53.08-.26.06-.55.1-.25.04-.55.04h-.57q-.14-.08-.21-.08-.02 0-.03.01-.01 0-.02.01-.02.02-.06.02-.14 0-.29-.02-.14-.02-.28-.02-.02 0-.02-.01-.01-.01 0-.03.01-.02 0-.03h-.02q-.32 0-.61-.09t-.57-.16q-.76-.18-1.07-.36-.3-.18-.99-.65 0-.03-.01-.03h-.03q.06-.19.01-.35-.01-.06-.04-.12.07 0 .12.02h.02q.04 0 .08-.1l.32-.64q.36-.69.61-1.12.54-1.01 1.15-1.94.62-.94 1.22-1.8.06-.08.04-.13-.01-.02-.04-.04-.07-.05-.07-.09.17.03.28-.04.07-.03.12-.1.1-.12.17-.25.05-.07.08-.14.4-.51.76-.91.36-.39.72-.75l.26-.36q.01-.02.02-.02.02 0 .05.03.02.03.04.03.01 0 .03-.01.29-.21.58-.45.31-.23.53-.45.04-.03.03-.06 0-.02-.05-.02-.06-.02-.06-.04 0-.01.01-.02.05-.06.09-.05l.02.02q.01.01.03.01.02 0 .04-.02.03-.04-.02-.14-.04-.07-.02-.09.01-.02.04-.02.07 0 .12.02.05.01.08 0l.02-.02q.07-.03.09-.01.02.01.05-.02.07-.08.1-.17.05-.09.08-.12.18-.26.18-.43 0-.12-.04-.21-.08-.18-.3-.29-.35-.19-.52-.19-.33 0-.72.14-.04.04-.04.15 0 .08-.03.1-.02.01-.04.01-.03 0-.04-.01-.01-.01-.02-.03l-.01-.01q-.02-.02-.08.01-.03.01 0 .26.04.24 0 .31-.07.08-.13.07-.06-.01-.11-.1 0-.04.05-.14.05-.11.05-.14-.02-.04-.04-.05-.03-.01-.07.01l-.07.04-.11.17-.1.07q-.95.94-2.01 2.68-1.05 1.72-2.1 3.59l-.51.9q-.1.15-.09.25.02.11.02.22 0 .14-.03.18-.02.02-.04.03-.03.02-.09-.02-.02-.01-.05-.01-.06 0-.11.1-.29.58-.56 1.16-.27.57-.56 1.11v-.04q0-.01-.01-.02 0-.02-.03-.03-.02-.01-.03-.03v-.02q0-.04.02-.05.01-.02.01-.06 0-.05-.02-.1 0-.01-.01-.02-.04-.06-.04-.1 0-.03.02-.05l.02-.02q.03-.07.03-.14v-.22q.04-.07.02-.12-.02-.06-.02-.1h-.1q0-.07.02-.44.01-.38.05-.42 0-.03.02-.05.01-.02.05-.02l.11-.32q.11-.11.11-.18.03-.08.05-.11.02-.04.05-.07 0-.07.03-.12l.04-.06.58-.61.04-.19q-.03-.23-.13-.27-.02-.01-.05-.01h-.02q-.13.01-.27.14l-.25.22q-.07.11-.11.19-.03.09-.1.21-.04.1-.1.15-.05.06-.09.14l-.08.19q-.06.12-.13.2-.04.04-.11.09-.07.05-.11.12 0 .11-.03.19v.24l-.11.15q0 .04.04.09 0 .01.01.02.02.05.02.1 0 .04-.09.24-.09.19-.13.27-.03.14-.05.2-.02.05-.02.12 0 .06.03.08.01.01.03.02.05.02.01.22-.03.22-.01.48.01.25.08.47l.08.03q0 .26.14.62v.07q-.03.1-.03.23 0 .05-.01.1-.02.07-.06.13l-.02.05q-.01.02-.02.03-.02.02-.08-.01 0 .22-.09.4-.06.14-.19.25-.25.69-.42 1.21-.16.52-.16.88 0 .44.17.52Zm80.41-1.35q.24.03.46.11h.04q1.18 0 2.55-.15 1.37-.14 2.77-.5.06-.03.12-.04.09-.03.18-.04.17-.02.32-.07v-.03l.93-.25q.03 0 .03-.01.01 0 .01-.01v-.01q.03-.07.01-.11-.03-.05-.13-.06-.16-.02-.23-.1l-.02-.02q.15 0 .3.02.07.01.14.03.22.05.39.05h.19v-.03q.17-.07.36-.13.21-.05.36-.13h.03l.06-.06q.06-.05.15-.06.15-.02.29-.05l.26-.11q.1-.08.19-.18.1-.11.2-.14.04.11.1.12.05.01.12-.05h.04l.24-.11v-.03q.08 0 .22-.08.06 0 .07-.03v-.04q-.04-.03-.09-.03-.02 0-.05.01-.07.02-.15.02-.03-.07-.03-.09v-.02q.11-.1.36-.1.11 0 .24.01.12.02.22.02.41-.18.74-.36.35-.18.67-.36.29-.15.52-.29.24-.14.46-.29.04-.13.13-.19.06-.04.13-.06.2-.04.39-.18.5-.4.89-.76l.72-.65q.22-.21.22-.39 0-.09-.05-.13-.02-.01-.06-.01-.14 0-.43.25-.18.18-.47.34-.29.16-.54.42l-.04.03q-.12 0-.22.06-.04.02-.07.05-.1.1-.28.25l-.97.54q-.47.25-.98.51l-1.04.5h-.03q-.02.02-.05.04-.13.11-.32.15-.21.06-.39.14-.15.07-.18.07-.14.1-.22.2-.02.02-.04.03-.06.06-.17.06-.07 0-.14-.05l-.4.15q-.22.07-.4.17-.18.09-.43.12l-.21.07q-.03.01-.05.03-.04.03-.07.08l-.04.06-.06.04q0-.04.02-.07.01-.01.03-.02.02 0 .02-.01 0-.02-.04-.04-.18-.04-.34-.02-.1.02-.2.06-.25.1-.54.29l-.4.1q-.09.1-.2.13-.06.02-.12.02-.04 0-.07-.02-.04-.02-.11-.02v.04q-1.11.25-2.23.41-1.12.16-2.09.16-.86 0-1.6-.13-.74-.12-1.31-.4-.15-.12-.29-.12-.07 0-.15.02-.07.02-.14.02.11-.07.11-.14t-.11-.14q.09.12.06.2-.02.05-.1.08 0-.07.02-.09.02-.02.02-.05-.01-.04-.03-.06-.04-.06-.12-.1-.11-.06-.18-.13-.03-.07-.07-.21-.03-.13-.1-.2l-.04-.02-.22-.4q0-.02-.02-.03-.04-.04-.13-.02-.1.02-.14-.02-.01-.03-.01-.07 0-.07.05-.14.08-.11.08-.22v-.11q-.04-.07-.04-.25 0-.15-.04-.17-.04-.02-.11-.09-.06-.08-.05-.16 0-.05.04-.1.08-.13.12-.27 0-.62.22-1.3.14-.65.5-1.48l.18-.43q.04-.07.11-.12.04-.04.06-.08.01-.03.01-.05v-.05q-.02-.01-.14.12 0-.21.1-.32.12-.11.29-.22l.54-.86v-.04q.02-.01.03-.03 0-.03-.01-.05-.01-.04 0-.07.01-.02.02-.03.16-.09.26-.23.01-.02.03-.03.11-.17.25-.31.18-.22.34-.43.16-.22.35-.44 0-.13-.06-.16-.02-.02-.06-.02-.1 0-.17-.03.09-.12.2-.15.06-.01.13.01.09.01.18-.01.09-.03.17-.11l.07-.07q.11-.1.1-.2 0-.06-.06-.12l-.1-.08q-.11-.08-.26-.1 0-.08.01-.1l.02-.01q.09 0 .18.02.08.02.17.07.16.09.3.13l.26-.26q.1-.1.14-.21.01-.03.02-.05.05-.07.16-.1.07-.05.13-.11.07-.07.12-.14h.03q.08-.18.1-.27 0-.01.01-.02.03-.07.18-.07h.07q.48-.39.94-.79.47-.39.94-.75.03-.04.07-.08.2-.17.44-.28l.82-.58h.04q.17-.21.41-.39.04-.03.09-.06.21-.13.47-.17.06-.05.13-.09.01-.01.03-.01.09-.04.12-.07h.04q.01-.02.01-.03.04-.05.11-.08.04-.01.06-.04.02-.04 0-.11-.03-.03-.07-.03-.03 0-.11-.04.11 0 .22.02.1.02.18.02.14 0 .36-.07v-.04q.04 0 .18-.07.14-.15.47-.22.61-.25 1.11-.4.11-.07.21-.12.12-.05.26-.05h.08l.67-.15q.33-.07.65-.11.19-.03.35-.03h.3q.94 0 1.62.39.26.15.42.37.27.37.27.93 0 .39-.14.83l-.19.57v.04q-.06.12-.02.17.01.01.02.01l.19.11q-.03.04-.07.07-.07.04-.15.05-.03 0-.05.01-.11.04-.17.19l-.11.36-.74.4q-.34.17-.34.21-.36.15-.72.35-.36.19-.68.26l-.18.04q-.12.04-.24.1-.19.08-.41.16l-.79.21q-.04 0-.07-.02-.01-.01-.03-.01-.02 0-.04.03-.04 0-.06.01l-.01.02-.44.08q-.02 0-.03-.01l.01-.01q.01 0 0-.01h-.02q-.14.03-.31.03h-.29q-.51 0-.66-.05-.14-.06-.61-.2-.01-.02-.03-.02-.03-.01-.06 0t-.06 0q-.01-.01-.03-.02-.32-.1-.32-.22v-.18q.03-.03 0-.22l-.04-.21.04-.51.02-.01q.01-.02.05-.02.02-.05.01-.09 0-.02-.01-.03-.02-.04-.02-.06.01-.02.02-.03V7.3q.03-.06.01-.09 0-.01-.01-.02-.02-.02-.02-.03h.02q0-.05.02-.06.01-.01.03-.01.05 0 .06-.02v-.02q.1-.1.11-.1v.01q.01 0 .14-.13.16-.07.2-.19.02-.05.02-.1 0-.01-.01-.02-.02-.05-.14-.05h-.07q-.02 0-.04.01-.12.02-.21.18-.01.02-.04.04-.03.03-.09.05h-.03q-.07.03-.13.08l-.02.04q-.04.04-.09.07-.07.03-.11.08l-.21.24-.13.17q-.09.12-.09.16-.03.03-.03.1 0 .12-.04.15 0 .04-.02.06-.01.01-.01.05-.02.02-.02.03 0 .01.02.02t.03.03v.02l-.18.36q-.09.18-.06.21h.02q.02-.01.03 0 .04.02.01.16-.07.35.07.5l.01.01.03.03q0 .14.09.31.09.16.09.23.03 0 .03.15l.11.1q.04.04.08.14.03 0 .1.07h.07l.02.02q.02.02.02.06l.25.11q0-.01.01-.01.01-.01.06.04.08.08.16.08.03 0 .06-.01.04.04.2.1.16.05.23.05.04.04.07.04.03 0 .04-.01v-.03q.03 0 .07.04.04.03.11.03h.04q.03.04.12.05l.09.02q.03 0 .03-.01.01 0 .01-.01t.04-.01h.02q.02.01.03.03.01.02.02.02t.03-.02q.33 0 .66-.1.07 0 .15.03.09.04.13.04.18-.07.34-.07.17 0 .31-.04l.22-.11h.1q.04 0 .09-.06.05-.05.09-.05.08-.03.13-.02.03.01.06.01.01-.01.03-.02.06 0 .08-.03 0-.01.01-.01.01-.02.02-.03h.11q.03 0 .19-.09.16-.1.2-.13l.54-.14q.07-.07.14-.07t.11-.04v-.01q.07-.07.13-.07.03 0 .05-.01l.04-.02q.03-.04.12-.11t.13-.07l.11-.03q.11-.08.18-.12l.07-.03q.18-.14.55-.34.38-.2.53-.35.07-.07.11-.12.03-.06.07-.09l.15-.07.04-.02q.15-.08.26-.24.13-.18.2-.25l.14-.07q.03-.04.03-.05v-.02l.26-.33q.03-.07.12-.15.1-.1.1-.14-.04-.07.14-.26.18-.2.18-.24.17-.11.32-.23.25-.2.47-.44.36-.37.47-.7.04-.06.02-.09-.01-.02-.06-.03-.03-.01-.06 0-.07.01-.12.09l-.06.1q-.16.26-.41.48-.29.24-.65.5.12-.4.12-.76 0-.23-.04-.46-.16-.78-.83-1.46-.86-.89-2.55-1.1-.29-.04-.62-.05-.32-.02-.61-.02-2.27 0-4.93 1.18h-.04l-.18.19q-.07.07-.21.07h-.11q-.25.14-.53.29-.26.14-.55.32-.36.22-.76.47-.39.25-.79.54h-.03q0 .18-.09.25-.01.01-.03.02-.1.05-.32.09-.32.25-.64.52-.33.27-.62.56-.06.06-.11.13-.06.09-.11.19-.04.1-.11.16-.06.04-.13.05-.1.02-.18.08-.07.04-.11.11 0 .03-.01.03h-.01l-.01.01q-.01 0-.01.03l-.18.25q-.07.11-.25.18-.25.25-.47.53-.21.26-.43.55-.09.14-.2.25l-.06.06q-.04.03-.07.07-.09.1-.14.24-.14.14-.22.37-.04.12-.11.21-.07.08-.17.13l-.29.47v.04q0 .17.02.32 0 .03-.01.06-.04.08-.27.08h-.03l-.36.76-.04.03q0 .07-.1.15h.1q.04.11.01.21-.02.08-.09.15-.16.14-.24.32-.07.2-.16.38l-.02.04q-.1.2-.1.37v.05q.02.01.01.02 0 .01-.02.01t-.02.01l.03.03v.03h-.05q0 .04.02.05l.03.02q.07 0 .1-.03.04-.04.07-.04.02.1-.01.16t-.1.1l-.04.02q-.11.07-.17.22l-.11.55q-.07.46-.09.86v.26q0 .27.02.53 0 .09.04.12.05.03.14-.02-.04.15-.06.28-.01.12-.01.27 0 .1.01.2.02.09.02.2.07.24.16.51.1.28.2.5h.04q.09.05.15.12.07.08.1.18.07.2.21.37v.04q.21.21.44.39.26.2.54.36.1.08.17.15h.01q.08.07.21.07h.07q-.02-.04-.05-.06-.02-.01-.05-.01-.07 0-.14-.03.22-.07.36.02.01 0 .03.01.14.11.29.25l.04.04.68.18q.03-.01.06-.01.08-.01.17.03.13.05.28.05l-.19-.11q.26.07.48.11Zm26.17-13.83q.1.07.46.43.08.02.16.02.1-.01.2-.06.19-.1.22-.17l-.03-.03-.51-.65q-.21-.29-.27-.4-.06-.1-.09-.21-.04-.11-.25-.4v-.18l-.03.04-.08-.11q-.11 0-.14-.03l-.29-.33-.07.04v-.04q0-.01-.01-.02t-.05-.01q-.03 0-.04-.02-.01-.01-.01-.02l-.03-.11q-.06 0-.09-.03-.01-.01-.01-.03-.02-.05-.09-.08l-.25-.07q-.03.01-.03.02-.01.03.07.08l-.2.03h.01q.01-.01.01-.03h-.07q-.29.07-.4.07l-.18.11-.15.08-.03.03-.04-.03-.68.31q-.07.05-.19.05l-.14.1-.03-.03-.22.17q-.5.29-.65.38l-.28.18q-.14.09-.72.45l-1.19.72q-.06.02-.07.06 0 .02.02.05.05.07.19.07h.15q.72-.36.91-.43.21-.07.52-.21.08-.08.35-.17.27-.09.41-.12.08-.07.17-.13.08-.06.15-.09l.33-.11.22-.1h.02q.01 0 .05-.04h.07q.18-.11.41-.2.24-.09.38-.19l.25-.08.08.03.18.08q.07.11.19.19.13.09.21.21h.07q-.03.02-.03.03h.03l.1.11.43.22q.01.01.02.01.02-.01.02-.07v-.02q.11.04.22.22.1.17.07.25.18.14.29.21Zm11.28.65q.08.07.23.07h.14q.55-.36.71-.43.16-.07.38-.21.03-.08.26-.16l.35-.13.12-.12q.06-.06.09-.1l.29-.1.14-.11h.03q.01 0 .01-.03h.08q.07-.06.15-.12.07-.04.15-.09.16-.08.3-.19l.22-.08.33-.14.32-.25.14-.11.04-.07h-.07l-.07-.03q0-.04-.02-.07l-.04-.02q-.06-.03-.09-.06h-.11l-.25-.11v-.03l-.24.03h.01q0-.01-.02-.03h-.07q-.22.07-.36.07l-.11.1q-.04.05-.07.05h-.03q-.01.01-.01.03l-.03.04-.04-.04-.51.32q-.03.04-.14.04l-.1.11-.04-.04-.11.18-.47.38q-.1.08-.2.18-.09.09-.48.45l-.83.72q-.03.01-.03.03-.01.03.05.07Zm-10.68 12.01q.05.05.15.05.22 0 .54-.32.07-.1.17-.14h.01q.11-.04.22-.11.07-.07.14-.23t.14-.2q.15-.09.14-.12 0-.01-.02-.01-.05-.02-.1-.05-.01-.01-.01-.02-.01-.03.18-.09.07 0 .21-.15.02-.07.06-.08.02 0 .04.01.01.01.02 0 .06-.01.06-.29v-.02q.01-.01.04-.01.05-.06.12-.08.02-.01.03-.01.02-.01.04-.01.07-.04.1-.15 0-.04.07-.09.07-.06.14-.17.03-.07.05-.17.02-.12.06-.15.18-.14.23-.11.02.01.03.01.03 0 .06-.08 0-.03.12-.21.13-.18.2-.26.07-.07.11-.14l.08-.14q.89-.91 1.94-1.48.05-.03.07-.08.02-.05 0-.11-.02-.09-.08-.12-.03-.01-.06-.01-.04 0-.05.01-.02.02-.06.02-.94.54-1.8 1.34l-.36.14q-.22.1-.43.1-.18 0-.26-.09-.06-.07-.06-.2 0-.03.07-.24.25-.55.73-1.53.49-.99 1.03-2.11.61-.18 1.26-.34.65-.16 1.22-.31l.19-.11q.03 0 .1-.08.07-.09.11-.09.02 0 .03.01.03.02.02.09-.01.06.01.08.02.01.05-.01.21-.03.42-.03h1.37q.12 0 .26.07.12.04.17-.01.04-.03.03-.13-.01-.11-.07-.17-.05-.07-.17-.09l-.36-.1q-.03 0-.13-.02-.09-.02-.12.02-.06 0-.1.02-.01.01-.02.01-.01.01-.03.01-.04.03-.1.03-.01 0-.01-.01-.02-.01 0-.05 0-.01-.01-.03-.01-.02-.06-.02-.1-.03-.32-.03h-.35q-.22 0-.6.01-.38.02-.67.06-.17.03-.25.09-.07.05-.25.05-.08.02-.09.01v-.01q.01-.01 0-.01 0-.03-.09-.03l-.94.11q.47-.93.88-1.71.42-.77.67-1.2.07-.08.12-.17.07-.09.1-.16l.28-.43q.22-.36.47-.63.25-.27.37-.31.21-.17.21-.25 0-.02-.01-.03-.04-.15-.6-.15-.61 0-1.4.26-.68.21-.83.61-.03.07-.04.14v.02q-.01.06-.15.09-.07.02-.1.06-.04.05-.04.11l.02.02q.02.02.02.06h-.04q-.03 0-.11.07-.06.09-.07.18v.25q-.11.11-.11.14l-.18.22q-.12.06-.14.14v.04q0 .07-.03.09-.02.01-.06.01h-.01q-.08.01-.11.34-.01.04-.12.05-.1.02-.1.05V9q-.14.21-.2.34-.06.12-.2.34-.1.07-.27.24-.16.16-.16.26l-.29.4-.43.58q-.15.21-.24.34-.08.12-.15.19-.04.04-.15.04l-.76.22q-.06 0-.07.02v.01q-.14.21-.14.57 0 .48.18.58l-.04.04-.9 1.15q-.09.09-.11.08 0-.01.02-.04.02-.04.01-.05-.02-.02-.14.05-.21.22-.6.65-.4.43-.58.5-.07.03-.07.06 0 .04.09.07.07.02.13.01.09 0 .17-.07.26-.14.47-.32.22-.18.54-.54.04 0 .07-.04.29-.39.63-.79.34-.39.7-.79.48-.19 1.01-.33.04-.03.43-.17.4-.15.4-.29 0-.08.19-.19.13-.07.28-.09.07-.01.14-.01l-1.8 3.71q-.57.79-.95 1.9-.38 1.12-.67 1.73-.11.25-.11.44 0 .13.07.19Zm-18.42-9.5q-.12.02-.15.05-.18.04-.52-.02-.04 0-.07-.01-.31-.05-.6-.19h-.04l-.1-.1q0-.06-.02-.07h-.02q-.03 0-.08-.04h.02q.01-.01-.03-.03-.06-.04-.06-.07-.1-.12-.1-.22-.01 0-.01-.01-.03 0-.04-.05-.02-.05-.06-.08.03-.05.01-.09 0-.03-.02-.05-.04-.03-.03-.06 0-.01.01-.02 0-.04.07-.11h.03q0 .01.01.03.01.01.03.02.02.01.03.03v.03q.25-.06.36.03l.04.04q.02.04.06.06.1.09.26.09.04 0 .08-.02.03-.03.07-.03.02 0 .03.01.01.01.01.04h.24q.01.01.01.03.03-.03.05-.03h.09q.03 0 .04-.02v-.02q.01-.01.04-.01.11-.03.21 0 .02 0 .05.01.13.04.24.04h.1l.22-.08h.04q.01 0 .02.01.01 0 .01.02.03 0 .04-.01v-.01q0-.01.03-.01.04 0 .11-.04.08-.03.11-.03h.04q.05 0 .06-.03.01 0 .01-.01h.18q.11-.1.14-.1.03 0 .04.01v.01q0 .01.03.01.09 0 .15-.04.02-.01.04-.03v.02q.01.01.03-.02.07 0 .18-.03.11-.05.18-.08l.18-.04.03-.03q.08-.07.15-.07h.04q.1 0 .38-.11.27-.11.41-.22.03 0 .07-.02.04-.02.07-.02.04 0 .14-.07.12-.07.15-.07l.15-.07.04-.04h.1l.07-.07q.04 0 .14-.09.12-.09.15-.09.04-.03.41-.27.31-.19.32-.18 0 .01-.01.02-.29.47-.68.81-.4.34-.5.38-.04.04-.14.07-.01.01-.03.02-.07.03-.13.09 0 .03-.13.11-.12.07-.16.11-.03 0-.1.03-.07.04-.15.07v.01q-.01.03-.07.04-.07.02-.11.06-.03 0-.08.08-.06.07-.1.07l-.19.1q-.17.11-.24.11h-.04q-.06 0-.07.01 0 .02-.07.07-.03.03-.09.05-.06.02-.13.09-.07 0-.1.03-.1.08-.13.05-.01 0-.01-.03 0-.02-.01-.03-.04-.03-.18.08-.07 0-.1.04-.04 0-.08.03-.04.04-.07.04l-.79.08q-.07.03-.21.05Zm20.89 1.03q-.12.03-.26.07.03-.07.03-.29l.04-.07q.03 0 .17-.07l.11-.22q.04 0 .04-.02v-.01q.01-.01.04-.01.1-.1.17-.21.07-.11.11-.18 0-.07.02-.09v-.01q.02-.02.02-.05l.25-.32q.08-.06.1-.14v-.04l.15-.36h.03q.06.01.13-.07.09-.1.1-.2V9.2q0-.03.09-.05.08-.01.08-.04V9.1l.4-.54.32-.32q.07.03.16.1.1.07.17.11 0 .05.02.09.01.02.03.04l.05.05q-.14.33-.46 1.03-.33.7-.76 1.57l-1.08.17q-.14.07-.27.12Zm-12.47 8.56q.43.18.93.18.86 0 1.78-.38.92-.37 1.47-.84.6-.54 1.25-1.19.65-.65 1.12-1.37.14-.22.16-.29.02-.07.09-.29.07-.14.23-.24.03-.02.05-.04.12-.12.12-.36v-.22l.11-.18q.14-.21.19-.44.06-.24.1-.46.03-.17.07-.33.03-.17.03-.28 0-.15-.06-.19-.01-.01-.03-.01-.03 0-.05-.03-.04-.03-.04-.09 0-.04.02-.04.02-.01.06.02.02.02.04.02.03-.01.03-.08.03-.18-.02-.55-.05-.38-.13-.57-.07-.24-.29-.53.33 0 .4-.04.07 0 .11-.01.03-.02.07-.02l.03-.04q.15-.03.29-.05.15-.03.29-.03 0-.03.02-.05.02-.02.05-.02h.04l.25-.03q.11-.11.14-.11.03 0 .04.01v.01q0 .02.04.02.07 0 .21-.14.05-.03.1-.03.02 0 .04.01.08.02.11-.01 0-.01.01-.01.08-.06.1-.13v-.05q0-.03-.01-.05-.03-.06-.16-.06h-.08q-.04 0-.11.02-.06.01-.07.04v.01q-.1 0-.24.05-.12.06-.19.09l-.03.04h-.43l-.12.11q-.01.02-.03.02-.02.01-.06 0-.05-.02-.08-.02l-.07.07q-.03 0-.04-.01l.01-.01h.01q-.01-.01-.06-.01-.04 0-.18.07l-.03-.04-.19.11q-.03.01-.07.01-.07.01-.15-.01-.1-.04-.17 0-.2-.19-.43-.28-.2-.08-.44-.08-.25.02-.31.14-.01.04-.01.08 0 .1.1.29l-.31-.05h-.02q-.03.01-.06.05-.04.03-.11.03-.03 0-.03-.01v-.01q-.01-.01-.04-.01h-.02q-.02.01-.03.03-.02.04-.1.04l-.24-.04q-.15 0-.23-.07-.01-.02-.03-.04v-.04q.06-.11.13-.12h.03q.03.01.06-.01.04-.02.04-.11v-.12l.28-.14q.15-.07.25-.07.12-.11.12-.15.17 0 .5-.43.03-.07.05-.19.02-.13.05-.24-.03-.07-.03-.14t-.03-.08h-.01q-.01 0-.02.01 0 .01.01.02 0 .02-.06.02-.01 0-.02-.01t-.01-.03v-.03q-.01-.02-.04-.05-.04 0-.08.02h-.02q-.02 0-.05-.02l-.1-.1q-.04 0-.07.01-.04.02-.07.02-.04 0-.05-.01v-.02h-.17q-.22 0-.65.25-.43.25-.5.33l-.07.14q-.04.03-.1.07-.05.03-.09.1h-.02q-.01 0-.05.05l-.09.08q-.05.06-.13.13v.03q0 .04-.03.07h-.04q-.14.15-.17.24-.04.09-.12.16-.03.04-.22.22-.17.17-.21.17-.03 0-.29-.08-.25-.09-.32-.09h-.02q-.02.01-.03.03-.01.02-.02.03-.01.01-.04.01-.04 0-.14-.05-.11-.06-.14-.06-.04 0-.1.09-.05.09-.09.09.04.08.07.11.04.04.04.07 0 .04.22.15.22.11.22.21 0 .03-.01.04h-.01q-.02.01-.02.03l-.06.06-.09.08q-.03.04-.14.21-.11.15-.18.23l-.41.42q-.23.22-.42.48-.1.1-.08.17.01.03.03.05.05.04.07.09.02.04.02.09 0 .07-.04.14-.03.08-.08.09-.06.02-.14.09v.01q-.02.04.09.11.11.08.11.14-.01.02-.01.03-.04.04-.24-.07-.19-.11-.23-.08-.22.36-.45.76-.23.39-.42.82-.31.8-.46 1.52-.14.72-.14 1.11 0 1.05.52 1.52.03.03.06.05.22.16.46.27Zm-63.26-.5q.69.46 2.02.46 1.14 0 2.16-.35.3-.1.59-.24 1.29-.59 2.29-1.49.07-.07.07-.12 0-.06.08-.14l.43-.21.36-.36q.39-.4.54-.65.22-.32.22-.39 0-.04-.02-.05-.02-.02-.06-.02-.04 0-.08.01l-.06.02q-.21.09-.2.14 0 .01.01.02.02.02.02.03.01.04-.12.09-.04.04-.15.17-.1.12-.17.23-.1.04-.16.11 0 .01-.01.02-.05.09-.12.19-.12.08-.37.22t-.35.22q-.58.43-1.27.87-.67.43-1.39.6-.12.04-.13.02l.01-.01.01-.01q-.01-.01-.26.12-.01-.08-.05-.09-.05-.03-.16.09-.11 0-.33.07-.14.03-.27.05-.13.02-.23.02h-.62q-.18 0-.35-.05-.33-.09-.61-.35-.16-.15-.28-.33-.18-.3-.23-.68-.14-1.26.58-2.87.56-1.28 1.39-2.35.23-.29.48-.57.25-.29.97-.74t1.26-.45q.28 0 .43.14.07.06.11.14l.04.08q.06.16.01.36-.05.25-.05.54v.01q-.02.06-.14.09-.03 0-.05.02-.02.02-.02.06 0 .07-.04.11 0 .03-.04.09-.02.03-.02.05.01.02.03.03 0 .04-.17.26-.16.22-.19.25-.01.02-.03.04-.03.04-.09.07l-.06.04q-.03.03-.04.07 0 .03.01.09.01.03.01.06-.01.02-.02.03-.03.04-.02.07.01.04.1.05.17.02.24-.01.07-.04.27-.09.2-.06.35-.17.17-.14.3-.3.13-.17.23-.2.18-.11.56-.55.37-.46.52-.67.14-.19.29-.33.07-.07.11-.15.05-.1.07-.21.04-.18.04-.43 0-.33-.16-.43-.01-.01-.03-.02-.18-.09-.35-.13-.07-.03-.51.26-.43.29-.76.57-.02.02-.04.03-.11.04-.3-.17-.23-.26-.33-.29-.51-.11-1.18.09-.66.2-1.21.49l-.58.41q-.46.34-.86.7-.39.36-.36.47.05.03.13.05.09.02.13.05-.29.22-.4.22h-.03q0-.03.01-.05l.02-.02q-.29.18-.41.35-.12.16-.16.23l-.15.32q.12.08.11.11-.01.01-.02.01-.05.02-.19.1l.03.04q-.12 0-.14.04-.01.03.04.1.05.12.01.18-.05.05-.18.04-.18-.03-.24.04-.02.04-.02.1 0 .07.03.1-.03 0-.11.13-.07.13-.11.2-.03.07-.07.11-.03.04-.07.4-.02.09-.09.15-.02.02-.06.04-.1.05-.21.09v.08q0 .02.01.03.02.03.1 0 .22-.07.25-.03v.01q0 .03.01.04.01 0 .03-.02 0 .04.07.09.05.04.04.05h-.01q.02.02.01.03-.01.04-.25.03l-.3-.02.07.1q-.03 0-.04.02-.03.02-.03.06l.04.04-.11.07q.06.15.07.14 0-.04.22-.07.02-.01.03-.01.03.02 0 .12-.02.11-.07.11-.02.01-.03 0l-.29-.08q-.04.04-.08.23-.03.17-.1.28l-.07.1q-.12.83.14 1.48.01.04.03.08.26.6.9 1.04Zm-6.44.41q.05.05.15.05.21 0 .53-.32.06-.09.14-.13.02-.01.04-.01.11-.04.22-.11.07-.07.14-.23.08-.16.15-.2.15-.09.14-.12-.01-.01-.02-.01-.05-.02-.1-.05-.01-.01-.01-.02-.01-.03.17-.09h.04q.08-.02.14-.15.05-.08.1-.08.02 0 .04.01.01.01.02 0 .06-.01.06-.29v-.02q.01-.01.03-.01.06-.06.13-.08.01-.01.03-.01.01 0 .03-.01.07-.03.1-.15 0-.04.07-.09.07-.06.15-.17.03-.07.05-.17.02-.12.05-.15.19-.14.24-.11.01.01.03.01.03 0 .06-.08 0-.03.1-.21.12-.18.22-.26.07-.07.11-.14l.07-.14q.9-.91 1.95-1.48.05-.03.07-.08.02-.05 0-.11-.02-.08-.08-.11-.03-.02-.07-.02-.04 0-.05.01-.02.02-.06.02-.93.54-1.8 1.34l-.36.14q-.17.09-.35.1h-.08q-.18 0-.26-.09-.06-.07-.06-.2 0-.03.07-.24.51-1.12.87-1.84t.97-1.77q.07-.07.12-.15.06-.1.09-.17l.14-.21q.08-.12.12-.22.24-.36.5-.61.25-.25.36-.32.22-.19.22-.26v-.02q-.05-.15-.65-.15-.62 0-1.39.25-.67.21-.81.61-.02.07-.03.14 0 .02-.01.02-.01.01-.03.01l-.18-.1q-.54-.51-1.15-.66-.26-.06-.54-.06-.79 0-1.63.44-.82.45-1.58 1.03 0 .04-.04.19-.03.14-.03.21v.03l-.18.04-.06.08q-.02.03-.05.03-.02 0-.04-.04.04-.06.03-.09-.01-.02-.06-.02-.01.02-.03.03-.13.13-.3.23-.17.1-.36.25l-.39.32q0 .03-.01.05l-.01.01q-.02.02-.02.05h.14q.09 0 .1.04.01.02-.02.07h-.25q-.04.04-.09.07-.05.04-.09.11l-.13.09q-.09.06-.08.1.01.02.03.03l-.04.07-.1.15h-.15v.14l-.14.46q0 .07-.04.11v.01q-.03.17-.51.5-.46.32-.53.72l-.07.07q0 .03.01.16.01.06 0 .11-.01.07-.05.12h-.01q-.04-.02-.1.06l-.07.08q-.21.48-.31.89-.09.41-.09.74 0 .77.39 1.16.11.12.26.2.65.36 1.22.36.62 0 1.32-.52.7-.51 1.42-1.27t1.33-1.53q.62-.78 1.05-1.25.07-.1.46-.59.4-.49.65-.88.07-.07.16-.29.1-.22.1-.32V13q-.01-.01-.05-.01-.03 0-.31.22-.26.21-.53.56-.27.33-.34.38-.04.07-.16.17-.12.11-.17.19h-.07l-.46.53.03.11-.43.43h-.03q-.55.47-.96 1.04l-.11.13q-.38.47-.91.81-.26.07-.29.14l-.26.22q.07.04.13.11.02.03.02.05-.01.04-.08.06l-.02.02q-.07.04-.18.03l-.12-.02-.07.12q-.04 0-.05-.02l-.02-.02q-.02-.01-.04-.01h-.01q-.01.02.03.1.05.08.03.11l-.01.01-.14-.1v.03l-.22.04-.93.53q-.12.05-.19.06-.07.02-.14.02-.16 0-.26-.08-.13-.11-.13-.39 0-.61.55-1.69.56-1.08 1.24-1.91.29-.39.84-.89.56-.51.89-.77.26-.18.24-.25-.02-.07.19-.22.19-.14.38-.15.16-.02.29-.1.03-.01.05-.04.07-.07.25-.19.18-.13.18-.24 0-.07-.02-.14-.01-.05.01-.09.01-.01.01-.02.08-.04.29-.23.22-.2.29-.2.02 0 .03.01.01.01.01.02 0 .08-.06.24-.04.12-.02.13l.01-.01q.14-.07.16-.05.01.02.16-.02.28-.1.64-.26.36-.17.58-.17.18 0 .36-.05t.33-.05q.03 0 .05.02.02.01.06.01l.03.04q0 .03.01.03h.01q.02.01.02.04h-.02q-.02 0-.09.07-.11.14-.1.28 0 .14.14.28.25.27.43.41v.04q.01.05.07.09l.08.05q-.33.8-.67 1.57-.35.78-.74 1.57-.58.79-.96 1.9-.38 1.12-.67 1.73-.1.25-.1.44 0 .13.07.19Zm34.99 0q.05.05.15.05.21 0 .54-.32.05-.09.13-.13.02-.01.04-.01.12-.04.22-.11.07-.07.14-.23.08-.16.15-.2.15-.09.14-.12 0-.01-.02-.01-.05-.02-.1-.05-.01-.01-.01-.02-.01-.03.18-.09h.03q.08-.02.14-.15.05-.08.11-.08.01 0 .03.01.01.01.02 0 .06-.01.06-.29v-.02q.01-.01.04-.01.05-.06.12-.08.02-.01.03-.01.02 0 .03-.01.07-.03.1-.15 0-.04.07-.09.08-.06.15-.17.03-.07.05-.17.02-.12.05-.15.19-.14.24-.11.02.01.03.01.03 0 .06-.08 0-.03.1-.21.12-.18.22-.26.07-.07.11-.14l.07-.14q.9-.91 1.95-1.48.05-.03.07-.08.02-.05 0-.11-.02-.08-.07-.11-.04-.02-.08-.02-.03 0-.05.01-.02.02-.05.02-.94.54-1.81 1.34l-.36.14q-.17.09-.35.1h-.08q-.18 0-.26-.09-.06-.07-.06-.2 0-.03.08-.24.5-1.12.86-1.84t.97-1.77q.07-.07.13-.15.05-.1.08-.17l.14-.21q.08-.12.12-.22.25-.36.5-.61.26-.25.36-.32.22-.19.22-.26v-.02q-.04-.15-.65-.15-.62 0-1.39.25-.66.21-.81.61-.02.07-.03.14 0 .02-.01.02-.01.01-.03.01l-.18-.1q-.53-.51-1.15-.66-.26-.06-.54-.06-.79 0-1.63.44-.82.45-1.58 1.03 0 .04-.03.19-.04.14-.04.21v.03l-.17.04-.07.08q-.02.03-.04.03-.03 0-.04-.04.04-.06.02-.09-.01-.02-.06-.02-.01.02-.03.03-.13.13-.29.23-.18.1-.36.25l-.4.32q0 .03-.01.05 0 .01-.01.01-.01.02-.01.05h.14q.08 0 .09.04.02.02-.01.07h-.26q-.04.04-.09.07-.05.04-.09.11l-.13.09q-.08.06-.07.1 0 .02.02.03l-.04.07-.1.15h-.15v.14l-.14.46q0 .07-.03.11l-.01.01q-.03.17-.51.5-.46.32-.53.72l-.07.07q0 .03.02.16 0 .06-.01.11-.01.07-.05.12h-.01q-.04-.02-.1.06l-.07.08q-.21.48-.31.89-.09.41-.09.74 0 .77.39 1.16.11.12.26.2.65.36 1.22.36.62 0 1.32-.52.71-.51 1.42-1.27.72-.76 1.33-1.53.62-.78 1.05-1.25.07-.1.47-.59.39-.49.65-.88.07-.07.15-.29.1-.22.1-.32V13q-.01-.01-.04-.01-.04 0-.32.22-.25.21-.53.56-.27.33-.34.38-.03.07-.16.17-.12.11-.16.19h-.08l-.46.53.03.11-.43.43h-.03q-.55.47-.96 1.04-.05.06-.1.13-.39.47-.92.81-.25.07-.29.14l-.25.22q.07.04.12.11.02.03.02.05-.01.04-.07.06-.02.01-.03.02-.07.04-.18.03l-.12-.02-.07.12q-.03 0-.05-.02l-.02-.02q-.01-.01-.03-.01h-.01q-.02.02.02.1.05.08.03.11l-.01.01-.14-.1v.03l-.22.04-.93.53q-.12.05-.19.06-.07.02-.14.02-.16 0-.25-.08-.14-.11-.14-.39 0-.61.55-1.69.56-1.08 1.24-1.91.29-.39.84-.89.57-.51.89-.77.26-.18.24-.25-.02-.07.19-.22.19-.14.38-.15.17-.02.29-.1.03-.01.05-.04.07-.07.25-.19.18-.13.18-.24 0-.07-.01-.14-.02-.05 0-.09.01-.01.01-.02.08-.04.29-.23.22-.2.29-.2.02 0 .03.01.01.01.01.02 0 .08-.05.24-.04.12-.03.13l.01-.01q.14-.07.16-.05.01.02.16-.02.29-.1.65-.26.36-.17.58-.17.17 0 .35-.05.18-.05.33-.05.04 0 .05.02.02.01.06.01l.03.04q0 .03.01.03h.02q.01.01.01.04h-.02q-.02 0-.09.07-.1.14-.1.28.01.14.14.28.25.27.43.41v.04q.01.05.07.09l.08.05q-.33.8-.67 1.57-.34.78-.74 1.57-.58.79-.96 1.9-.38 1.12-.67 1.73-.1.25-.1.44 0 .13.07.19Zm52.69-.19q.49.21 1.06.21.93 0 1.87-.36.94-.36 1.62-.83.64-.46 1.21-1 .27-.26.52-.53.79-.84 1.41-1.75.24-.36.24-.53 0-.04-.01-.06-.02-.01-.06-.01-.14 0-.39.36-.22.24-.53.57-.3.32-.59.61-.07.07-.08.14-.02.07-.09.15-.08.07-.15.16-.07.09-.14.12l-.02.02q-.03.02-.08 0t-.12.02q-.02.02-.02.05 0 .01.02.03 0 .01.01.01.02.04-.01.09l-.36.26q-.43.28-.83.57-.39.29-.83.47-.25.15-.49.22-.23.07-.55.14-.03.01-.06.03-.06.04-.1.12-.05.1-.7.1-.07 0-.17-.02-.09-.01-.16-.01-.41-.06-.67-.3-.2-.19-.3-.49l-.04-.51q0-.15-.04-.16 0-.01-.01 0h-.02q-.03-.02 0-.13l.11-.3q.08-.21.08-.35 0-.05-.03-.08l-.02-.02q-.13.1-.2.07-.03-.01-.04-.04l-.02-.02q-.03-.11.19-.3l.19-.33.21-.5.25-.39q.07-.19.05-.35 0-.04.02-.08.04-.09.22-.12.43-.1 1.21-.3.77-.2 1.56-.52.79-.33 1.35-.81.34-.3.47-.67.09-.24.09-.5 0-.41-.19-.7-.1-.18-.28-.31-.46-.36-1.15-.72-.25-.18-.5-.18-.08 0-.15.02-.07.02-.13.05-.12.07-.34.14 0 .04-.2.19-.19.14-.26.28-.08.11-.08.29 0 .04.01.08.02.05.07.1l-.15.07-.05.07q-.02.03-.04.03-.04 0-.09-.06.05-.05.04-.09 0-.02-.02-.04-.04-.04-.08-.05-.02-.01-.04-.01-.19.12-.35.34-.16.21-.81 1-.09.04-.15.11-.04.04-.06.09-.07.12-.19.26-.03.04-.16.17-.12.13-.12.16.01.03.16.02.07-.01.11.02.05.04.05.14v.08h-.4q-.1.1-.17.1h-.01q-.07.01-.1.19l-.18.14q-.18.14-.18.25v.02q.01.02.04.02v.14l-.29.43q-.15.07-.16.09-.02.02-.06.16-.14.36-.22.83-.14.46-.25.96-.11.48-.11.95 0 1.1.55 1.61l.14.12q.25.18.52.29Zm3-5.89q-.86.27-1.4.31.22-.33.68-.95.47-.64 1.07-1.3.59-.67 1.1-1.03.57.5.61 1.04v.07q0 .11-.02.22-.09.49-.59.9-.58.47-1.45.74Zm-19.26 5.65q-.32.05-.43.05-.13 0-.25-.04-.21-.06-.38-.24-.26-.29-.26-.97 0-.22.05-.47.05-.26.05-.4-.01-.03-.02-.04-.04-.05-.09-.07l-.02-.02q-.04-.04-.01-.16l.01-.01q.07-.14.22-.24l.1-.08q.08-.1.1-.25.14-.5.34-.89.2-.4.34-.69.72-1.18 1.65-2.1.94-.92 1.34-1.18.08.07.11.07h.04q.07-.04.07-.21h.03q.11.11.15.11.02 0 .03-.01.01-.01.02-.03l.03-.03h.03q.05 0 .06.02l.01.01q0 .02.01.03.01.01.02.01.02 0 .03-.01.06-.01.1-.06.06-.07.09-.07h.03l.03.03q.01.02.02.03.01.01.03.01h.12q.1 0 .13-.04l.04-.03q.03-.04.07-.04.03 0 .03.01v.02q.01.01.04.01.06 0 .07.01v.01q.01.01.03.01l.22-.15q.18.26.34.58.16.33.16.65 0 .11-.1.21-.04.04-.09.12-.01.02-.01.03.01.05.13.07.14.03.15.08.01.03-.04.07-.08.08-.06.12.01.02.02.02.14.02.14.05 0 .03-.1.06-.21.07-.21.14 0 .04.07.07h.01q.05.03-.03.27-.09.28-.2.58-.11.31-.14.42-.11.14-.22.37-.11.23-.11.35 0 .17-.03.21-.01.01-.02.01-.03.02-.09-.01-.03-.02-.06-.01-.02.01-.04.04-.58.8-1.16 1.58-.57.77-.97 1.1-.07.03-.18.1-.08.05-.1.12-.01.03-.01.06-.03.11-.02.16.01.01 0 .02-.01.04-.19.04h-.04q-.12.02-.12.05 0 .01.01.02.01 0 .01.01 0 .03-.15.09-.02.01-.04.01-.05.01-.11-.04-.05-.05-.09-.05-.03 0-.05.01-.36.26-.69.31Zm-45.17.48h.21q.39 0 .82-.24.44-.26.91-.94.09-.12.07-.21l-.02-.04q-.05-.1-.11-.11H63.72q-.08.02-.14.1-.58.72-1.19.74-.1 0-.2-.02h-.03q-.03-.01-.05-.03l-.07-.04q-.07 0-.21-.07-.04 0-.12-.07-.03 0-.03-.01-.01-.02.03-.06.04-.04.04-.07-.01-.03-.06-.06-.08-.05-.15-.12l-.04-.04q.04-.07.04-.29 0-.22-.06-.46-.05-.26-.13-.37v-.03q0-.15.04-.24t.04-.23q0-.08-.08-.22h.04q.07 0 .09-.03.02-.03-.01-.11-.08-.18-.08-.51l.11-.65h-.02q-.01 0-.05.05l.07-.22-.11-.11v-.11q.04 0 .06-.02l.02-.02q.04-.01.05-.04.03-.05-.09-.17.04-.18.04-.27v-.41l-.04-.43q0-.07.04-.11v-.01q.02-.04-.15-.17.09-.04.12-.1.03-.07-.01-.16l-.08-.28-.07-.22q-.1-.22-.21-.33-.17-.18-.38-.28-.24-.11-.52-.11-.44 0-.73.14-.09.04-.13.01 0-.01-.01-.01-.22 0-.58.36-.07.06-.14.1-.08.05-.16.08-.16.07-.2.18l-.03.22q-.01.01-.02.01-.03.01-.07-.05-.03-.03-.05-.03-.03 0-.05.03l-.21.15q-.1.14-.15.14-.03 0-.17.08-.14.1-.14.14-.15.1-.28.22-.12.1-.23.24-.02-.01-.04 0-.03.01-.03.12 0 .06-.02.07-.02 0-.05-.07l-.62.53q-.03 0-.12.15-.09.14-.2.28-.14.15-.26.2-.1.06-.14.13-.11.17-.08.21.01.01.03.01.05 0 .1.01l.06.02.22-.12q.22-.13.25-.17.22-.06.25-.17.01-.02.01-.04l.1-.04.25-.32q.18 0 .36-.29l.18-.15q.07.03.11.01.02-.01.03-.03.04-.08.04-.12l.11-.1q.09.02.13-.01.01 0 .01-.01.04-.05.07-.1l.04-.03q.08-.07.08-.11.1-.1.31-.25.09.05.12.02.05-.02.03-.16 0-.01.01-.02.01-.02.06 0 .06.01.07-.01v-.01l.11-.11q.15-.07.24-.09.05-.01.09-.05.02-.02.03-.04.29-.18.51-.18.08 0 .15.04.32.14.35.93 0 .62.05 1.57.06.95.25 1.91.2.95.58 1.65.28.53.72.74.14.07.31.11.11.03.22.03Zm-47.24 1.39q-.04.02-.1.02l-.05-.04h-.55q-.41 0-.7-.03-.09 0-.15-.03l-.04-.02q-.07-.06-.1-.06-.28-.04-.57-.09-.29-.06-.58-.09h-.07q-.04 0-.15-.13-.11-.13-.18-.16-.03 0-.03.01v.01h-.01q0 .01-.03.01-.07-.03-.22-.2-.14-.16-.17-.23-.04-.03-.11-.03 0-.07-.04-.14l-.07-.12q0-.04-.02-.07-.02-.02-.04-.03l-.09-.07q0-.07-.18-.16-.18-.1-.18-.13-.03-.11-.08-.21-.06-.12-.09-.22-.04-.02-.06-.05-.02-.03-.02-.08v-.02q-.01-.08-.07-.14.03-.07 0-.18-.04-.1-.04-.15l.07-.21.04-.03h.03q0 .1.12.21.14.03.3.2.16.16.27.16h.04v-.01q.01-.01.08.05.1.07.14.07.07.04.5.14.43.11.47.22.02 0 .04.01.03.02.03.1l.33.07.01.01q.02.02.02.06.04-.04.05-.04h.02q.04 0 .05.02.02.02.06.02.03 0 .05-.02.02-.02.05-.02.19 0 .4.15.22.14.44.14h.32q0-.02.01-.02.01-.01.03-.01l.07.07h.07q.01.01.03.01.06.01.13-.03.09-.05.13-.05l.07.07q.03 0 .05-.02.02-.02.05-.02h.26l.02.02q.03 0 .07-.04.05-.05.09-.05.05 0 .08.03.01.01.01.02.02.05.04.06h.01q.04 0 .11-.04.07-.03.11-.03l.03.03q.15 0 .27-.03.01 0 .02-.01.12-.03.26-.03h.22l.01-.02q.02-.01.02-.05.07 0 .12-.02.03-.01.05 0 .02 0 .04.02h.04q.18 0 .77-.05.6-.06.74-.2.08.03.13.01.05-.01.09-.01.03 0 .19-.09.17-.1.2-.06.11 0 .14-.04.03-.02.06-.03h.02l.04-.04.14.07q.03 0 .1-.07.04 0 .59-.12.57-.12 1.18-.34-.51.51-1.12.88-.02.01-.05.03-.63.38-.74.38-.03.03-.18.07-.14.04-.21.11 0 .04-.17.13-.16.08-.19.13-.14 0-.36.1-.04.04-.15.06-.1.01-.11.04v.01q0-.01-.01-.01-.03-.01-.11.08-.07.09-.11.08-.01 0-.01-.01-.05 0-.5.14-.44.15-.58.15-.07-.07-.12-.07-.09 0-.12.04v.01q-.01.02-.02.03-.02.02-.07.02-.03.04-.13.04-.03 0-.05.01-.05.02-.07.1h-.18q-.12.09-.16.07-.02-.02-.02-.08 0-.03-.02-.05-.05-.04-.23.06h-.15q-.04.04-.09.07l-.02.02Z" fill="#000" fill-rule="evenodd"/></svg><svg fill="none" viewBox="0 0 203 47" id="logo_second" xmlns="http://www.w3.org/2000/svg"><g clip-path="url(#ba)"><path d="M202.797 39.463c-3.383 3.383-11.503 3.64-17.796 3.346-11.436-.772-23.481-3.934-34.916-1.949-.542-.588-1.286-1.103-2.233-1.507-12.925-5.074-33.157-1.25-42.698 4.853 7.985-3.235 19.217-6.103 30.044-5.515 4.128-.11 9.879.92 12.315 2.72-3.857.957-9.202 4.523-3.248 5.589 5.82.33 7.85-3.162 6.023-5.735 6.699-1.25 15.766.257 22.059 1.397 9 1.544 20.774 2.757 28.488-1.103.473-.22 2.909-2.133 1.962-2.096Zm-55.757 5.993c-1.286.882-4.669.625-3.654-.772 1.15-1.36 2.706-2.28 4.669-2.905 1.015 1.03.947 2.28-1.015 3.677ZM56.975 38.58c-1.759.478-3.112 1.323-3.992 2.28-16.443-3.089-34.713 5.624-50.276.293C1.557 40.714.88 39.978 0 39.426c.27 1.508 3.113 2.795 5.549 3.493 7.917 2.059 16.984 1.103 24.969-.294 6.36-1.14 15.495-2.647 22.194-1.397-1.624 2.206-.744 4.89 3.993 5.735 8.526.258 3.586-4.485-1.218-5.588 2.368-1.801 8.12-2.83 12.247-2.72 10.76-.368 21.586 1.8 29.841 5.624-8.052-5.956-27.405-9.375-40.6-5.698Zm2.572 6.103c1.015 1.397-2.369 1.654-3.654.772-1.963-1.397-2.03-2.61-.948-3.64 1.827.588 3.451 1.508 4.602 2.868ZM106.44 41.3c-1.963 1.067-5.008 1.692-5.008 1.692s-3.045-.625-5.007-1.692c-1.353-.735-1.286-1.176-.744-1.433.541-.258 1.353-.294 2.639.404 1.15.625 2.03 1.434 2.503 2.022-.609-.809-1.488-2.169-1.488-3.492 0-1.36.879-1.765 2.03-1.765 1.15 0 2.03.404 2.03 1.764 0 1.287-.88 2.684-1.489 3.493a11.012 11.012 0 0 1 2.504-2.022c1.353-.735 2.165-.698 2.639-.404.676.257.744.698-.609 1.433Z" fill="#000"/></g><path d="M19.2 15.84c.8 0 1.48-.347 2.04-1.04.587-.72.96-1.6 1.12-2.64a5 5 0 0 0-2.48 1.52c-.667.72-1 1.267-1 1.64 0 .347.107.52.32.52ZM2.44 32.36c.027 1.067 1.053 1.6 3.08 1.6s3.893-.307 5.6-.92c-3.333-.96-5.613-1.44-6.84-1.44-1.227 0-1.84.253-1.84.76ZM22.4 11.68c.027-.107.04-.44.04-1s-.16-1.213-.48-1.96a22.704 22.704 0 0 0-8.4 6.08c-2.293 2.64-3.44 4.933-3.44 6.88 0 1.813 1.067 2.72 3.2 2.72 1.84 0 3.72-.68 5.64-2.04 1.947-1.36 3.48-2.88 4.6-4.56 1.147-1.707 1.72-3.107 1.72-4.2s-.547-1.64-1.64-1.64a2.13 2.13 0 0 0-.48.04c-.213 1.253-.72 2.32-1.52 3.2-.773.88-1.707 1.32-2.8 1.32-.72 0-1.08-.253-1.08-.76 0-.613.467-1.347 1.4-2.2a8.098 8.098 0 0 1 3.24-1.88Zm19.32 3.76c0-2.8-1.267-4.907-3.8-6.32-2.907 2.187-6.72 6.347-11.44 12.48-1.627 2.08-3.6 4.2-5.92 6.36-2.32 2.133-4.653 3.72-7 4.76 2.533.693 4.547 1.04 6.04 1.04 2.773 0 5.547-.587 8.32-1.76 2.773-1.2 5.147-2.693 7.12-4.48 1.973-1.787 3.573-3.76 4.8-5.92 1.253-2.187 1.88-4.24 1.88-6.16ZM3.56 13.2c-.187.32-.373.48-.56.48-.187 0-.28-.107-.28-.32 0-.133.053-.293.16-.48 1.28-1.787 3.253-3.533 5.92-5.24 2.693-1.707 5.4-2.56 8.12-2.56 2.747 0 4.627.933 5.64 2.8 2.267-.8 4.547-1.2 6.84-1.2 3.573 0 6.48.507 8.72 1.52 2.373-1.52 4.68-2.507 6.92-2.96.213 0 .32.08.32.24 0 .16-.093.253-.28.28-2.16.453-4.267 1.36-6.32 2.72 2.88 1.493 4.32 3.747 4.32 6.76 0 2.027-.68 4.173-2.04 6.44-1.333 2.267-3.08 4.347-5.24 6.24-2.133 1.867-4.707 3.427-7.72 4.68-3.013 1.227-6.04 1.84-9.08 1.84-1.733 0-4.04-.373-6.92-1.12-2.16.72-4.373 1.08-6.64 1.08-2.853 0-4.28-.64-4.28-1.92 0-.987 1.373-1.48 4.12-1.48 1.547 0 4.013.493 7.4 1.48 2.187-.987 4.4-2.533 6.64-4.64 2.24-2.133 4.173-4.253 5.8-6.36 1.653-2.133 3.587-4.427 5.8-6.88 2.24-2.48 4.36-4.427 6.36-5.84-2.107-1.013-4.88-1.52-8.32-1.52-2 0-4.053.387-6.16 1.16.32.72.48 1.373.48 1.96s-.013.96-.04 1.12c.427-.053.773-.08 1.04-.08 1.52 0 2.28.64 2.28 1.92 0 .933-.427 2.08-1.28 3.44-.853 1.36-1.933 2.667-3.24 3.92-1.28 1.253-2.787 2.32-4.52 3.2-1.707.88-3.267 1.32-4.68 1.32-1.413 0-2.44-.28-3.08-.84-.64-.587-.96-1.373-.96-2.36 0-2.133 1.24-4.6 3.72-7.4 2.507-2.827 5.573-4.96 9.2-6.4-.987-1.787-2.72-2.68-5.2-2.68s-5.067.893-7.76 2.68c-2.693 1.787-4.427 3.453-5.2 5Zm35.657 20.32c1.04 0 2.2-.533 3.48-1.6 1.28-1.093 2.027-2.027 2.24-2.8 0-.32-.2-.587-.6-.8-.4-.24-.853-.36-1.36-.36-1.226 0-2.36.533-3.4 1.6-1.013 1.04-1.52 1.96-1.52 2.76 0 .8.387 1.2 1.16 1.2Zm4.12-6.2c.934 0 1.707.333 2.32 1 .027 0 .24-.2.64-.6.187-.293.4-.44.64-.44s.36.12.36.36l-.16.36c-.08.133-.613.787-1.6 1.96-.96 1.173-1.52 1.867-1.68 2.08-.133.213-.2.533-.2.96 0 .293.187.44.56.44.774 0 1.867-.64 3.28-1.92.08-.107.16-.16.24-.16.107 0 .16.067.16.2 0 .32-.546.827-1.64 1.52-1.066.693-2.026 1.04-2.88 1.04-.586 0-.88-.307-.88-.92 0-.213-.04-.32-.12-.32-.053 0-.093.013-.12.04-1.333.88-2.6 1.32-3.8 1.32-1.173 0-1.76-.533-1.76-1.6 0-1.12.667-2.28 2-3.48 1.334-1.227 2.88-1.84 4.64-1.84Zm6.79 7.12c-1.974 0-2.96-.64-2.96-1.92 0-1.147.693-2.32 2.08-3.52 1.386-1.227 2.826-1.84 4.32-1.84 1.52 0 2.28.493 2.28 1.48 0 .613-.307 1.16-.92 1.64-.614.48-1.174.72-1.68.72-.48 0-.84-.093-1.08-.28-.214-.213-.32-.4-.32-.56 0-.187.093-.387.28-.6.213-.24.386-.373.52-.4.24 0 .36.107.36.32a.39.39 0 0 1-.08.2c-.054.053-.08.227-.08.52 0 .213.146.32.44.32.32 0 .64-.147.96-.44.346-.32.52-.693.52-1.12 0-.907-.507-1.36-1.52-1.36-1.014 0-2.067.547-3.16 1.64-1.094 1.067-1.64 2.08-1.64 3.04 0 1.067.76 1.6 2.28 1.6 2.16 0 4-.787 5.52-2.36.08-.107.16-.16.24-.16.106 0 .16.08.16.24 0 .133-.214.413-.64.84-.427.427-1.174.867-2.24 1.32-1.067.453-2.28.68-3.64.68Zm22.841-18.8c0-.187-.106-.28-.32-.28-.853 0-3.466 2.467-7.84 7.4a29.315 29.315 0 0 0 5.6-3.92c1.707-1.547 2.56-2.613 2.56-3.2Zm-18.24 18.4c-.186 0-.28-.107-.28-.32 0-.24.107-.44.32-.6a282.789 282.789 0 0 1 8.12-9.44c5.574-6.107 9.107-9.16 10.6-9.16.16 0 .32.067.48.2.16.133.24.293.24.48 0 .773-1.106 2.093-3.32 3.96-2.186 1.84-4.493 3.36-6.92 4.56a353.744 353.744 0 0 0-3.8 4.36c1.254-.773 2.307-1.16 3.16-1.16.4 0 .72.093.96.28.267.187.454.467.56.84 0 .613-.52 1.493-1.56 2.64-1.04 1.12-1.56 1.893-1.56 2.32 0 .293.187.44.56.44.774 0 1.867-.64 3.28-1.92.08-.107.16-.16.24-.16.107 0 .16.067.16.2 0 .32-.546.827-1.64 1.52-1.066.693-2.026 1.04-2.88 1.04-.586 0-.88-.293-.88-.88s.507-1.44 1.52-2.56c1.014-1.147 1.52-1.907 1.52-2.28 0-.373-.373-.547-1.12-.52-.72 0-1.813.44-3.28 1.32-2.24 2.56-3.44 3.92-3.6 4.08l-.4.4c-.213.24-.373.36-.48.36Zm13.005-.52c1.04 0 2.2-.533 3.48-1.6 1.28-1.093 2.027-2.027 2.24-2.8 0-.32-.2-.587-.6-.8-.4-.24-.853-.36-1.36-.36-1.227 0-2.36.533-3.4 1.6-1.013 1.04-1.52 1.96-1.52 2.76 0 .8.387 1.2 1.16 1.2Zm4.12-6.2c.934 0 1.707.333 2.32 1 .027 0 .24-.2.64-.6.187-.293.4-.44.64-.44s.36.12.36.36l-.16.36c-.08.133-.613.787-1.6 1.96-.96 1.173-1.52 1.867-1.68 2.08-.133.213-.2.533-.2.96 0 .293.187.44.56.44.773 0 1.867-.64 3.28-1.92.08-.107.16-.16.24-.16.107 0 .16.067.16.2 0 .32-.546.827-1.64 1.52-1.066.693-2.026 1.04-2.88 1.04-.587 0-.88-.307-.88-.92 0-.213-.04-.32-.12-.32-.053 0-.093.013-.12.04-1.333.88-2.6 1.32-3.8 1.32-1.173 0-1.76-.533-1.76-1.6 0-1.12.667-2.28 2-3.48 1.334-1.227 2.88-1.84 4.64-1.84Zm24.824-9.72v.04c1.093-.533 1.973-1.067 2.64-1.6.667-.56 1-.987 1-1.28 0-.32-.133-.48-.4-.48-.56 0-1.24.373-2.04 1.12-.8.72-1.2 1.453-1.2 2.2Zm5-3.32c0 .587-.453 1.253-1.36 2-.906.72-2.08 1.387-3.52 2 .32.64 1.053.96 2.2.96 1.707 0 3.614-.56 5.72-1.68 2.107-1.12 3.88-2.453 5.32-4 1.467-1.573 2.2-2.947 2.2-4.12 0-1.733-1.64-2.6-4.92-2.6-3.253 0-6.653 1.253-10.2 3.76a36.692 36.692 0 0 0-9.04 9h.36c2.347 0 4.773-.52 7.28-1.56v-.32c0-.907.627-1.84 1.88-2.8 1.254-.96 2.32-1.44 3.2-1.44.587 0 .88.267.88.8Zm-12.68-1.44-1-.08c-.64 0-1.32.467-2.04 1.4-.72.933-1.08 1.733-1.08 2.4 0 1.493.707 2.467 2.12 2.92 2.694-3.733 6.013-6.907 9.96-9.52 3.974-2.64 7.88-3.96 11.72-3.96 3.067 0 4.6.92 4.6 2.76 0 1.333-.76 2.893-2.28 4.68-1.52 1.76-3.453 3.293-5.8 4.6-2.346 1.28-4.56 1.92-6.64 1.92-1.36 0-2.253-.44-2.68-1.32-2.72 1.067-5.253 1.6-7.6 1.6h-.64c-2.4 3.52-3.6 6.573-3.6 9.16 0 1.467.453 2.627 1.36 3.48.933.827 2.36 1.24 4.28 1.24 3.173 0 6.12-.853 8.84-2.56.64-.4 1.12-.733 1.44-1l.48-.4c.08-.053.2-.08.36-.08.16 0 .24.093.24.28 0 .16-.12.32-.36.48-3.387 2.667-7.28 4-11.68 4-2.106 0-3.68-.453-4.72-1.36-1.013-.933-1.52-2.2-1.52-3.8 0-2.72 1.267-5.907 3.8-9.56-1.84-.56-2.76-1.653-2.76-3.28 0-1.147.56-2.253 1.68-3.32 1.12-1.093 2.147-1.64 3.08-1.64.534 0 .8.16.8.48 0 .32-.12.48-.36.48Zm16.783 12.72c-.186 0-.28-.053-.28-.16 0-.133.294-.253.88-.36.587-.107 1.094-.4 1.52-.88.454-.507.774-.76.96-.76.214 0 .347.08.4.24.08.133.134.307.16.52.08.507.48.92 1.2 1.24.08.027.12.067.12.12 0 .053-.053.12-.16.2a.383.383 0 0 1-.28.12c-.586 0-1.12-.453-1.6-1.36-1.066.72-2.04 1.08-2.92 1.08Zm1.2 1.88c0 1.093.44 1.747 1.32 1.96.027-.133.04-.4.04-.8 0-.427-.106-.773-.32-1.04-.213-.293-.44-.44-.68-.44-.24 0-.36.107-.36.32Zm1.16 2.56c-1.306-.133-2-.853-2.08-2.16-.906.027-1.76.533-2.56 1.52-.773.96-1.16 1.88-1.16 2.76 0 .987.52 1.48 1.56 1.48.694 0 1.494-.347 2.4-1.04.907-.72 1.52-1.573 1.84-2.56Zm-7.16 2.44c0-1.067.56-2.2 1.68-3.4 1.147-1.2 2.307-1.813 3.48-1.84.24-.507.64-.76 1.2-.76.587 0 1.04.173 1.36.52.347.32.52.747.52 1.28 0 .507-.053.92-.16 1.24.774 0 1.64-.187 2.6-.56.96-.373 1.534-.653 1.72-.84l.2.2c0 .053-.106.173-.32.36-.213.187-.786.453-1.72.8-.933.347-1.813.533-2.64.56-.426 1.12-1.173 2.107-2.24 2.96-1.066.827-2.173 1.24-3.32 1.24-1.573 0-2.36-.587-2.36-1.76Zm17.356-11.48c.347-.373.653-.56.92-.56.293 0 .44.08.44.24v.12c0 .16-.227.44-.68.84-.427.373-1.48 1.56-3.16 3.56h3.32c.32 0 .48.08.48.24 0 .213-.32.32-.96.32h-3.32c-3.04 3.627-4.56 5.84-4.56 6.64 0 .587.32.88.96.88.213 0 .56-.067 1.04-.2.853-.347 1.48-.707 1.88-1.08.4-.4.64-.6.72-.6.107 0 .16.08.16.24 0 .16-.24.453-.72.88-.48.4-1.08.76-1.8 1.08-.72.32-1.373.48-1.96.48-.88 0-1.32-.453-1.32-1.36s1.533-3.24 4.6-7h-2.36c-.4-.027-.6-.107-.6-.24 0-.16.227-.267.68-.32h2.76c1.973-2.4 3.133-3.787 3.48-4.16Zm-.339 4.8c0-.08.173-.16.52-.24 1.306-.32 2.346-.907 3.12-1.76.293-.293.56-.44.8-.44.266 0 .4.12.4.36 0 .427-.587.92-1.76 1.48-1.174.533-2.107.8-2.8.8-.187 0-.28-.067-.28-.2Zm-2.44 6.16v.28c2.986-1.147 4.48-2.293 4.48-3.44 0-.587-.374-.88-1.12-.88-.72 0-1.467.453-2.24 1.36-.747.907-1.12 1.8-1.12 2.68Zm5.48-3.48c0 1.6-1.787 2.987-5.36 4.16.213.613.8.92 1.76.92 1.626 0 3.173-.667 4.64-2 .08-.107.16-.16.24-.16.106 0 .16.093.16.28 0 .16-.24.44-.72.84-.48.4-1.16.787-2.04 1.16-.88.373-1.747.56-2.6.56-1.814 0-2.72-.667-2.72-2 0-1.093.546-2.2 1.64-3.32 1.12-1.12 2.32-1.68 3.6-1.68.933 0 1.4.413 1.4 1.24Zm24.296-12.6c.8 0 1.48-.347 2.04-1.04.586-.72.96-1.6 1.12-2.64a4.996 4.996 0 0 0-2.48 1.52c-.667.72-1 1.267-1 1.64 0 .347.106.52.32.52Zm-16.76 16.52c.026 1.067 1.053 1.6 3.08 1.6 2.026 0 3.893-.307 5.6-.92-3.334-.96-5.614-1.44-6.84-1.44-1.227 0-1.84.253-1.84.76Zm19.96-20.68c.026-.107.04-.44.04-1s-.16-1.213-.48-1.96a22.704 22.704 0 0 0-8.4 6.08c-2.294 2.64-3.44 4.933-3.44 6.88 0 1.813 1.066 2.72 3.2 2.72 1.84 0 3.72-.68 5.64-2.04 1.946-1.36 3.48-2.88 4.6-4.56 1.146-1.707 1.72-3.107 1.72-4.2s-.547-1.64-1.64-1.64c-.214 0-.374.013-.48.04-.214 1.253-.72 2.32-1.52 3.2-.774.88-1.707 1.32-2.8 1.32-.72 0-1.08-.253-1.08-.76 0-.613.466-1.347 1.4-2.2a8.094 8.094 0 0 1 3.24-1.88Zm19.32 3.76c0-2.8-1.267-4.907-3.8-6.32-2.907 2.187-6.72 6.347-11.44 12.48-1.627 2.08-3.6 4.2-5.92 6.36-2.32 2.133-4.654 3.72-7 4.76 2.533.693 4.546 1.04 6.04 1.04 2.773 0 5.546-.587 8.32-1.76 2.773-1.2 5.146-2.693 7.12-4.48 1.973-1.787 3.573-3.76 4.8-5.92 1.253-2.187 1.88-4.24 1.88-6.16Zm-38.16-2.24c-.187.32-.374.48-.56.48-.187 0-.28-.107-.28-.32 0-.133.053-.293.16-.48 1.28-1.787 3.253-3.533 5.92-5.24 2.693-1.707 5.4-2.56 8.12-2.56 2.746 0 4.626.933 5.64 2.8 2.266-.8 4.546-1.2 6.84-1.2 3.573 0 6.48.507 8.72 1.52 2.373-1.52 4.68-2.507 6.92-2.96.213 0 .32.08.32.24 0 .16-.094.253-.28.28-2.16.453-4.267 1.36-6.32 2.72 2.88 1.493 4.32 3.747 4.32 6.76 0 2.027-.68 4.173-2.04 6.44-1.334 2.267-3.08 4.347-5.24 6.24-2.134 1.867-4.707 3.427-7.72 4.68-3.014 1.227-6.04 1.84-9.08 1.84-1.734 0-4.04-.373-6.92-1.12-2.16.72-4.374 1.08-6.64 1.08-2.854 0-4.28-.64-4.28-1.92 0-.987 1.373-1.48 4.12-1.48 1.546 0 4.013.493 7.4 1.48 2.186-.987 4.4-2.533 6.64-4.64 2.24-2.133 4.173-4.253 5.8-6.36 1.653-2.133 3.586-4.427 5.8-6.88 2.24-2.48 4.36-4.427 6.36-5.84-2.107-1.013-4.88-1.52-8.32-1.52-2 0-4.054.387-6.16 1.16.32.72.48 1.373.48 1.96s-.014.96-.04 1.12c.426-.053.773-.08 1.04-.08 1.52 0 2.28.64 2.28 1.92 0 .933-.427 2.08-1.28 3.44-.854 1.36-1.934 2.667-3.24 3.92-1.28 1.253-2.787 2.32-4.52 3.2-1.707.88-3.267 1.32-4.68 1.32-1.414 0-2.44-.28-3.08-.84-.64-.587-.96-1.373-.96-2.36 0-2.133 1.24-4.6 3.72-7.4 2.506-2.827 5.573-4.96 9.2-6.4-.987-1.787-2.72-2.68-5.2-2.68s-5.067.893-7.76 2.68c-2.694 1.787-4.427 3.453-5.2 5Zm35.657 20.32c1.04 0 2.2-.533 3.48-1.6 1.28-1.093 2.027-2.027 2.24-2.8 0-.32-.2-.587-.6-.8a2.59 2.59 0 0 0-1.36-.36c-1.226 0-2.36.533-3.4 1.6-1.013 1.04-1.52 1.96-1.52 2.76 0 .8.387 1.2 1.16 1.2Zm4.12-6.2c.934 0 1.707.333 2.32 1 .027 0 .24-.2.64-.6.187-.293.4-.44.64-.44s.36.12.36.36l-.16.36c-.08.133-.613.787-1.6 1.96-.96 1.173-1.52 1.867-1.68 2.08-.133.213-.2.533-.2.96 0 .293.187.44.56.44.774 0 1.867-.64 3.28-1.92.08-.107.16-.16.24-.16.107 0 .16.067.16.2 0 .32-.546.827-1.64 1.52-1.066.693-2.026 1.04-2.88 1.04-.586 0-.88-.307-.88-.92 0-.213-.04-.32-.12-.32-.053 0-.093.013-.12.04-1.333.88-2.6 1.32-3.8 1.32-1.173 0-1.76-.533-1.76-1.6 0-1.12.667-2.28 2-3.48 1.334-1.227 2.88-1.84 4.64-1.84Zm15.989.76c.8-.08 1.2-.227 1.2-.44 0-.24-.093-.36-.28-.36-.56 0-1.16.253-1.8.76.187.027.48.04.88.04Zm-8.64 5.56c-.987-.4-1.76-.6-2.32-.6-.533 0-.853.12-.96.36 0 .453.373.68 1.12.68.773 0 1.493-.147 2.16-.44Zm16.48 3.36c.24-.16.427-.24.56-.24.133 0 .2.107.2.32 0 .213-.187.4-.56.56-1.653.64-3.107.96-4.36.96-1.253 0-2.533-.24-3.84-.72-1.28-.48-2.773-1.2-4.48-2.16-1.707-.933-2.8-1.52-3.28-1.76-1.147.453-2.08.68-2.8.68-.72 0-1.267-.093-1.64-.28-.373-.187-.56-.4-.56-.64 0-.613.573-.987 1.72-1.12.72 0 1.747.253 3.08.76.827-.453 1.92-1.333 3.28-2.64 1.36-1.307 2.227-2.107 2.6-2.4-.96-.16-2.067-.507-3.32-1.04-1.253-.533-2.147-.8-2.68-.8-.533 0-.96.12-1.28.36-.293.24-.44.573-.44 1 0 .427.213.853.64 1.28.453.4.933.6 1.44.6.533 0 .973-.04 1.32-.12.347-.08.56-.12.64-.12.107 0 .16.04.16.12 0 .053-.04.107-.12.16-1.067.213-1.867.32-2.4.32-.533 0-1.08-.173-1.64-.52-.56-.373-.84-.88-.84-1.52 0-.667.28-1.173.84-1.52.56-.347 1.2-.52 1.92-.52s1.76.28 3.12.84c1.387.56 2.44.92 3.16 1.08.987-.72 1.88-1.08 2.68-1.08.827 0 1.24.187 1.24.56 0 .293-.307.547-.92.76-.613.187-1.147.28-1.6.28-.453 0-.787-.013-1-.04-.347.293-.88.827-1.6 1.6-1.653 1.787-3.133 3.013-4.44 3.68.64.267 1.813.813 3.52 1.64 1.733.853 3.2 1.493 4.4 1.92 1.2.453 2.453.68 3.76.68 1.333 0 2.507-.307 3.52-.92Zm-3.494-3.8c0-.427.146-.88.44-1.36v-.08c0-.027-.014-.027-.04 0-1.787 1.52-3.267 2.28-4.44 2.28-.774 0-1.16-.267-1.16-.8s.373-1.293 1.12-2.28a26.279 26.279 0 0 1 2.24-2.68c.773-.773 1.133-1.107 1.08-1a.654.654 0 0 1 .48-.2c.186 0 .28.093.28.28 0 .16-.08.32-.24.48-.16.16-.467.493-.92 1-.427.48-.774.867-1.04 1.16-.24.293-.534.64-.88 1.04-.64.827-.96 1.427-.96 1.8 0 .293.213.44.64.44.426 0 1.026-.253 1.8-.76a14.111 14.111 0 0 0 2-1.56l.84-.76c1.12-.987 1.88-1.773 2.28-2.36.24-.293.48-.44.72-.44s.36.093.36.28c0 .16-.347.6-1.04 1.32-1.387 1.467-2.134 2.32-2.24 2.56-.267.613-.4 1.027-.4 1.24 0 .427.32.64.96.64.666 0 1.706-.64 3.12-1.92.08-.107.16-.16.24-.16.106 0 .16.067.16.2 0 .32-.547.827-1.64 1.52-1.067.693-2.027 1.04-2.88 1.04-.587 0-.88-.307-.88-.92Zm11.221-2.76c.24 0 .547-.107.92-.32.134 0 .2.053.2.16 0 .08-.04.147-.12.2-.053.053-.293.147-.72.28-.426.133-.773.2-1.04.2-.88 0-1.32-.28-1.32-.84 0-.213.054-.44.16-.68.134-.24.2-.4.2-.48 0-.08-.026-.12-.08-.12-.533.187-1.306.653-2.32 1.4l-2.84 3.56c-.213.267-.413.4-.6.4-.213 0-.32-.067-.32-.2s.094-.347.28-.64l2.52-3.16c.187-.24.534-.693 1.04-1.36.507-.667.8-1.067.88-1.2.107-.133.294-.2.56-.2.294 0 .44.053.44.16 0 .107-.026.187-.08.24l-.56.8c-.08.107-.173.213-.28.32.24-.053 1.2-.533 2.88-1.44a.69.69 0 0 1 .28-.04c.134 0 .2.04.2.12 0 .053-.026.12-.08.2-.026.053-.16.227-.4.52-.48.587-.72 1.027-.72 1.32 0 .533.307.8.92.8Z" fill="#000"/><defs><clipPath id="ba"><path fill="#fff" transform="translate(0 37)" d="M0 0h203v10H0z"/></clipPath></defs></svg></svg>